<svg width="15" height="10" fill="none" xmlns="http://www.w3.org/2000/svg"><path d="m6.44 1.342.023.013-.025-.01-1.731 2.943-3.12-1.914-.001-.001a.692.692 0 0 0-.961.243l-.01.017-.008.017a.715.715 0 0 0-.038.532l1.836 5.813c.08.27.327.505.666.505h7.93c.364 0 .594-.268.666-.52l1.836-5.8.002-.006.002-.007c.094-.328-.06-.734-.443-.861a.688.688 0 0 0-.587.069L9.364 4.288 7.633 1.345l-.002-.003a.69.69 0 0 0-1.19 0Z" fill="url(#a)"/><path d="m6.44 1.342.023.013-.025-.01-1.731 2.943-3.12-1.914-.001-.001a.692.692 0 0 0-.961.243l-.01.017-.008.017a.715.715 0 0 0-.038.532l1.836 5.813c.08.27.327.505.666.505h7.93c.364 0 .594-.268.666-.52l1.836-5.8.002-.006.002-.007c.094-.328-.06-.734-.443-.861a.688.688 0 0 0-.587.069L9.364 4.288 7.633 1.345l-.002-.003a.69.69 0 0 0-1.19 0Z" fill="url(#b)" fill-opacity=".6"/><path d="m6.44 1.342.023.013-.025-.01-1.731 2.943-3.12-1.914-.001-.001a.692.692 0 0 0-.961.243l-.01.017-.008.017a.715.715 0 0 0-.038.532l1.836 5.813c.08.27.327.505.666.505h7.93c.364 0 .594-.268.666-.52l1.836-5.8.002-.006.002-.007c.094-.328-.06-.734-.443-.861a.688.688 0 0 0-.587.069L9.364 4.288 7.633 1.345l-.002-.003a.69.69 0 0 0-1.19 0Z" stroke="#000"/><defs><radialGradient id="b" cx="0" cy="0" r="1" gradientUnits="userSpaceOnUse" gradientTransform="matrix(0 5.4375 -8.7 0 7.035 2)"><stop stop-color="#fff"/><stop offset="1" stop-color="#fff" stop-opacity="0"/></radialGradient><linearGradient id="a" x1="7.035" y1="1.5" x2="7.035" y2="9" gradientUnits="userSpaceOnUse"><stop stop-color="#FFD50B"/><stop offset="1" stop-color="#FFAD14"/></linearGradient></defs></svg>