<svg width="10" height="10" viewBox="0 0 10 10" fill="none" xmlns="http://www.w3.org/2000/svg">
<path d="M5.03459 5C6.32375 5 7.36792 3.95584 7.36792 2.66667C7.36792 1.3775 6.32375 0.333336 5.03459 0.333336C3.74542 0.333336 2.70125 1.3775 2.70125 2.66667C2.70125 3.95584 3.74542 5 5.03459 5ZM5.03459 6.16667C3.47709 6.16667 0.36792 6.94834 0.36792 8.5V9.08334C0.36792 9.40417 0.63042 9.66667 0.951253 9.66667H9.11792C9.43875 9.66667 9.70125 9.40417 9.70125 9.08334V8.5C9.70125 6.94834 6.59209 6.16667 5.03459 6.16667Z" fill="url(#paint0_linear_2653_28744)"/>
<defs>
<linearGradient id="paint0_linear_2653_28744" x1="5.03459" y1="0.333336" x2="5.03459" y2="9.66667" gradientUnits="userSpaceOnUse">
<stop stop-color="white"/>
<stop offset="0.640625" stop-color="#9CECFD"/>
</linearGradient>
</defs>
</svg>
