<svg width="12" height="14" fill="none" xmlns="http://www.w3.org/2000/svg"><path d="M7.462 1.347c-.18.788-.12 1.34.047 1.765.169.432.467.785.859 1.145a15.752 15.752 0 0 0 .633.54c.221.185.456.381.68.595.45.427.88.939 1.147 1.626.734 1.765.23 3.779-1.128 5.038l-.002.003c-1.246 1.14-2.946 1.41-4.455 1.218h-.001c-.575-.075-1.602-.389-2.524-1.128C1.78 11.396.956 10.204.835 8.415L.833 8.4v-.016c0-1.573.431-2.648.881-3.337l.004-.006c.464-.687 1.536-.285 1.442.535m4.302-4.228-3.754 6.78a7.772 7.772 0 0 1-.314-.997m4.068-5.783C7.616.67 6.887.123 6.28.487c-1.136.67-2.128 1.685-2.662 2.993-.433 1.064-.553 2.296-.225 3.65m4.068-5.783L3.394 7.13M3.16 5.575l-.497-.057.497.057Zm0 0c-.054.482-.027 1.044.234 1.555m.648.763-.003-.002.003.002Zm2.641-.51a5.616 5.616 0 0 1-.01-.051l.193.195.091.092c.48.482.737.808.737 1.166v.016c.017.559-.278 1.062-.708 1.295-.25.135-.581.196-.97.078.448-.35.712-.825.81-1.274.068-.296.048-.575.007-.821-.024-.15-.064-.32-.1-.476-.018-.079-.036-.153-.05-.22Z" fill="url(#a)"/><path d="M7.462 1.347c-.18.788-.12 1.34.047 1.765.169.432.467.785.859 1.145a15.752 15.752 0 0 0 .633.54c.221.185.456.381.68.595.45.427.88.939 1.147 1.626.734 1.765.23 3.779-1.128 5.038l-.002.003c-1.246 1.14-2.946 1.41-4.455 1.218h-.001c-.575-.075-1.602-.389-2.524-1.128C1.78 11.396.956 10.204.835 8.415L.833 8.4v-.016c0-1.573.431-2.648.881-3.337l.004-.006c.464-.687 1.536-.285 1.442.535m4.302-4.228-3.754 6.78a7.772 7.772 0 0 1-.314-.997m4.068-5.783C7.616.67 6.887.123 6.28.487c-1.136.67-2.128 1.685-2.662 2.993-.433 1.064-.553 2.296-.225 3.65m4.068-5.783L3.394 7.13M3.16 5.575l-.497-.057.497.057Zm0 0c-.054.482-.027 1.044.234 1.555m.648.763-.003-.002.003.002Zm2.641-.51a5.616 5.616 0 0 1-.01-.051l.193.195.091.092c.48.482.737.808.737 1.166v.016c.017.559-.278 1.062-.708 1.295-.25.135-.581.196-.97.078.448-.35.712-.825.81-1.274.068-.296.048-.575.007-.821-.024-.15-.064-.32-.1-.476-.018-.079-.036-.153-.05-.22Z" fill="url(#b)" fill-opacity=".6"/><path d="M7.462 1.347c-.18.788-.12 1.34.047 1.765.169.432.467.785.859 1.145a15.752 15.752 0 0 0 .633.54c.221.185.456.381.68.595.45.427.88.939 1.147 1.626.734 1.765.23 3.779-1.128 5.038l-.002.003c-1.246 1.14-2.946 1.41-4.455 1.218h-.001c-.575-.075-1.602-.389-2.524-1.128C1.78 11.396.956 10.204.835 8.415L.833 8.4v-.016c0-1.573.431-2.648.881-3.337l.004-.006c.464-.687 1.536-.285 1.442.535m4.302-4.228-3.754 6.78a7.772 7.772 0 0 1-.314-.997m4.068-5.783C7.616.67 6.887.123 6.28.487c-1.136.67-2.128 1.685-2.662 2.993-.433 1.064-.553 2.296-.225 3.65m4.068-5.783L3.394 7.13M3.16 5.575l-.497-.057.497.057Zm0 0c-.054.482-.027 1.044.234 1.555m.648.763-.003-.002.003.002Zm2.641-.51a5.616 5.616 0 0 1-.01-.051l.193.195.091.092c.48.482.737.808.737 1.166v.016c.017.559-.278 1.062-.708 1.295-.25.135-.581.196-.97.078.448-.35.712-.825.81-1.274.068-.296.048-.575.007-.821-.024-.15-.064-.32-.1-.476-.018-.079-.036-.153-.05-.22Z" stroke="#000"/><defs><radialGradient id="b" cx="0" cy="0" r="1" gradientUnits="userSpaceOnUse" gradientTransform="matrix(0 8.67185 -6.76511 0 6 1.67)"><stop stop-color="#fff"/><stop offset="1" stop-color="#fff" stop-opacity="0"/></radialGradient><linearGradient id="a" x1="5.999" y1=".873" x2="5.999" y2="12.834" gradientUnits="userSpaceOnUse"><stop stop-color="#FFD50B"/><stop offset="1" stop-color="#FFAD14"/></linearGradient></defs></svg>