<svg width="16" height="16" fill="none" xmlns="http://www.w3.org/2000/svg"><path d="m5.74 10.553.353.354-.353-.354a.822.822 0 0 0-.24.587V14c0 .643.524 1.167 1.167 1.167h2.666c.643 0 1.167-.524 1.167-1.167v-2.86a.813.813 0 0 0-.254-.594l-1.66-1.66a.83.83 0 0 0-1.18 0L5.74 10.553ZM10.5 4.86V2c0-.643-.524-1.167-1.167-1.167H6.667C6.024.833 5.5 1.357 5.5 2v2.86c0 .206.077.429.254.594l1.66 1.66a.83.83 0 0 0 1.18 0l1.666-1.667a.822.822 0 0 0 .24-.587Zm-5.64.64H2c-.643 0-1.167.524-1.167 1.167v2.666c0 .643.524 1.167 1.167 1.167h2.86a.813.813 0 0 0 .594-.254l1.66-1.66a.83.83 0 0 0 0-1.18L5.447 5.74a.822.822 0 0 0-.587-.24Zm5.686.246L8.88 7.413a.83.83 0 0 0 0 1.18l1.666 1.667a.84.84 0 0 0 .587.247H14c.643 0 1.167-.524 1.167-1.167V6.673c0-.642-.524-1.166-1.167-1.166h-2.846a.798.798 0 0 0-.607.24Z" fill="url(#a)" stroke="#000"/><defs><linearGradient id="a" x1="8" y1="1.333" x2="8" y2="14.667" gradientUnits="userSpaceOnUse"><stop stop-color="#fff"/><stop offset=".641" stop-color="#9CECFD"/></linearGradient></defs></svg>