<svg width="12" height="12" fill="none" xmlns="http://www.w3.org/2000/svg"><path d="M6 6.5A2.833 2.833 0 1 0 6.001.835 2.833 2.833 0 0 0 6 6.5Zm0 .167c-.841 0-2.071.207-3.103.62-.517.207-1.015.478-1.393.826-.38.352-.67.815-.67 1.387v.583c0 .597.486 1.084 1.083 1.084h8.166c.597 0 1.084-.487 1.084-1.084V9.5c0-.572-.29-1.035-.671-1.387-.378-.348-.876-.619-1.393-.826-1.032-.413-2.262-.62-3.103-.62Z" fill="url(#a)" stroke="#000"/><defs><linearGradient id="a" x1="6" y1="1.333" x2="6" y2="10.667" gradientUnits="userSpaceOnUse"><stop stop-color="#fff"/><stop offset=".641" stop-color="#9CECFD"/></linearGradient></defs></svg>