<?xml version="1.0" encoding="UTF-8"?><svg preserveAspectRatio="xMidYMid" version="1.1" viewBox="0 0 256 177" xmlns="http://www.w3.org/2000/svg"><title>Hardhat</title><path d="m256 148.41s-38.993-5.7767-59.597-7.4336c-19.787-1.5897-43.236-2.5077-68.391-2.5077s-48.604 0.918-68.386 2.5077c-20.61 1.6793-59.597 9.695-59.597 9.695v10.076c0 8.9561 57.302 16.233 127.98 16.233 70.681 0 127.98-7.2769 127.98-16.233l0.005598-12.337z" fill="#F0D50C"/><path d="m88.66 14.764c-46.735 16.652-77.944 60.9-77.946 110.51v16.614c16.677-3.9843 33.681-6.4499 50.804-7.3664-0.11568-3.1869-0.17539-6.398-0.17912-9.6334 0.016793-43.594 10.54-82.822 27.322-110.13z" fill="#F0D50C"/><path d="m245.3 125.28c0.039976-27.223-9.4298-53.605-26.773-74.588 7.5187 24.014 11.265 49.05 11.106 74.213 0 4.5788-0.11755 9.1054-0.35265 13.58 5.3374 0.82149 10.624 1.9428 15.836 3.3585l0.18485-16.563z" fill="#FFF04D"/><path d="m245.3 125.28c0.039976-27.223-9.4298-53.605-26.773-74.588 7.5187 24.014 11.265 49.05 11.106 74.213 0 4.5788-0.11755 9.1054-0.35265 13.58 5.3374 0.82149 10.624 1.9428 15.836 3.3585l0.18485-16.563z" fill="#FFEA00"/><path d="m218.53 50.684c-31.425-38.094-83.33-52.45-129.86-35.92-16.793 27.305-27.311 66.533-27.311 110.13 0 3.2354 0.059708 6.4465 0.17912 9.6334 17.464-1.349 37.683-2.1831 59.334-2.3342h7.1537c33.867-0.40642 67.717 1.7022 101.27 6.3085 0.22764-4.4781 0.34518-9.0046 0.35265-13.58 0.15891-25.173-3.5914-50.218-11.117-74.241z" fill="#FFF04D"/><g transform="translate(81.395)" fill="#FFF04D"><path d="m93.799 58.442-7.4336-46.46c-0.52805-3.4182-2.9772-6.2268-6.2917-7.2153-21.659-6.3561-44.689-6.3561-66.348 0-3.3123 0.99025-5.7589 3.7985-6.2861 7.2153l-7.4392 46.46"/></g><path d="m128.02 131.21h-6.6667-0.24629-0.24629c-67.356 0.4702-120.83 7.5455-120.83 16.205v12.55c-0.10913 0.73545 0.047674 1.4857 0.44221 2.1159 3.4209-2.5692 7.353-4.3749 11.531-5.2953 10.641-2.5891 21.456-4.4 32.36-5.4185 6.1926-0.67927 12.378 1.3397 16.977 5.5416 8.4214 7.7096 19.425 11.985 30.843 11.984h71.649c11.417 0 22.421-4.2752 30.843-11.984 4.599-4.2067 10.788-6.2281 16.983-5.5472 10.902 1.0184 21.715 2.8293 32.354 5.4185 3.9568 0.76087 7.6937 2.396 10.938 4.7859 0.18472 0.18472 0.39743 0.34705 0.55976 0.51498 0.39727-0.6333 0.55602-1.3874 0.44781-2.1271v-12.55c0.039183-8.9281-57.263-16.194-127.94-16.194z" fill="#FFF04D"/><polygon points="154.98 93.942 127.99 110.56 127.99 132.13" fill="#6E6F70"/><polygon points="128.02 132.13 128.02 110.56 101.03 93.942" fill="#0A0A0A"/><polygon points="101.03 84.085 101.03 84.085 128.02 99.691 128.02 40.429" fill="#0A0A0A"/><polygon points="154.98 84.085 127.99 40.424 127.99 40.424 127.99 68.473 127.99 68.473 127.99 99.685 154.98 84.079 154.98 84.079" fill="#6E6F70"/></svg>