<svg xmlns="http://www.w3.org/2000/svg" xmlns:xlink="http://www.w3.org/1999/xlink" xml:space="preserve" id="Layer_1" x="0" y="0" version="1.1" viewBox="0 0 30 30"><style>.st24{fill:#cbcbcb}</style><switch><g><path d="M15 28c7.18 0 13-5.82 13-13S22.18 2 15 2c-1.76 0-3.45.35-4.98.99a4.15 4.15 0 0 0-2.6-.91 4.157 4.157 0 0 0-3.59 6.26A12.968 12.968 0 0 0 2 15c0 7.18 5.82 13 13 13z"/><linearGradient id="SVGID_1_" x1="1.875" x2="28.125" y1="15" y2="15" gradientUnits="userSpaceOnUse"><stop offset="0" stop-color="#002eff"/><stop offset="1" stop-color="#22e1ff"/></linearGradient><path fill="none" stroke="url(#SVGID_1_)" stroke-miterlimit="10" stroke-width=".25" d="M15 28c7.18 0 13-5.82 13-13S22.18 2 15 2c-1.76 0-3.45.35-4.98.99a4.15 4.15 0 0 0-2.6-.91 4.157 4.157 0 0 0-3.59 6.26A12.968 12.968 0 0 0 2 15c0 7.18 5.82 13 13 13z"/><linearGradient id="SVGID_00000054248493703892464120000006193614916339185297_" x1="5.151" x2="9.691" y1="8.503" y2="3.964" gradientUnits="userSpaceOnUse"><stop offset="0" stop-color="#002eff"/><stop offset="1" stop-color="#22e1ff"/></linearGradient><circle cx="7.42" cy="6.23" r="3.21" fill="url(#SVGID_00000054248493703892464120000006193614916339185297_)"/><path fill="#fff" d="m5.98 5.49.8-1.25-1.2 1.2c-.1.1-.05.27.08.3l.64.15c-.05.09-.12.21-.17.32-.04.11-.08.24-.08.36 0 .13.03.26.14.37.15.16.27.22.36.26l.02.01c.04.02.08.04.11.07.03.03.08.07.13.14.01.01.02.03.03.04.12.16.3.42.54.59.13.09.29.17.47.18.18.02.37-.03.56-.16.18-.12.31-.25.36-.41.06-.16.04-.31 0-.45-.04-.11-.1-.24-.16-.36l-.01-.03c-.07-.13-.13-.26-.17-.39-.08-.26-.03-.37.01-.42.02-.02.04-.04.06-.05.01 0 .02-.01.02-.01h.01l.03-.01.07-.02c.07-.03.15-.05.23-.08.08-.03.17-.06.23-.08.03-.01.06-.02.08-.03.01 0 .02-.01.03-.01 0 0 .01 0 .01-.01 0 0 .01 0 .01-.01 0 0 .02-.01.04-.03.07-.05.05-.13.04-.14 0-.02-.01-.03-.01-.04-.01-.01-.01-.02-.01-.02-.01-.01-.02-.01-.02-.02l-.04-.04c-.02-.02-.4-.41-.72-.73-.22-.23-.41-.42-.44-.45 0 0 .21.32.41.64l.4.62a.37.37 0 0 1-.11.05c-.08.03-.16.05-.22.07l-.08.03-.02.01c-.01 0-.01 0-.02.01-.02 0-.05.01-.07.02-.05.03-.11.07-.16.14-.12.15-.17.38-.06.7.05.16.12.31.19.44l.01.01c.06.13.12.24.15.34.02.1.02.18-.01.25-.02.07-.08.15-.23.25a.576.576 0 0 1-.68-.02c-.19-.14-.34-.35-.46-.52a1.242 1.242 0 0 0-.22-.24.623.623 0 0 0-.17-.1c-.01 0-.01-.01-.02-.01-.08-.04-.16-.08-.28-.2-.03-.03-.05-.07-.05-.14s.02-.15.06-.24c.08-.18.2-.35.25-.42.08-.11.02-.25-.1-.29l-.59-.14zm1.34 1.29s-.24 0-.41-.15c-.16-.15 0-.45 0-.45s.05.03.23.24.18.36.18.36z"/><defs><path id="SVGID_00000095307664335337328370000006046937350217668262_" d="m15.01 22.95 4.77-6.89-4.78 3-4.78-3 4.77 6.89v.02l.01-.01.01.01v-.02zm.69-3.5 1.53-.96-1.53 2.21v-1.25zm-1.4 1.25-1.53-2.21 1.53.96v1.25z"/></defs><linearGradient id="SVGID_00000021840893500809277430000010458838730163036333_" x1="10.218" x2="19.782" y1="19.514" y2="19.514" gradientUnits="userSpaceOnUse"><stop offset="0" stop-color="#002eff"/><stop offset="1" stop-color="#22e1ff"/></linearGradient><use xlink:href="#SVGID_00000095307664335337328370000006046937350217668262_" fill="url(#SVGID_00000021840893500809277430000010458838730163036333_)" overflow="visible"/><clipPath id="SVGID_00000010996828958052869790000011549135191929438094_"><use xlink:href="#SVGID_00000095307664335337328370000006046937350217668262_" overflow="visible"/></clipPath><defs><path id="SVGID_00000108269704872081141580000009303180521305915567_" d="M19.77 15.24 15 7.03l-4.77 8.21L15 18.25l4.77-3.01zm-4.07-1.49 2.69 1.52-2.69 1.69v-3.21zm2.85.81-2.86-1.61V9.66l2.86 4.9zm-4.26-1.63-2.85 1.61 2.85-4.89v3.28zm-2.7 2.34 2.7-1.52v3.22l-2.7-1.7z"/></defs><linearGradient id="SVGID_00000055669197764062666820000013805751483646790542_" x1="10.218" x2="19.766" y1="12.638" y2="12.638" gradientUnits="userSpaceOnUse"><stop offset="0" stop-color="#002eff"/><stop offset="1" stop-color="#22e1ff"/></linearGradient><use xlink:href="#SVGID_00000108269704872081141580000009303180521305915567_" fill="url(#SVGID_00000055669197764062666820000013805751483646790542_)" overflow="visible"/><clipPath id="SVGID_00000094586558856689965480000015640390592866287232_"><use xlink:href="#SVGID_00000108269704872081141580000009303180521305915567_" overflow="visible"/></clipPath><defs><circle id="SVGID_00000120517220796603019050000003996763071329384858_" cx="42.31" cy="6.23" r="3.21"/></defs><clipPath id="SVGID_00000140704014514932247430000000548236877679036581_"><use xlink:href="#SVGID_00000120517220796603019050000003996763071329384858_" overflow="visible"/></clipPath><g clip-path="url(#SVGID_00000140704014514932247430000000548236877679036581_)"><path fill="#c4c4c4" d="M24.22-2.87 42 6.23l-8.99-16.67L22.2-21.25l-8.18 8.18z"/><path fill="#f4f4f4" d="m24.22-2.87 1.26 18.03L42 6.23z"/><path fill="#e3e3e3" d="m25.48 15.16 2.88 15.16L42 6.23z"/><path d="m27.77 29.72 8.25 8.99L42 6.23z" class="st24"/></g><defs><circle id="SVGID_00000125566928833046198840000004504953434100163232_" cx="42.31" cy="-29.77" r="3.21"/></defs><clipPath id="SVGID_00000076576667095523942260000015206405932274270848_"><use xlink:href="#SVGID_00000125566928833046198840000004504953434100163232_" overflow="visible"/></clipPath><g clip-path="url(#SVGID_00000076576667095523942260000015206405932274270848_)"><path d="m27.77-6.28 8.25 8.99L42-29.77z" class="st24"/></g></g></switch></svg>