<svg xmlns="http://www.w3.org/2000/svg" width="45" height="30" viewBox="0 0 45 30" fill="none"><mask id="mask0_138_178555" style="mask-type:alpha" maskUnits="userSpaceOnUse" x="-2" y="-2" width="47" height="34"><path fill-rule="evenodd" clip-rule="evenodd" d="M21.8835 30C27.5591 27.3912 31.5 21.6558 31.5 15C31.5 8.3442 27.5591 2.60883 21.8835 0H45V30H21.8835ZM8.11654 30H21.8835C19.7884 30.963 17.4569 31.5 15 31.5C12.5431 31.5 10.2116 30.963 8.11654 30ZM1.5 24.4892C-0.390088 21.8052 -1.5 18.5322 -1.5 15C-1.5 11.4678 -0.390088 8.19478 1.5 5.51076V24.4892ZM1.5 24.4892C3.17142 26.8627 5.45295 28.7757 8.11654 30H1.5V24.4892ZM8.11654 0C10.2116 -0.963012 12.5431 -1.5 15 -1.5C17.4569 -1.5 19.7884 -0.963012 21.8835 0H8.11654ZM8.11654 0C5.45294 1.22433 3.17142 3.13726 1.5 5.51076V0H8.11654Z" fill="#D9D9D9"/></mask><g mask="url(#mask0_138_178555)"><path d="M30 30C38.3125 30 45 23.3125 45 15C45 6.68745 38.3125 0 30 0C21.6874 0 15 6.68745 15 15C15 23.3125 21.6874 30 30 30Z" fill="#2775CA"/><path d="M34.125 17.375C34.125 15.1876 32.8125 14.4376 30.1875 14.1251C28.3125 13.8751 27.9375 13.3751 27.9375 12.5C27.9375 11.6249 28.5626 11.0626 29.8125 11.0626C30.9375 11.0626 31.5626 11.4376 31.875 12.3751C31.9376 12.5626 32.1251 12.6875 32.3126 12.6875H33.3125C33.5625 12.6875 33.75 12.5 33.75 12.2501V12.1876C33.5 10.8125 32.375 9.75005 30.9375 9.6251V8.1251C30.9375 7.87505 30.75 7.68755 30.4376 7.625H29.5001C29.25 7.625 29.0625 7.8125 29 8.1251V9.56255C27.125 9.8126 25.9376 11.0626 25.9376 12.6251C25.9376 14.6876 27.1875 15.5 29.8125 15.8126C31.5626 16.1251 32.1251 16.5001 32.1251 17.5001C32.1251 18.5002 31.25 19.1876 30.0626 19.1876C28.4375 19.1876 27.875 18.5 27.6875 17.5625C27.6251 17.3126 27.4376 17.1875 27.2501 17.1875H26.1875C25.9376 17.1875 25.7501 17.375 25.7501 17.6251V17.6876C26 19.25 27 20.375 29.0625 20.6876V22.1876C29.0625 22.4375 29.25 22.625 29.5625 22.6876H30.5C30.75 22.6876 30.9375 22.5001 31.0001 22.1876V20.6876C32.8751 20.375 34.125 19.0625 34.125 17.375Z" fill="white"/><path d="M26.8125 23.9375C21.9375 22.1876 19.4374 16.7501 21.25 11.9375C22.1875 9.31246 24.25 7.31251 26.8125 6.37501C27.0625 6.25006 27.1875 6.06256 27.1875 5.74996V4.87501C27.1875 4.62496 27.0625 4.43746 26.8125 4.37506C26.7499 4.37506 26.625 4.37506 26.5624 4.43746C20.625 6.31246 17.3749 12.6251 19.2499 18.5625C20.3749 22.0625 23.0625 24.75 26.5624 25.875C26.8125 26 27.0625 25.875 27.1249 25.625C27.1875 25.5626 27.1875 25.5 27.1875 25.3751V24.5C27.1875 24.3125 27 24.0626 26.8125 23.9375ZM33.4375 4.43746C33.1875 4.31251 32.9374 4.43746 32.875 4.68751C32.8125 4.75006 32.8125 4.81246 32.8125 4.93756V5.81251C32.8125 6.06256 33 6.31246 33.1875 6.43756C38.0625 8.18746 40.5625 13.625 38.7499 18.4376C37.8124 21.0626 35.7499 23.0625 33.1875 24C32.9374 24.125 32.8125 24.3125 32.8125 24.6251V25.5C32.8125 25.7501 32.9374 25.9376 33.1875 26C33.25 26 33.375 26 33.4375 25.9376C39.375 24.0626 42.625 17.75 40.75 11.8125C39.625 8.25001 36.8749 5.56246 33.4375 4.43746Z" fill="white"/></g><circle cx="15" cy="15" r="15" fill="black"/><circle cx="15" cy="15" r="14.5" stroke="white" stroke-opacity="0.2"/><path fill-rule="evenodd" clip-rule="evenodd" d="M14.9882 20.8786L21.923 16.5306L14.9882 26.5385V20.8786ZM16.0194 21.4446V23.253L18.2401 20.0494L16.0194 21.4446Z" fill="#5A9DED"/><path fill-rule="evenodd" clip-rule="evenodd" d="M15.698 11.8456L20.8174 14.7389L20.3124 15.6304L15.193 12.7372L15.698 11.8456Z" fill="#D895D3"/><path fill-rule="evenodd" clip-rule="evenodd" d="M14.9882 3.46155L21.8996 15.3442L14.9882 19.6985V3.46155ZM16.0074 7.26428V17.8522L20.5213 15.0084L16.0074 7.26428Z" fill="#FF9C92"/><path fill-rule="evenodd" clip-rule="evenodd" d="M15.0117 20.8786L8.0769 16.5306L15.0117 26.5385V20.8786ZM13.9805 21.4446V23.253L11.7598 20.0494L13.9805 21.4446Z" fill="#53D3E0"/><path fill-rule="evenodd" clip-rule="evenodd" d="M14.0864 11.9422L8.96698 14.8355L9.47198 15.727L14.5914 12.8338L14.0864 11.9422Z" fill="#A6E275"/><path fill-rule="evenodd" clip-rule="evenodd" d="M14.9882 3.46155L8.0769 15.3442L14.9882 19.6985V3.46155ZM13.969 7.26428V17.8522L9.45518 15.0084L13.969 7.26428Z" fill="#FFE94D"/></svg>