<svg xmlns="http://www.w3.org/2000/svg" xmlns:xlink="http://www.w3.org/1999/xlink" xml:space="preserve" id="Layer_1" x="0" y="0" version="1.1" viewBox="0 0 30 30"><style>.st5{fill:#060e37}.st8{fill:#c4c4c4}.st15{fill:#afb7c2}.st24{fill:#cbcbcb}</style><switch><g><path d="M15 28c7.18 0 13-5.82 13-13S22.18 2 15 2c-1.76 0-3.45.35-4.98.99a4.15 4.15 0 0 0-2.6-.91 4.157 4.157 0 0 0-3.59 6.26A12.968 12.968 0 0 0 2 15c0 7.18 5.82 13 13 13z" class="st5"/><path fill="#3e3e3e" d="M15 2.25c7.03 0 12.75 5.72 12.75 12.75S22.03 27.75 15 27.75 2.25 22.03 2.25 15c0-2.31.62-4.57 1.8-6.53l.08-.13-.08-.13c-.35-.6-.54-1.28-.54-1.98 0-2.15 1.75-3.91 3.91-3.91.9 0 1.74.3 2.44.86l.12.09.14-.06A12.9 12.9 0 0 1 15 2.25M15 2c-1.76 0-3.45.35-4.98.99a4.15 4.15 0 0 0-2.6-.91 4.157 4.157 0 0 0-3.59 6.26A12.995 12.995 0 0 0 2 15c0 7.18 5.82 13 13 13s13-5.82 13-13S22.18 2 15 2z"/><defs><circle id="SVGID_00000102515576681092377250000014020937409792752054_" cx="7.42" cy="6.23" r="3.21"/></defs><clipPath id="SVGID_00000097481629852918023360000003904762261207625356_"><use xlink:href="#SVGID_00000102515576681092377250000014020937409792752054_" overflow="visible"/></clipPath><g clip-path="url(#SVGID_00000097481629852918023360000003904762261207625356_)"><path d="m-10.67-2.87 17.78 9.1-8.99-16.67-10.81-10.81-8.18 8.18z" class="st8"/><path fill="#979ba6" d="m7.11 6.23-8.99-16.67 7.33-2.52z"/><path d="m5.28-10.39 4.28 2.85L7.3 1.4 5.28-10.39m-1.37-2.12 3.2 18.73 3.6-14.2-6.8-4.53z" class="st8"/><path fill="#dfdfdc" d="m7.11 6.23 3.6-14.21 2.65.46z"/><path fill="#c9c9c7" d="m7.11 6.23 6.25-13.75 16.51 3.78z"/><path fill="#b0b4bf" d="m34.57.13-4.7-3.87L7.11 6.23z"/><path fill="#adb6be" d="M40.67 21.07 38.62-.82 7.11 6.23z"/><path fill="#b6b6b6" d="m7.11 6.23 33.56 14.84.68 4.32z"/><path d="m7.11 6.23 25.56 28.61-1.81 7.86 10.68-3.64 1.28-4.77-7.19-12.12z" class="st15"/><path fill="#d6d8db" d="m7.11 6.23 14.3 29.46 11.86-1.05z"/><path fill="#f4f4f4" d="m-10.67-2.87 1.26 18.03L7.11 6.23z"/><path fill="#e3e3e3" d="m-9.41 15.16 2.88 15.16L7.11 6.23z"/><path d="m-7.12 29.72 8.25 8.99L7.11 6.23z" class="st24"/><path fill="#dbdedf" d="m2.02 33.99 2.94-15.91 6.6 13.74z"/><path fill="#b3b8ca" d="M4.96 18.08 7.11 6.23l11.52 23.9-7.07 1.69z"/></g><path d="M6.04 5.13h.66v.45c.13-.31.4-.5.73-.5v.72c-.51.02-.73.23-.73.73v.97h-.66V5.13zM7.91 5.72h-.33v-.59h.33v-.52h.67v.52h.59v.58h-.59v.89c0 .24.12.34.35.34.07 0 .15-.01.24-.03l.03.6c-.12.04-.26.05-.41.05-.57 0-.88-.3-.88-.88v-.96z" class="st5"/><defs><circle id="SVGID_00000083058289659535856590000000111215603656867726_" cx="7.42" cy="6.23" r="3.21"/></defs><clipPath id="SVGID_00000038394166663055307010000002940501534404574137_"><use xlink:href="#SVGID_00000083058289659535856590000000111215603656867726_" overflow="visible"/></clipPath><defs><path id="SVGID_00000022535724799662613580000013692259793199138217_" d="m15.01 22.95 4.77-6.89-4.78 3-4.78-3 4.77 6.89v.02l.01-.01.01.01v-.02zm.69-3.5 1.53-.96-1.53 2.21v-1.25zm-1.4 1.25-1.53-2.21 1.53.96v1.25z"/></defs><use xlink:href="#SVGID_00000022535724799662613580000013692259793199138217_" fill="#fff" overflow="visible"/><clipPath id="SVGID_00000091010766854842610380000005856032066298831266_"><use xlink:href="#SVGID_00000022535724799662613580000013692259793199138217_" overflow="visible"/></clipPath><defs><path id="SVGID_00000097492950658588318320000013565178935749530247_" d="M19.77 15.24 15 7.03l-4.77 8.21L15 18.25l4.77-3.01zm-4.07-1.49 2.69 1.52-2.69 1.69v-3.21zm2.85.81-2.86-1.61V9.66l2.86 4.9zm-4.26-1.63-2.85 1.61 2.85-4.89v3.28zm-2.7 2.34 2.7-1.52v3.22l-2.7-1.7z"/></defs><use xlink:href="#SVGID_00000097492950658588318320000013565178935749530247_" fill="#fff" overflow="visible"/><clipPath id="SVGID_00000166668231589858871600000008093813552019891594_"><use xlink:href="#SVGID_00000097492950658588318320000013565178935749530247_" overflow="visible"/></clipPath><defs><circle id="SVGID_00000107581752235829663110000016814091856186922163_" cx="7.42" cy="-29.77" r="3.21"/></defs><clipPath id="SVGID_00000067917264702264468190000001618544486718826881_"><use xlink:href="#SVGID_00000107581752235829663110000016814091856186922163_" overflow="visible"/></clipPath><g clip-path="url(#SVGID_00000067917264702264468190000001618544486718826881_)"><path d="M7.11-29.77 32.67-1.16 30.86 6.7l10.68-3.64 1.28-4.77-7.19-12.12z" class="st15"/><path fill="#9c9c9c" d="m21.41-.31-.57 5.13L30.86 6.7z"/><path fill="#c7cdd8" d="m20.84 4.82.57-5.13-1.22-2.4L12.95-1l2.39 4.85z"/><path fill="#dde2ea" d="m1.37 1.05 1.85 4.42 12.12-1.62L12.95-1 2.14.11z"/><path d="m-7.12-6.28 8.25 8.99 5.98-32.48z" class="st24"/></g></g></switch></svg>