<svg xmlns="http://www.w3.org/2000/svg" xmlns:xlink="http://www.w3.org/1999/xlink" xml:space="preserve" id="Layer_1" x="0" y="0" version="1.1" viewBox="0 0 30 30"><style>.st2{fill:#fff}</style><switch><g><path fill="#060e37" d="M15 28c7.18 0 13-5.82 13-13S22.18 2 15 2c-1.76 0-3.45.35-4.98.99a4.15 4.15 0 0 0-2.6-.91 4.157 4.157 0 0 0-3.59 6.26A12.968 12.968 0 0 0 2 15c0 7.18 5.82 13 13 13z"/><path fill="#3e3e3e" d="M15 2.25c7.03 0 12.75 5.72 12.75 12.75S22.03 27.75 15 27.75 2.25 22.03 2.25 15c0-2.31.62-4.57 1.8-6.53l.08-.13-.08-.13c-.35-.6-.54-1.28-.54-1.98 0-2.15 1.75-3.91 3.91-3.91.9 0 1.74.3 2.44.86l.12.09.14-.06A12.9 12.9 0 0 1 15 2.25M15 2c-1.76 0-3.45.35-4.98.99a4.15 4.15 0 0 0-2.6-.91 4.157 4.157 0 0 0-3.59 6.26A12.995 12.995 0 0 0 2 15c0 7.18 5.82 13 13 13s13-5.82 13-13S22.18 2 15 2z"/><defs><circle id="SVGID_00000078760276103293086870000010024857418054746504_" cx="7.42" cy="6.23" r="3.21"/></defs><clipPath id="SVGID_00000127764461563663097400000006966925310358457002_"><use xlink:href="#SVGID_00000078760276103293086870000010024857418054746504_" overflow="visible"/></clipPath><defs><circle id="SVGID_00000009561822772821865930000016529784096024698500_" cx="7.42" cy="6.23" r="3.21"/></defs><use xlink:href="#SVGID_00000009561822772821865930000016529784096024698500_" fill="#1e1e1e" overflow="visible"/><clipPath id="SVGID_00000047044528443827454120000006347132129594161293_"><use xlink:href="#SVGID_00000009561822772821865930000016529784096024698500_" overflow="visible"/></clipPath><defs><path id="SVGID_00000164510156014896860950000014945968208091394227_" d="m15.01 22.95 4.77-6.89-4.78 3-4.78-3 4.77 6.89v.02l.01-.01.01.01v-.02zm.69-3.5 1.53-.96-1.53 2.21v-1.25zm-1.4 1.25-1.53-2.21 1.53.96v1.25z"/></defs><use xlink:href="#SVGID_00000164510156014896860950000014945968208091394227_" fill="#fff" overflow="visible"/><clipPath id="SVGID_00000090272076563617629760000007310631278403888316_"><use xlink:href="#SVGID_00000164510156014896860950000014945968208091394227_" overflow="visible"/></clipPath><defs><path id="SVGID_00000008150245643437503990000009792728401546570644_" d="M19.77 15.24 15 7.03l-4.77 8.21L15 18.25l4.77-3.01zm-4.07-1.49 2.69 1.52-2.69 1.69v-3.21zm2.85.81-2.86-1.61V9.66l2.86 4.9zm-4.26-1.63-2.85 1.61 2.85-4.89v3.28zm-2.7 2.34 2.7-1.52v3.22l-2.7-1.7z"/></defs><use xlink:href="#SVGID_00000008150245643437503990000009792728401546570644_" fill="#fff" overflow="visible"/><clipPath id="SVGID_00000030471950430454850860000015630891776330174629_"><use xlink:href="#SVGID_00000008150245643437503990000009792728401546570644_" overflow="visible"/></clipPath><defs><circle id="SVGID_00000026846017005991258140000011960964768004529589_" cx="7.42" cy="-28.38" r="3.21"/></defs><clipPath id="SVGID_00000113354811420586101480000004791445532735968398_"><use xlink:href="#SVGID_00000026846017005991258140000011960964768004529589_" overflow="visible"/></clipPath><g clip-path="url(#SVGID_00000113354811420586101480000004791445532735968398_)"><path fill="#afb7c2" d="M7.11-28.39 32.67.22l-1.81 7.87 10.68-3.64 1.28-4.77-7.19-12.12z"/><path fill="#d6d8db" d="m7.11-28.39 14.3 29.46L33.27.03z"/><path fill="#9c9c9c" d="m21.41 1.07-.57 5.14 10.02 1.88z"/><path fill="#c7cdd8" d="m20.84 6.21.57-5.14-1.22-2.39L12.95.39l2.39 4.85z"/><path fill="#dde2ea" d="m1.37 2.44 1.85 4.42 12.12-1.62L12.95.39 2.14 1.5z"/><path fill="#cbcbcb" d="M-7.12-4.89 1.13 4.1l5.98-32.49z"/></g><path d="M5.17 4.91h1.12c.63 0 1.02.39 1.02.93 0 .39-.21.69-.57.83l.65 1.04h-.73l-.54-.96H5.8v.96h-.63v-2.8zm.63.58v.71h.44c.26 0 .42-.14.42-.36 0-.21-.16-.36-.42-.36H5.8zM8.36 5.49h-.75v-.58h2.12v.58h-.75v2.22h-.62V5.49z" class="st2"/></g></switch></svg>