<svg width="26" height="26" viewBox="0 0 26 26" fill="none" xmlns="http://www.w3.org/2000/svg">
<path d="M0 13C0 5.8203 5.8203 0 13 0C20.1797 0 26 5.8203 26 13C26 20.1797 20.1797 26 13 26C5.8203 26 0 20.1797 0 13Z" fill="#E84142"/>
<mask id="mask0_507_134" style="mask-type:alpha" maskUnits="userSpaceOnUse" x="0" y="0" width="26" height="26">
<circle cx="13" cy="13" r="13" fill="#708B96"/>
</mask>
<g mask="url(#mask0_507_134)">
<path d="M16.8803 13.2858C17.2614 12.6276 17.8764 12.6276 18.2575 13.2858L20.6307 17.452C21.0118 18.1103 20.7 18.6473 19.9378 18.6473H15.1567C14.4032 18.6473 14.0913 18.1103 14.4638 17.452L16.8803 13.2858ZM12.2898 5.26537C12.6709 4.6071 13.2772 4.6071 13.6583 5.26537L14.1866 6.21812L15.4339 8.40946C15.737 9.03308 15.737 9.76931 15.4339 10.3929L11.2504 17.6425C10.8693 18.2315 10.237 18.604 9.53544 18.6473H6.06221C5.3 18.6473 4.98819 18.1189 5.36929 17.452L12.2898 5.26537Z" fill="white"/>
</g>
</svg>
