<svg id="svg" version="1.1" xmlns="http://www.w3.org/2000/svg" xmlns:xlink="http://www.w3.org/1999/xlink" width="400" height="80.3125" viewBox="0, 0, 400,80.3125"><g id="svgg"><path id="path0" d="M27.233 12.244 C 16.042 23.398,14.970 24.514,15.183 24.781 C 15.395 25.048,21.627 31.253,22.417 31.985 C 22.600 32.154,23.043 32.605,23.401 32.985 C 23.760 33.366,24.122 33.654,24.207 33.625 C 24.292 33.597,27.562 30.381,31.473 26.479 C 35.383 22.576,38.856 19.147,39.189 18.858 L 39.795 18.332 47.189 25.751 C 51.256 29.832,54.755 33.285,54.964 33.426 C 55.335 33.675,55.411 33.617,58.023 31.049 C 61.960 27.180,64.500 24.628,64.500 24.543 C 64.500 24.476,59.091 19.077,44.736 4.816 C 42.070 2.167,39.806 0.000,39.703 0.000 C 39.601 0.000,33.989 5.510,27.233 12.244 M337.110 18.677 C 335.522 18.897,332.695 19.533,331.917 19.845 C 331.733 19.918,331.302 20.073,330.958 20.189 C 330.615 20.305,330.333 20.452,330.333 20.515 C 330.333 20.579,330.165 20.673,329.958 20.726 C 329.576 20.823,326.749 22.447,326.248 22.857 C 326.096 22.982,325.585 23.435,325.111 23.864 C 324.638 24.294,324.099 24.781,323.915 24.948 C 323.525 25.301,322.692 26.286,322.333 26.819 C 322.196 27.024,321.896 27.405,321.667 27.666 C 321.438 27.926,321.104 28.427,320.925 28.778 C 320.746 29.129,320.511 29.529,320.403 29.667 C 320.295 29.804,320.149 30.104,320.079 30.333 C 320.009 30.563,319.743 31.200,319.488 31.750 C 316.419 38.365,317.327 47.665,321.608 53.457 C 322.099 54.120,322.500 54.702,322.500 54.748 C 322.500 55.262,327.852 59.667,328.477 59.667 C 328.566 59.667,328.664 59.732,328.694 59.812 C 328.760 59.985,330.583 60.833,330.888 60.833 C 331.005 60.833,331.171 60.898,331.258 60.978 C 331.490 61.189,333.771 61.935,334.833 62.147 C 340.251 63.226,348.096 62.141,351.114 59.895 C 351.406 59.678,351.682 59.500,351.729 59.500 C 351.897 59.500,354.268 57.723,354.917 57.110 C 355.283 56.764,355.940 56.171,356.375 55.793 C 357.395 54.906,357.603 55.280,354.175 51.838 C 350.829 48.476,351.089 48.642,350.305 49.375 C 349.395 50.225,348.644 50.833,348.503 50.833 C 348.432 50.833,348.281 50.945,348.168 51.081 C 348.055 51.218,347.896 51.289,347.814 51.238 C 347.733 51.188,347.667 51.213,347.667 51.294 C 347.667 51.375,347.094 51.768,346.395 52.168 C 342.792 54.230,337.369 54.272,334.186 52.262 C 333.829 52.037,333.491 51.898,333.435 51.954 C 333.379 52.010,333.333 51.970,333.333 51.865 C 333.333 51.761,333.108 51.559,332.834 51.417 C 332.559 51.275,332.090 50.882,331.792 50.545 C 331.494 50.207,330.941 49.591,330.563 49.174 C 330.185 48.757,329.820 48.236,329.752 48.016 C 329.684 47.796,329.423 47.268,329.172 46.842 C 327.805 44.524,327.323 40.772,327.981 37.582 C 328.274 36.161,329.370 33.393,329.744 33.128 C 329.854 33.050,329.856 33.003,329.750 33.000 C 329.640 32.997,329.640 32.953,329.751 32.872 C 329.843 32.805,330.142 32.450,330.414 32.083 C 333.619 27.772,341.204 25.890,345.097 28.441 C 345.309 28.580,345.505 28.690,345.533 28.685 C 345.734 28.650,346.333 28.901,346.333 29.019 C 346.333 29.100,346.448 29.167,346.588 29.167 C 346.728 29.167,347.432 29.617,348.153 30.167 C 348.874 30.717,349.541 31.167,349.634 31.167 C 349.727 31.167,349.999 31.398,350.237 31.682 L 350.670 32.196 351.221 31.723 C 351.524 31.463,352.007 30.912,352.295 30.500 C 352.583 30.087,353.200 29.375,353.666 28.917 C 354.132 28.458,354.619 27.887,354.749 27.647 C 354.880 27.406,355.333 26.881,355.757 26.480 C 357.018 25.285,357.019 25.293,355.721 24.076 C 355.095 23.490,354.539 23.008,354.484 23.005 C 354.430 23.002,354.167 22.813,353.901 22.584 C 353.635 22.354,353.353 22.167,353.276 22.167 C 353.198 22.167,352.908 22.005,352.631 21.808 C 352.146 21.463,349.671 20.136,349.500 20.130 C 349.454 20.128,349.229 20.054,349.000 19.964 C 346.257 18.896,340.230 18.244,337.110 18.677 M230.754 19.792 C 230.572 20.227,230.419 20.621,230.413 20.667 C 230.374 20.970,229.877 22.228,229.492 23.000 C 228.881 24.223,228.368 25.377,228.303 25.674 C 228.274 25.808,228.192 25.960,228.121 26.012 C 228.050 26.065,227.962 26.252,227.926 26.429 C 227.853 26.781,227.284 28.149,226.092 30.833 C 225.665 31.796,225.199 32.921,225.056 33.333 C 224.914 33.746,224.731 34.165,224.650 34.265 C 224.569 34.365,224.552 34.497,224.613 34.557 C 224.673 34.617,224.643 34.667,224.546 34.667 C 224.449 34.667,224.323 34.854,224.265 35.082 C 224.208 35.311,223.863 36.117,223.499 36.874 C 223.134 37.631,222.836 38.345,222.835 38.461 C 222.834 38.577,222.299 39.852,221.645 41.294 C 220.992 42.736,220.286 44.367,220.076 44.917 C 219.724 45.842,219.313 46.784,218.332 48.917 C 218.121 49.375,217.948 49.844,217.947 49.958 C 217.945 50.073,217.890 50.167,217.824 50.167 C 217.757 50.167,217.651 50.373,217.588 50.625 C 217.472 51.090,216.813 52.673,216.048 54.322 C 215.817 54.820,215.616 55.307,215.601 55.405 C 215.586 55.503,215.525 55.661,215.465 55.757 C 215.406 55.852,215.173 56.415,214.948 57.007 C 214.723 57.599,214.229 58.736,213.851 59.534 C 213.473 60.332,213.091 61.176,213.003 61.409 L 212.842 61.833 217.734 61.833 L 222.626 61.833 223.591 59.664 C 224.121 58.472,224.556 57.384,224.556 57.248 C 224.556 57.112,224.622 57.000,224.704 57.000 C 224.786 57.000,224.807 56.925,224.750 56.833 C 224.693 56.742,224.714 56.667,224.796 56.667 C 224.878 56.667,224.944 56.553,224.944 56.415 C 224.944 56.181,225.093 55.816,226.111 53.552 C 226.325 53.076,226.500 52.608,226.500 52.510 C 226.500 52.388,229.233 52.333,235.404 52.333 L 244.309 52.333 244.737 53.268 C 244.972 53.782,245.123 54.269,245.072 54.351 C 245.022 54.433,245.054 54.500,245.144 54.500 C 245.234 54.500,245.395 54.781,245.501 55.125 C 245.694 55.746,245.981 56.461,246.422 57.417 C 246.807 58.252,247.797 60.723,247.925 61.167 C 247.991 61.396,248.129 61.638,248.231 61.706 C 248.486 61.874,258.167 61.867,258.167 61.698 C 258.167 61.624,258.017 61.252,257.834 60.873 C 257.650 60.494,257.474 60.049,257.441 59.884 C 257.409 59.718,257.252 59.283,257.094 58.917 C 256.677 57.953,255.343 55.000,255.068 54.433 C 254.939 54.167,254.833 53.895,254.833 53.829 C 254.833 53.763,254.668 53.343,254.465 52.896 C 254.263 52.449,254.088 52.046,254.076 52.000 C 254.031 51.824,253.758 51.199,253.141 49.858 C 252.788 49.093,252.500 48.366,252.500 48.243 C 252.500 48.120,252.425 47.973,252.333 47.917 C 252.242 47.860,252.167 47.668,252.167 47.490 C 252.167 47.312,252.092 47.167,252.000 47.167 C 251.908 47.167,251.833 47.050,251.833 46.908 C 251.833 46.664,251.556 45.979,250.827 44.417 C 250.655 44.050,250.253 43.075,249.934 42.250 C 249.614 41.425,249.161 40.357,248.926 39.876 C 248.692 39.395,248.500 38.965,248.500 38.920 C 248.500 38.875,248.273 38.371,247.997 37.800 C 247.720 37.228,247.461 36.583,247.422 36.366 C 247.382 36.149,247.278 35.884,247.189 35.777 C 247.101 35.671,247.022 35.508,247.014 35.417 C 246.994 35.188,245.684 32.211,245.306 31.537 C 245.138 31.236,244.997 30.898,244.994 30.787 C 244.991 30.675,244.844 30.283,244.667 29.917 C 244.490 29.550,244.342 29.186,244.339 29.107 C 244.336 29.029,244.116 28.504,243.851 27.940 C 243.586 27.377,243.132 26.354,242.843 25.667 C 242.553 24.979,242.233 24.229,242.131 24.000 C 242.028 23.771,241.927 23.493,241.905 23.383 C 241.883 23.273,241.663 22.748,241.416 22.216 C 241.168 21.685,240.814 20.912,240.627 20.500 C 240.441 20.087,240.211 19.581,240.116 19.375 L 239.944 19.000 235.514 19.001 L 231.083 19.001 230.754 19.792 M93.833 40.584 L 93.833 61.849 105.958 61.781 C 117.412 61.716,118.162 61.694,119.500 61.376 C 121.893 60.807,122.868 60.516,123.275 60.249 C 123.491 60.108,123.667 60.039,123.667 60.095 C 123.667 60.262,125.174 59.339,126.167 58.564 C 127.631 57.422,129.193 55.366,129.427 54.274 C 129.488 53.986,129.624 53.645,129.728 53.516 C 130.527 52.527,129.827 45.954,128.759 44.426 C 128.036 43.392,126.665 41.833,126.477 41.833 C 126.412 41.833,125.809 41.472,125.137 41.029 C 123.763 40.124,122.894 39.667,122.548 39.667 C 122.161 39.667,122.461 39.376,123.258 38.978 C 126.430 37.394,128.121 32.937,127.471 27.876 C 127.292 26.480,125.429 23.167,124.824 23.167 C 124.737 23.167,124.667 23.068,124.667 22.948 C 124.667 22.754,123.814 22.000,123.595 22.000 C 123.549 22.000,122.989 21.663,122.353 21.251 C 121.716 20.839,121.057 20.476,120.889 20.443 C 120.721 20.410,120.471 20.343,120.333 20.293 C 118.821 19.749,118.484 19.657,118.337 19.748 C 118.243 19.806,118.167 19.791,118.167 19.716 C 118.167 19.486,117.297 19.464,105.375 19.390 L 93.833 19.318 93.833 40.584 M141.500 40.583 L 141.500 61.833 146.333 61.833 L 151.167 61.833 151.167 40.583 L 151.167 19.333 146.333 19.333 L 141.500 19.333 141.500 40.583 M165.167 40.586 L 165.167 61.839 169.875 61.794 L 174.583 61.750 174.667 48.597 L 174.750 35.443 175.939 37.013 C 176.592 37.877,177.267 38.733,177.439 38.917 C 177.610 39.100,177.846 39.438,177.964 39.667 C 178.082 39.896,178.594 40.571,179.102 41.167 C 179.610 41.762,180.136 42.460,180.272 42.717 C 180.407 42.974,180.645 43.314,180.801 43.473 C 180.956 43.631,181.308 44.053,181.583 44.410 C 181.858 44.768,182.215 45.196,182.375 45.363 C 182.535 45.530,182.667 45.727,182.667 45.800 C 182.667 45.944,184.477 48.242,185.137 48.935 C 185.258 49.063,185.309 49.167,185.251 49.167 C 185.149 49.167,185.952 50.209,186.826 51.213 C 187.052 51.471,187.502 52.073,187.826 52.550 C 188.151 53.027,188.867 53.967,189.417 54.640 C 189.967 55.312,190.567 56.108,190.750 56.408 C 190.933 56.708,191.362 57.261,191.702 57.637 C 192.043 58.013,192.513 58.625,192.747 58.996 C 193.186 59.690,193.363 59.917,194.292 60.969 C 194.589 61.307,194.833 61.640,194.833 61.708 C 194.833 61.777,196.671 61.833,198.917 61.833 L 203.000 61.833 203.000 40.583 L 203.000 19.333 198.250 19.333 L 193.500 19.333 193.499 32.208 C 193.498 44.511,193.485 45.064,193.207 44.647 C 193.048 44.408,192.709 43.901,192.456 43.522 C 192.203 43.143,191.917 42.833,191.821 42.833 C 191.725 42.833,191.688 42.768,191.737 42.687 C 191.787 42.607,191.572 42.269,191.259 41.938 C 190.946 41.606,190.522 41.091,190.316 40.792 C 190.109 40.494,189.823 40.122,189.679 39.966 C 189.229 39.479,189.064 39.254,189.074 39.137 C 189.079 39.076,188.833 38.743,188.528 38.398 C 188.223 38.053,187.740 37.428,187.456 37.010 C 187.172 36.592,186.517 35.725,186.002 35.083 C 185.486 34.442,184.830 33.563,184.542 33.132 C 184.255 32.700,183.797 32.100,183.525 31.798 C 182.963 31.177,182.050 29.983,180.334 27.625 C 179.684 26.731,179.080 26.000,178.992 26.000 C 178.905 26.000,178.833 25.895,178.833 25.768 C 178.833 25.640,178.605 25.290,178.325 24.991 C 178.045 24.692,177.434 23.894,176.967 23.218 C 176.500 22.542,176.025 21.935,175.912 21.870 C 175.799 21.804,175.473 21.379,175.187 20.926 C 174.901 20.472,174.666 20.172,174.666 20.259 C 174.666 20.346,174.517 20.173,174.335 19.875 L 174.005 19.333 169.586 19.333 L 165.167 19.333 165.167 40.586 M268.000 40.583 L 268.000 61.833 272.750 61.833 L 277.500 61.833 277.500 48.543 L 277.500 35.253 277.917 35.703 C 278.146 35.950,278.333 36.194,278.333 36.245 C 278.333 36.382,279.859 38.241,280.025 38.306 C 280.103 38.336,280.167 38.467,280.167 38.597 C 280.167 38.727,280.237 38.833,280.322 38.833 C 280.408 38.833,280.520 38.967,280.572 39.131 C 280.624 39.295,280.965 39.763,281.331 40.173 C 281.696 40.582,282.200 41.217,282.451 41.583 C 282.883 42.215,283.054 42.436,284.250 43.903 C 284.525 44.240,284.881 44.755,285.042 45.047 C 285.202 45.339,285.334 45.504,285.336 45.414 C 285.337 45.324,285.431 45.415,285.544 45.616 C 285.657 45.817,286.650 47.160,287.750 48.600 C 288.850 50.041,289.938 51.466,290.167 51.767 C 293.213 55.772,295.571 58.831,295.870 59.167 C 296.075 59.396,296.319 59.705,296.413 59.853 C 296.507 60.002,296.882 60.509,297.246 60.981 L 297.909 61.839 301.996 61.794 L 306.083 61.750 306.126 40.542 L 306.168 19.333 301.417 19.333 L 296.667 19.333 296.661 32.208 C 296.657 43.341,296.624 45.041,296.420 44.772 C 296.291 44.601,295.963 44.217,295.691 43.918 C 295.419 43.620,295.083 43.160,294.943 42.896 C 294.803 42.632,294.493 42.210,294.254 41.958 C 294.015 41.706,293.857 41.500,293.902 41.500 C 293.948 41.500,293.820 41.320,293.617 41.099 C 292.876 40.290,292.333 39.622,292.333 39.518 C 292.333 39.459,292.033 39.048,291.667 38.604 C 291.300 38.160,290.999 37.749,290.998 37.690 C 290.997 37.631,290.697 37.261,290.331 36.868 C 289.966 36.474,289.667 36.087,289.667 36.008 C 289.667 35.929,289.104 35.175,288.417 34.333 C 287.729 33.491,287.167 32.746,287.167 32.677 C 287.167 32.608,286.923 32.286,286.625 31.963 C 286.327 31.640,285.821 31.014,285.500 30.573 C 285.179 30.132,284.771 29.635,284.594 29.469 C 284.416 29.303,284.329 29.167,284.400 29.167 C 284.472 29.167,284.133 28.660,283.648 28.042 C 282.462 26.530,282.453 26.518,282.167 26.182 C 282.029 26.020,281.842 25.771,281.750 25.629 C 281.495 25.232,278.787 21.673,278.148 20.894 C 277.838 20.516,277.442 20.009,277.268 19.769 L 276.953 19.333 272.477 19.333 L 268.000 19.333 268.000 40.583 M367.833 40.583 L 367.833 61.833 383.917 61.833 L 400.000 61.833 400.000 57.583 L 400.000 53.333 388.667 53.333 L 377.333 53.333 377.333 49.000 L 377.333 44.667 387.422 44.667 L 397.510 44.667 397.494 40.417 L 397.479 36.167 387.406 36.167 L 377.333 36.167 377.333 32.000 L 377.333 27.833 388.667 27.833 L 400.000 27.833 400.000 23.583 L 400.000 19.333 383.917 19.333 L 367.833 19.333 367.833 40.583 M115.417 28.154 C 115.967 28.372,116.454 28.598,116.500 28.658 C 116.546 28.717,116.821 28.932,117.112 29.135 C 118.660 30.216,118.469 34.016,116.817 35.011 C 116.447 35.234,116.052 35.500,115.941 35.601 C 115.300 36.184,113.631 36.373,108.375 36.456 L 103.167 36.538 103.167 32.090 L 103.167 27.643 108.792 27.701 C 114.248 27.757,114.447 27.771,115.417 28.154 M34.952 35.314 L 30.321 39.943 34.577 44.213 C 36.918 46.561,38.833 48.439,38.833 48.385 C 38.833 48.332,38.989 48.486,39.179 48.728 C 39.690 49.378,39.518 49.514,44.447 44.576 C 48.483 40.532,49.002 39.953,48.806 39.714 C 48.304 39.102,39.805 30.667,39.699 30.675 C 39.635 30.680,37.499 32.767,34.952 35.314 M236.419 33.000 C 236.674 33.596,237.059 34.472,237.275 34.948 C 237.490 35.423,237.667 35.897,237.667 36.000 C 237.667 36.104,237.757 36.352,237.867 36.553 C 237.977 36.753,238.080 36.992,238.096 37.084 C 238.112 37.177,238.579 38.304,239.134 39.591 C 239.689 40.877,240.194 42.133,240.256 42.381 C 240.318 42.630,240.449 42.833,240.546 42.833 C 240.643 42.833,240.677 42.879,240.622 42.934 C 240.566 42.989,240.590 43.214,240.673 43.434 L 240.825 43.833 235.413 43.833 C 232.436 43.833,230.000 43.803,230.000 43.766 C 230.000 43.728,230.233 43.184,230.517 42.557 C 231.465 40.469,232.167 38.763,232.167 38.547 C 232.167 38.429,232.246 38.333,232.343 38.333 C 232.440 38.333,232.475 38.260,232.420 38.171 C 232.364 38.082,232.520 37.576,232.765 37.046 C 233.426 35.619,234.688 32.620,234.748 32.333 C 234.777 32.196,234.929 31.763,235.086 31.372 L 235.372 30.660 235.663 31.289 C 235.824 31.634,236.163 32.404,236.419 33.000 M4.292 35.137 C 0.414 39.010,0.000 39.476,0.000 39.973 C 0.000 40.551,8.153 49.000,8.711 49.000 C 8.837 49.000,9.597 48.325,10.398 47.500 C 11.200 46.675,11.926 46.000,12.012 46.000 C 12.097 46.000,12.167 45.939,12.167 45.865 C 12.167 45.791,12.767 45.129,13.500 44.394 C 14.233 43.659,14.833 43.069,14.833 43.084 C 14.833 43.099,15.508 42.437,16.333 41.613 C 17.158 40.788,17.833 40.038,17.833 39.945 C 17.833 39.746,8.896 30.829,8.710 30.842 C 8.640 30.847,6.652 32.779,4.292 35.137 M66.028 35.405 L 61.473 39.960 63.227 41.689 C 64.192 42.639,65.079 43.517,65.199 43.639 C 67.528 46.019,70.612 48.999,70.744 48.997 C 70.839 48.996,71.617 48.283,72.474 47.414 C 73.330 46.545,74.061 45.833,74.099 45.833 C 74.136 45.833,74.317 45.683,74.500 45.500 C 74.683 45.317,74.799 45.167,74.757 45.167 C 74.672 45.167,75.027 44.816,77.898 42.058 C 78.962 41.035,79.833 40.104,79.833 39.988 C 79.833 39.747,70.959 30.829,70.732 30.842 C 70.650 30.846,68.533 32.900,66.028 35.405 M117.151 44.734 C 118.918 45.311,120.046 46.281,120.333 47.470 C 120.643 48.757,120.636 49.098,120.271 50.773 C 120.150 51.325,119.039 52.334,118.055 52.785 C 116.701 53.404,115.588 53.493,109.125 53.497 L 103.167 53.500 103.167 48.903 L 103.167 44.306 109.708 44.373 C 115.385 44.431,116.369 44.479,117.151 44.734 M23.735 46.548 C 23.636 46.659,22.848 47.433,21.985 48.267 C 21.123 49.102,19.585 50.639,18.568 51.684 C 17.551 52.729,16.333 53.945,15.860 54.386 C 14.760 55.414,14.466 54.918,18.625 59.058 C 20.619 61.042,26.167 66.566,30.954 71.333 C 35.742 76.100,39.718 80.000,39.790 80.000 C 39.863 80.000,42.092 77.825,44.744 75.167 C 47.396 72.508,49.626 70.333,49.700 70.333 C 49.773 70.333,49.833 70.266,49.833 70.185 C 49.833 69.987,51.982 67.833,52.179 67.833 C 52.264 67.833,52.333 67.773,52.333 67.699 C 52.333 67.626,53.953 65.957,55.932 63.991 C 57.912 62.025,59.643 60.304,59.779 60.167 C 59.915 60.029,61.047 58.889,62.294 57.633 L 64.561 55.350 60.017 50.841 C 57.518 48.362,55.384 46.333,55.276 46.333 C 55.167 46.333,53.229 48.190,50.968 50.458 C 40.312 61.153,39.715 61.723,39.523 61.392 C 39.424 61.222,39.341 61.126,39.338 61.178 C 39.331 61.318,32.500 54.442,32.500 54.294 C 32.500 54.224,32.439 54.167,32.364 54.167 C 32.289 54.167,30.471 52.406,28.322 50.253 C 24.530 46.454,24.118 46.121,23.735 46.548 " stroke="none" fill="#f4bc2c" fill-rule="evenodd"></path><path id="path1" d="M40.583 0.708 C 41.839 1.947,42.338 2.331,41.338 1.290 C 40.745 0.672,40.209 0.167,40.146 0.167 C 40.084 0.167,40.281 0.410,40.583 0.708 M42.890 2.970 C 43.410 3.545,47.967 8.084,48.942 8.998 C 49.478 9.501,48.305 8.282,46.335 6.290 C 44.365 4.297,42.722 2.667,42.684 2.667 C 42.646 2.667,42.739 2.803,42.890 2.970 M93.747 40.583 C 93.748 52.317,93.767 57.092,93.792 51.195 C 93.816 45.299,93.816 35.699,93.792 29.862 C 93.767 24.025,93.747 28.850,93.747 40.583 M165.081 40.583 C 165.081 52.317,165.101 57.092,165.125 51.195 C 165.149 45.299,165.149 35.699,165.125 29.862 C 165.101 24.025,165.081 28.850,165.081 40.583 M377.406 32.000 C 377.406 34.337,377.429 35.294,377.458 34.125 C 377.487 32.956,377.487 31.044,377.458 29.875 C 377.429 28.706,377.406 29.662,377.406 32.000 M60.333 28.667 C 60.104 28.846,59.999 28.994,60.099 28.996 C 60.200 28.998,60.417 28.850,60.583 28.667 C 60.963 28.247,60.870 28.247,60.333 28.667 M58.700 30.353 C 58.122 30.913,57.676 31.399,57.709 31.431 C 57.742 31.464,58.250 31.005,58.838 30.412 C 60.193 29.045,60.093 29.002,58.700 30.353 M20.660 30.375 C 21.068 30.810,21.425 31.167,21.451 31.167 C 21.577 31.167,21.444 31.017,20.708 30.326 L 19.917 29.583 20.660 30.375 M349.514 31.208 C 349.552 31.231,349.808 31.438,350.083 31.667 L 350.583 32.083 350.179 31.625 C 349.957 31.373,349.701 31.167,349.610 31.167 C 349.519 31.167,349.476 31.185,349.514 31.208 M37.943 32.137 C 37.540 32.583,37.605 32.737,38.030 32.342 C 38.229 32.156,38.354 31.965,38.306 31.917 C 38.259 31.870,38.096 31.969,37.943 32.137 M56.274 32.758 C 55.444 33.541,55.257 33.648,55.024 33.473 C 54.808 33.312,54.812 33.336,55.044 33.589 C 55.331 33.901,55.362 33.884,56.375 32.871 C 57.660 31.587,57.594 31.514,56.274 32.758 M22.500 32.110 C 22.500 32.201,22.706 32.457,22.958 32.679 L 23.417 33.083 23.000 32.583 C 22.771 32.308,22.565 32.052,22.542 32.014 C 22.519 31.976,22.500 32.019,22.500 32.110 M24.543 33.364 C 24.183 33.724,24.173 33.725,23.798 33.412 L 23.417 33.096 23.792 33.502 L 24.168 33.908 24.622 33.454 C 24.871 33.204,25.038 33.000,24.992 33.000 C 24.945 33.000,24.743 33.164,24.543 33.364 M30.654 39.439 C 30.269 39.857,30.267 39.867,30.622 39.650 C 30.826 39.526,31.030 39.328,31.075 39.212 C 31.194 38.901,31.105 38.949,30.654 39.439 M189.238 39.429 C 189.382 39.573,189.500 39.760,189.500 39.845 C 189.500 39.930,189.577 40.000,189.671 40.000 C 189.764 40.000,189.718 39.813,189.568 39.583 C 189.418 39.354,189.223 39.167,189.136 39.167 C 189.048 39.167,189.094 39.285,189.238 39.429 M48.667 40.380 C 48.529 40.492,48.307 40.733,48.173 40.917 C 48.039 41.100,48.170 41.030,48.465 40.760 C 48.945 40.322,49.084 40.156,48.958 40.172 C 48.935 40.175,48.804 40.269,48.667 40.380 M44.811 44.208 C 43.504 45.515,42.618 46.433,42.843 46.250 C 43.467 45.739,47.396 41.833,47.284 41.833 C 47.231 41.833,46.117 42.902,44.811 44.208 M283.333 42.958 C 283.551 43.256,283.755 43.500,283.787 43.500 C 283.914 43.500,283.501 42.875,283.227 42.653 C 283.047 42.507,283.087 42.623,283.333 42.958 M377.406 49.000 C 377.406 51.429,377.429 52.423,377.458 51.208 C 377.486 49.994,377.486 48.006,377.458 46.792 C 377.429 45.577,377.406 46.571,377.406 49.000 M23.155 46.960 L 22.583 47.583 23.166 47.083 C 23.486 46.808,23.780 46.565,23.819 46.542 C 23.857 46.519,23.853 46.464,23.808 46.419 C 23.764 46.375,23.470 46.618,23.155 46.960 M68.500 47.083 C 68.811 47.404,69.103 47.667,69.149 47.667 C 69.195 47.667,68.978 47.404,68.667 47.083 C 68.356 46.762,68.064 46.500,68.018 46.500 C 67.972 46.500,68.189 46.762,68.500 47.083 M41.500 47.583 C 41.095 47.996,40.801 48.333,40.847 48.333 C 40.893 48.333,41.262 47.996,41.667 47.583 C 42.072 47.171,42.365 46.833,42.319 46.833 C 42.274 46.833,41.905 47.171,41.500 47.583 M71.845 48.014 C 71.549 48.297,71.336 48.559,71.373 48.595 C 71.410 48.632,71.693 48.400,72.002 48.081 C 72.699 47.362,72.579 47.312,71.845 48.014 M352.833 50.583 C 353.144 50.904,353.436 51.167,353.482 51.167 C 353.528 51.167,353.311 50.904,353.000 50.583 C 352.689 50.262,352.397 50.000,352.351 50.000 C 352.305 50.000,352.522 50.262,352.833 50.583 M18.250 51.833 C 17.560 52.540,17.509 52.762,18.184 52.121 C 18.649 51.680,19.072 51.167,18.971 51.167 C 18.932 51.167,18.608 51.467,18.250 51.833 M15.909 54.208 L 15.250 54.917 15.958 54.258 C 16.617 53.645,16.743 53.500,16.617 53.500 C 16.590 53.500,16.271 53.819,15.909 54.208 M341.794 53.618 C 342.001 53.658,342.301 53.656,342.460 53.615 C 342.620 53.573,342.450 53.540,342.083 53.542 C 341.717 53.544,341.586 53.578,341.794 53.618 M46.323 54.962 L 45.583 55.750 46.331 55.083 C 46.742 54.717,47.111 54.398,47.150 54.375 C 47.190 54.352,47.186 54.297,47.142 54.253 C 47.098 54.210,46.730 54.528,46.323 54.962 M245.262 54.833 C 245.324 55.063,245.443 55.362,245.528 55.500 C 245.635 55.674,245.649 55.623,245.571 55.333 C 245.510 55.104,245.390 54.804,245.305 54.667 C 245.198 54.493,245.185 54.544,245.262 54.833 M15.583 56.167 C 15.941 56.533,16.272 56.833,16.318 56.833 C 16.363 56.833,16.108 56.533,15.750 56.167 C 15.392 55.800,15.062 55.500,15.016 55.500 C 14.970 55.500,15.225 55.800,15.583 56.167 M190.333 55.958 C 190.551 56.256,190.755 56.500,190.787 56.500 C 190.914 56.500,190.501 55.875,190.227 55.653 C 190.047 55.507,190.087 55.623,190.333 55.958 M44.079 57.208 L 42.750 58.583 44.125 57.254 C 44.881 56.523,45.500 55.904,45.500 55.879 C 45.500 55.757,45.314 55.931,44.079 57.208 M325.000 57.386 C 325.000 57.427,325.275 57.670,325.612 57.927 C 325.948 58.184,326.171 58.309,326.107 58.205 C 325.975 57.991,325.000 57.270,325.000 57.386 M61.949 57.922 C 61.692 58.148,61.548 58.333,61.628 58.333 C 61.709 58.333,61.951 58.146,62.167 57.917 C 62.665 57.386,62.555 57.389,61.949 57.922 M36.500 58.385 C 36.500 58.414,36.744 58.658,37.042 58.927 L 37.583 59.417 37.094 58.875 C 36.638 58.370,36.500 58.257,36.500 58.385 M18.333 58.885 C 18.333 58.914,18.577 59.158,18.875 59.427 L 19.417 59.917 18.927 59.375 C 18.471 58.870,18.333 58.757,18.333 58.885 M41.092 60.158 C 40.367 60.887,39.701 61.438,39.611 61.383 C 39.516 61.324,39.502 61.369,39.578 61.492 C 39.682 61.660,42.500 59.139,42.500 58.879 C 42.500 58.759,42.318 58.925,41.092 60.158 M20.000 60.583 C 20.311 60.904,20.603 61.167,20.649 61.167 C 20.695 61.167,20.478 60.904,20.167 60.583 C 19.856 60.262,19.564 60.000,19.518 60.000 C 19.472 60.000,19.689 60.262,20.000 60.583 M22.825 63.375 C 23.966 64.537,24.923 65.465,24.952 65.437 C 24.998 65.391,21.143 61.523,20.866 61.339 C 20.802 61.296,21.684 62.212,22.825 63.375 M26.162 66.715 C 26.755 67.330,27.265 67.833,27.295 67.833 C 27.434 67.833,26.677 67.010,25.921 66.340 C 25.227 65.724,25.268 65.789,26.162 66.715 M27.668 68.136 C 27.668 68.199,28.698 69.262,29.956 70.500 C 31.214 71.737,31.788 72.262,31.231 71.667 C 29.664 69.989,27.667 68.010,27.668 68.136 M32.622 73.083 C 33.023 73.655,34.500 75.127,34.500 74.955 C 34.500 74.893,33.998 74.333,33.386 73.712 C 32.773 73.091,32.429 72.808,32.622 73.083 M36.080 76.663 C 36.529 77.119,36.922 77.467,36.953 77.436 C 37.026 77.363,35.519 75.833,35.374 75.833 C 35.312 75.833,35.630 76.207,36.080 76.663 M38.493 79.050 C 38.902 79.481,39.256 79.833,39.279 79.833 C 39.451 79.833,39.019 79.322,38.442 78.842 L 37.750 78.266 38.493 79.050 " stroke="none" fill="#f8bc2c" fill-rule="evenodd"></path><path id="path2" d="M40.583 0.708 C 41.839 1.947,42.338 2.331,41.338 1.290 C 40.745 0.672,40.209 0.167,40.146 0.167 C 40.084 0.167,40.281 0.410,40.583 0.708 M42.890 2.970 C 43.410 3.545,47.967 8.084,48.942 8.998 C 49.478 9.501,48.305 8.282,46.335 6.290 C 44.365 4.297,42.722 2.667,42.684 2.667 C 42.646 2.667,42.739 2.803,42.890 2.970 M93.747 40.583 C 93.748 52.317,93.767 57.092,93.792 51.195 C 93.816 45.299,93.816 35.699,93.792 29.862 C 93.767 24.025,93.747 28.850,93.747 40.583 M165.081 40.583 C 165.081 52.317,165.101 57.092,165.125 51.195 C 165.149 45.299,165.149 35.699,165.125 29.862 C 165.101 24.025,165.081 28.850,165.081 40.583 M377.406 32.000 C 377.406 34.337,377.429 35.294,377.458 34.125 C 377.487 32.956,377.487 31.044,377.458 29.875 C 377.429 28.706,377.406 29.662,377.406 32.000 M60.333 28.667 C 60.104 28.846,59.999 28.994,60.099 28.996 C 60.200 28.998,60.417 28.850,60.583 28.667 C 60.963 28.247,60.870 28.247,60.333 28.667 M58.700 30.353 C 58.122 30.913,57.676 31.399,57.709 31.431 C 57.742 31.464,58.250 31.005,58.838 30.412 C 60.193 29.045,60.093 29.002,58.700 30.353 M20.660 30.375 C 21.068 30.810,21.425 31.167,21.451 31.167 C 21.577 31.167,21.444 31.017,20.708 30.326 L 19.917 29.583 20.660 30.375 M349.514 31.208 C 349.552 31.231,349.808 31.438,350.083 31.667 L 350.583 32.083 350.179 31.625 C 349.957 31.373,349.701 31.167,349.610 31.167 C 349.519 31.167,349.476 31.185,349.514 31.208 M37.943 32.137 C 37.540 32.583,37.605 32.737,38.030 32.342 C 38.229 32.156,38.354 31.965,38.306 31.917 C 38.259 31.870,38.096 31.969,37.943 32.137 M56.274 32.758 C 55.444 33.541,55.257 33.648,55.024 33.473 C 54.808 33.312,54.812 33.336,55.044 33.589 C 55.331 33.901,55.362 33.884,56.375 32.871 C 57.660 31.587,57.594 31.514,56.274 32.758 M22.500 32.110 C 22.500 32.201,22.706 32.457,22.958 32.679 L 23.417 33.083 23.000 32.583 C 22.771 32.308,22.565 32.052,22.542 32.014 C 22.519 31.976,22.500 32.019,22.500 32.110 M24.543 33.364 C 24.183 33.724,24.173 33.725,23.798 33.412 L 23.417 33.096 23.792 33.502 L 24.168 33.908 24.622 33.454 C 24.871 33.204,25.038 33.000,24.992 33.000 C 24.945 33.000,24.743 33.164,24.543 33.364 M30.654 39.439 C 30.269 39.857,30.267 39.867,30.622 39.650 C 30.826 39.526,31.030 39.328,31.075 39.212 C 31.194 38.901,31.105 38.949,30.654 39.439 M189.238 39.429 C 189.382 39.573,189.500 39.760,189.500 39.845 C 189.500 39.930,189.577 40.000,189.671 40.000 C 189.764 40.000,189.718 39.813,189.568 39.583 C 189.418 39.354,189.223 39.167,189.136 39.167 C 189.048 39.167,189.094 39.285,189.238 39.429 M48.667 40.380 C 48.529 40.492,48.307 40.733,48.173 40.917 C 48.039 41.100,48.170 41.030,48.465 40.760 C 48.945 40.322,49.084 40.156,48.958 40.172 C 48.935 40.175,48.804 40.269,48.667 40.380 M44.811 44.208 C 43.504 45.515,42.618 46.433,42.843 46.250 C 43.467 45.739,47.396 41.833,47.284 41.833 C 47.231 41.833,46.117 42.902,44.811 44.208 M283.333 42.958 C 283.551 43.256,283.755 43.500,283.787 43.500 C 283.914 43.500,283.501 42.875,283.227 42.653 C 283.047 42.507,283.087 42.623,283.333 42.958 M377.406 49.000 C 377.406 51.429,377.429 52.423,377.458 51.208 C 377.486 49.994,377.486 48.006,377.458 46.792 C 377.429 45.577,377.406 46.571,377.406 49.000 M23.155 46.960 L 22.583 47.583 23.166 47.083 C 23.486 46.808,23.780 46.565,23.819 46.542 C 23.857 46.519,23.853 46.464,23.808 46.419 C 23.764 46.375,23.470 46.618,23.155 46.960 M68.500 47.083 C 68.811 47.404,69.103 47.667,69.149 47.667 C 69.195 47.667,68.978 47.404,68.667 47.083 C 68.356 46.762,68.064 46.500,68.018 46.500 C 67.972 46.500,68.189 46.762,68.500 47.083 M41.500 47.583 C 41.095 47.996,40.801 48.333,40.847 48.333 C 40.893 48.333,41.262 47.996,41.667 47.583 C 42.072 47.171,42.365 46.833,42.319 46.833 C 42.274 46.833,41.905 47.171,41.500 47.583 M71.845 48.014 C 71.549 48.297,71.336 48.559,71.373 48.595 C 71.410 48.632,71.693 48.400,72.002 48.081 C 72.699 47.362,72.579 47.312,71.845 48.014 M352.833 50.583 C 353.144 50.904,353.436 51.167,353.482 51.167 C 353.528 51.167,353.311 50.904,353.000 50.583 C 352.689 50.262,352.397 50.000,352.351 50.000 C 352.305 50.000,352.522 50.262,352.833 50.583 M18.250 51.833 C 17.560 52.540,17.509 52.762,18.184 52.121 C 18.649 51.680,19.072 51.167,18.971 51.167 C 18.932 51.167,18.608 51.467,18.250 51.833 M15.909 54.208 L 15.250 54.917 15.958 54.258 C 16.617 53.645,16.743 53.500,16.617 53.500 C 16.590 53.500,16.271 53.819,15.909 54.208 M341.794 53.618 C 342.001 53.658,342.301 53.656,342.460 53.615 C 342.620 53.573,342.450 53.540,342.083 53.542 C 341.717 53.544,341.586 53.578,341.794 53.618 M46.323 54.962 L 45.583 55.750 46.331 55.083 C 46.742 54.717,47.111 54.398,47.150 54.375 C 47.190 54.352,47.186 54.297,47.142 54.253 C 47.098 54.210,46.730 54.528,46.323 54.962 M245.262 54.833 C 245.324 55.063,245.443 55.362,245.528 55.500 C 245.635 55.674,245.649 55.623,245.571 55.333 C 245.510 55.104,245.390 54.804,245.305 54.667 C 245.198 54.493,245.185 54.544,245.262 54.833 M15.583 56.167 C 15.941 56.533,16.272 56.833,16.318 56.833 C 16.363 56.833,16.108 56.533,15.750 56.167 C 15.392 55.800,15.062 55.500,15.016 55.500 C 14.970 55.500,15.225 55.800,15.583 56.167 M190.333 55.958 C 190.551 56.256,190.755 56.500,190.787 56.500 C 190.914 56.500,190.501 55.875,190.227 55.653 C 190.047 55.507,190.087 55.623,190.333 55.958 M44.079 57.208 L 42.750 58.583 44.125 57.254 C 44.881 56.523,45.500 55.904,45.500 55.879 C 45.500 55.757,45.314 55.931,44.079 57.208 M325.000 57.386 C 325.000 57.427,325.275 57.670,325.612 57.927 C 325.948 58.184,326.171 58.309,326.107 58.205 C 325.975 57.991,325.000 57.270,325.000 57.386 M61.949 57.922 C 61.692 58.148,61.548 58.333,61.628 58.333 C 61.709 58.333,61.951 58.146,62.167 57.917 C 62.665 57.386,62.555 57.389,61.949 57.922 M36.500 58.385 C 36.500 58.414,36.744 58.658,37.042 58.927 L 37.583 59.417 37.094 58.875 C 36.638 58.370,36.500 58.257,36.500 58.385 M18.333 58.885 C 18.333 58.914,18.577 59.158,18.875 59.427 L 19.417 59.917 18.927 59.375 C 18.471 58.870,18.333 58.757,18.333 58.885 M41.092 60.158 C 40.367 60.887,39.701 61.438,39.611 61.383 C 39.516 61.324,39.502 61.369,39.578 61.492 C 39.682 61.660,42.500 59.139,42.500 58.879 C 42.500 58.759,42.318 58.925,41.092 60.158 M20.000 60.583 C 20.311 60.904,20.603 61.167,20.649 61.167 C 20.695 61.167,20.478 60.904,20.167 60.583 C 19.856 60.262,19.564 60.000,19.518 60.000 C 19.472 60.000,19.689 60.262,20.000 60.583 M22.825 63.375 C 23.966 64.537,24.923 65.465,24.952 65.437 C 24.998 65.391,21.143 61.523,20.866 61.339 C 20.802 61.296,21.684 62.212,22.825 63.375 M26.162 66.715 C 26.755 67.330,27.265 67.833,27.295 67.833 C 27.434 67.833,26.677 67.010,25.921 66.340 C 25.227 65.724,25.268 65.789,26.162 66.715 M27.668 68.136 C 27.668 68.199,28.698 69.262,29.956 70.500 C 31.214 71.737,31.788 72.262,31.231 71.667 C 29.664 69.989,27.667 68.010,27.668 68.136 M32.622 73.083 C 33.023 73.655,34.500 75.127,34.500 74.955 C 34.500 74.893,33.998 74.333,33.386 73.712 C 32.773 73.091,32.429 72.808,32.622 73.083 M36.080 76.663 C 36.529 77.119,36.922 77.467,36.953 77.436 C 37.026 77.363,35.519 75.833,35.374 75.833 C 35.312 75.833,35.630 76.207,36.080 76.663 M38.493 79.050 C 38.902 79.481,39.256 79.833,39.279 79.833 C 39.451 79.833,39.019 79.322,38.442 78.842 L 37.750 78.266 38.493 79.050 " stroke="none" fill="#f8bc2c" fill-rule="evenodd"></path><path id="path3" d="M40.583 0.708 C 41.839 1.947,42.338 2.331,41.338 1.290 C 40.745 0.672,40.209 0.167,40.146 0.167 C 40.084 0.167,40.281 0.410,40.583 0.708 M42.890 2.970 C 43.410 3.545,47.967 8.084,48.942 8.998 C 49.478 9.501,48.305 8.282,46.335 6.290 C 44.365 4.297,42.722 2.667,42.684 2.667 C 42.646 2.667,42.739 2.803,42.890 2.970 M93.747 40.583 C 93.748 52.317,93.767 57.092,93.792 51.195 C 93.816 45.299,93.816 35.699,93.792 29.862 C 93.767 24.025,93.747 28.850,93.747 40.583 M165.081 40.583 C 165.081 52.317,165.101 57.092,165.125 51.195 C 165.149 45.299,165.149 35.699,165.125 29.862 C 165.101 24.025,165.081 28.850,165.081 40.583 M377.406 32.000 C 377.406 34.337,377.429 35.294,377.458 34.125 C 377.487 32.956,377.487 31.044,377.458 29.875 C 377.429 28.706,377.406 29.662,377.406 32.000 M60.333 28.667 C 60.104 28.846,59.999 28.994,60.099 28.996 C 60.200 28.998,60.417 28.850,60.583 28.667 C 60.963 28.247,60.870 28.247,60.333 28.667 M58.700 30.353 C 58.122 30.913,57.676 31.399,57.709 31.431 C 57.742 31.464,58.250 31.005,58.838 30.412 C 60.193 29.045,60.093 29.002,58.700 30.353 M20.660 30.375 C 21.068 30.810,21.425 31.167,21.451 31.167 C 21.577 31.167,21.444 31.017,20.708 30.326 L 19.917 29.583 20.660 30.375 M349.514 31.208 C 349.552 31.231,349.808 31.438,350.083 31.667 L 350.583 32.083 350.179 31.625 C 349.957 31.373,349.701 31.167,349.610 31.167 C 349.519 31.167,349.476 31.185,349.514 31.208 M37.943 32.137 C 37.540 32.583,37.605 32.737,38.030 32.342 C 38.229 32.156,38.354 31.965,38.306 31.917 C 38.259 31.870,38.096 31.969,37.943 32.137 M56.274 32.758 C 55.444 33.541,55.257 33.648,55.024 33.473 C 54.808 33.312,54.812 33.336,55.044 33.589 C 55.331 33.901,55.362 33.884,56.375 32.871 C 57.660 31.587,57.594 31.514,56.274 32.758 M22.500 32.110 C 22.500 32.201,22.706 32.457,22.958 32.679 L 23.417 33.083 23.000 32.583 C 22.771 32.308,22.565 32.052,22.542 32.014 C 22.519 31.976,22.500 32.019,22.500 32.110 M24.543 33.364 C 24.183 33.724,24.173 33.725,23.798 33.412 L 23.417 33.096 23.792 33.502 L 24.168 33.908 24.622 33.454 C 24.871 33.204,25.038 33.000,24.992 33.000 C 24.945 33.000,24.743 33.164,24.543 33.364 M30.654 39.439 C 30.269 39.857,30.267 39.867,30.622 39.650 C 30.826 39.526,31.030 39.328,31.075 39.212 C 31.194 38.901,31.105 38.949,30.654 39.439 M189.238 39.429 C 189.382 39.573,189.500 39.760,189.500 39.845 C 189.500 39.930,189.577 40.000,189.671 40.000 C 189.764 40.000,189.718 39.813,189.568 39.583 C 189.418 39.354,189.223 39.167,189.136 39.167 C 189.048 39.167,189.094 39.285,189.238 39.429 M48.667 40.380 C 48.529 40.492,48.307 40.733,48.173 40.917 C 48.039 41.100,48.170 41.030,48.465 40.760 C 48.945 40.322,49.084 40.156,48.958 40.172 C 48.935 40.175,48.804 40.269,48.667 40.380 M44.811 44.208 C 43.504 45.515,42.618 46.433,42.843 46.250 C 43.467 45.739,47.396 41.833,47.284 41.833 C 47.231 41.833,46.117 42.902,44.811 44.208 M283.333 42.958 C 283.551 43.256,283.755 43.500,283.787 43.500 C 283.914 43.500,283.501 42.875,283.227 42.653 C 283.047 42.507,283.087 42.623,283.333 42.958 M377.406 49.000 C 377.406 51.429,377.429 52.423,377.458 51.208 C 377.486 49.994,377.486 48.006,377.458 46.792 C 377.429 45.577,377.406 46.571,377.406 49.000 M23.155 46.960 L 22.583 47.583 23.166 47.083 C 23.486 46.808,23.780 46.565,23.819 46.542 C 23.857 46.519,23.853 46.464,23.808 46.419 C 23.764 46.375,23.470 46.618,23.155 46.960 M68.500 47.083 C 68.811 47.404,69.103 47.667,69.149 47.667 C 69.195 47.667,68.978 47.404,68.667 47.083 C 68.356 46.762,68.064 46.500,68.018 46.500 C 67.972 46.500,68.189 46.762,68.500 47.083 M41.500 47.583 C 41.095 47.996,40.801 48.333,40.847 48.333 C 40.893 48.333,41.262 47.996,41.667 47.583 C 42.072 47.171,42.365 46.833,42.319 46.833 C 42.274 46.833,41.905 47.171,41.500 47.583 M71.845 48.014 C 71.549 48.297,71.336 48.559,71.373 48.595 C 71.410 48.632,71.693 48.400,72.002 48.081 C 72.699 47.362,72.579 47.312,71.845 48.014 M352.833 50.583 C 353.144 50.904,353.436 51.167,353.482 51.167 C 353.528 51.167,353.311 50.904,353.000 50.583 C 352.689 50.262,352.397 50.000,352.351 50.000 C 352.305 50.000,352.522 50.262,352.833 50.583 M18.250 51.833 C 17.560 52.540,17.509 52.762,18.184 52.121 C 18.649 51.680,19.072 51.167,18.971 51.167 C 18.932 51.167,18.608 51.467,18.250 51.833 M15.909 54.208 L 15.250 54.917 15.958 54.258 C 16.617 53.645,16.743 53.500,16.617 53.500 C 16.590 53.500,16.271 53.819,15.909 54.208 M341.794 53.618 C 342.001 53.658,342.301 53.656,342.460 53.615 C 342.620 53.573,342.450 53.540,342.083 53.542 C 341.717 53.544,341.586 53.578,341.794 53.618 M46.323 54.962 L 45.583 55.750 46.331 55.083 C 46.742 54.717,47.111 54.398,47.150 54.375 C 47.190 54.352,47.186 54.297,47.142 54.253 C 47.098 54.210,46.730 54.528,46.323 54.962 M245.262 54.833 C 245.324 55.063,245.443 55.362,245.528 55.500 C 245.635 55.674,245.649 55.623,245.571 55.333 C 245.510 55.104,245.390 54.804,245.305 54.667 C 245.198 54.493,245.185 54.544,245.262 54.833 M15.583 56.167 C 15.941 56.533,16.272 56.833,16.318 56.833 C 16.363 56.833,16.108 56.533,15.750 56.167 C 15.392 55.800,15.062 55.500,15.016 55.500 C 14.970 55.500,15.225 55.800,15.583 56.167 M190.333 55.958 C 190.551 56.256,190.755 56.500,190.787 56.500 C 190.914 56.500,190.501 55.875,190.227 55.653 C 190.047 55.507,190.087 55.623,190.333 55.958 M44.079 57.208 L 42.750 58.583 44.125 57.254 C 44.881 56.523,45.500 55.904,45.500 55.879 C 45.500 55.757,45.314 55.931,44.079 57.208 M325.000 57.386 C 325.000 57.427,325.275 57.670,325.612 57.927 C 325.948 58.184,326.171 58.309,326.107 58.205 C 325.975 57.991,325.000 57.270,325.000 57.386 M61.949 57.922 C 61.692 58.148,61.548 58.333,61.628 58.333 C 61.709 58.333,61.951 58.146,62.167 57.917 C 62.665 57.386,62.555 57.389,61.949 57.922 M36.500 58.385 C 36.500 58.414,36.744 58.658,37.042 58.927 L 37.583 59.417 37.094 58.875 C 36.638 58.370,36.500 58.257,36.500 58.385 M18.333 58.885 C 18.333 58.914,18.577 59.158,18.875 59.427 L 19.417 59.917 18.927 59.375 C 18.471 58.870,18.333 58.757,18.333 58.885 M41.092 60.158 C 40.367 60.887,39.701 61.438,39.611 61.383 C 39.516 61.324,39.502 61.369,39.578 61.492 C 39.682 61.660,42.500 59.139,42.500 58.879 C 42.500 58.759,42.318 58.925,41.092 60.158 M20.000 60.583 C 20.311 60.904,20.603 61.167,20.649 61.167 C 20.695 61.167,20.478 60.904,20.167 60.583 C 19.856 60.262,19.564 60.000,19.518 60.000 C 19.472 60.000,19.689 60.262,20.000 60.583 M22.825 63.375 C 23.966 64.537,24.923 65.465,24.952 65.437 C 24.998 65.391,21.143 61.523,20.866 61.339 C 20.802 61.296,21.684 62.212,22.825 63.375 M26.162 66.715 C 26.755 67.330,27.265 67.833,27.295 67.833 C 27.434 67.833,26.677 67.010,25.921 66.340 C 25.227 65.724,25.268 65.789,26.162 66.715 M27.668 68.136 C 27.668 68.199,28.698 69.262,29.956 70.500 C 31.214 71.737,31.788 72.262,31.231 71.667 C 29.664 69.989,27.667 68.010,27.668 68.136 M32.622 73.083 C 33.023 73.655,34.500 75.127,34.500 74.955 C 34.500 74.893,33.998 74.333,33.386 73.712 C 32.773 73.091,32.429 72.808,32.622 73.083 M36.080 76.663 C 36.529 77.119,36.922 77.467,36.953 77.436 C 37.026 77.363,35.519 75.833,35.374 75.833 C 35.312 75.833,35.630 76.207,36.080 76.663 M38.493 79.050 C 38.902 79.481,39.256 79.833,39.279 79.833 C 39.451 79.833,39.019 79.322,38.442 78.842 L 37.750 78.266 38.493 79.050 " stroke="none" fill="#f8bc2c" fill-rule="evenodd"></path><path id="path4" d="M40.583 0.708 C 41.839 1.947,42.338 2.331,41.338 1.290 C 40.745 0.672,40.209 0.167,40.146 0.167 C 40.084 0.167,40.281 0.410,40.583 0.708 M42.890 2.970 C 43.410 3.545,47.967 8.084,48.942 8.998 C 49.478 9.501,48.305 8.282,46.335 6.290 C 44.365 4.297,42.722 2.667,42.684 2.667 C 42.646 2.667,42.739 2.803,42.890 2.970 M93.747 40.583 C 93.748 52.317,93.767 57.092,93.792 51.195 C 93.816 45.299,93.816 35.699,93.792 29.862 C 93.767 24.025,93.747 28.850,93.747 40.583 M165.081 40.583 C 165.081 52.317,165.101 57.092,165.125 51.195 C 165.149 45.299,165.149 35.699,165.125 29.862 C 165.101 24.025,165.081 28.850,165.081 40.583 M377.406 32.000 C 377.406 34.337,377.429 35.294,377.458 34.125 C 377.487 32.956,377.487 31.044,377.458 29.875 C 377.429 28.706,377.406 29.662,377.406 32.000 M60.333 28.667 C 60.104 28.846,59.999 28.994,60.099 28.996 C 60.200 28.998,60.417 28.850,60.583 28.667 C 60.963 28.247,60.870 28.247,60.333 28.667 M58.700 30.353 C 58.122 30.913,57.676 31.399,57.709 31.431 C 57.742 31.464,58.250 31.005,58.838 30.412 C 60.193 29.045,60.093 29.002,58.700 30.353 M20.660 30.375 C 21.068 30.810,21.425 31.167,21.451 31.167 C 21.577 31.167,21.444 31.017,20.708 30.326 L 19.917 29.583 20.660 30.375 M349.514 31.208 C 349.552 31.231,349.808 31.438,350.083 31.667 L 350.583 32.083 350.179 31.625 C 349.957 31.373,349.701 31.167,349.610 31.167 C 349.519 31.167,349.476 31.185,349.514 31.208 M37.943 32.137 C 37.540 32.583,37.605 32.737,38.030 32.342 C 38.229 32.156,38.354 31.965,38.306 31.917 C 38.259 31.870,38.096 31.969,37.943 32.137 M56.274 32.758 C 55.444 33.541,55.257 33.648,55.024 33.473 C 54.808 33.312,54.812 33.336,55.044 33.589 C 55.331 33.901,55.362 33.884,56.375 32.871 C 57.660 31.587,57.594 31.514,56.274 32.758 M22.500 32.110 C 22.500 32.201,22.706 32.457,22.958 32.679 L 23.417 33.083 23.000 32.583 C 22.771 32.308,22.565 32.052,22.542 32.014 C 22.519 31.976,22.500 32.019,22.500 32.110 M24.543 33.364 C 24.183 33.724,24.173 33.725,23.798 33.412 L 23.417 33.096 23.792 33.502 L 24.168 33.908 24.622 33.454 C 24.871 33.204,25.038 33.000,24.992 33.000 C 24.945 33.000,24.743 33.164,24.543 33.364 M30.654 39.439 C 30.269 39.857,30.267 39.867,30.622 39.650 C 30.826 39.526,31.030 39.328,31.075 39.212 C 31.194 38.901,31.105 38.949,30.654 39.439 M189.238 39.429 C 189.382 39.573,189.500 39.760,189.500 39.845 C 189.500 39.930,189.577 40.000,189.671 40.000 C 189.764 40.000,189.718 39.813,189.568 39.583 C 189.418 39.354,189.223 39.167,189.136 39.167 C 189.048 39.167,189.094 39.285,189.238 39.429 M48.667 40.380 C 48.529 40.492,48.307 40.733,48.173 40.917 C 48.039 41.100,48.170 41.030,48.465 40.760 C 48.945 40.322,49.084 40.156,48.958 40.172 C 48.935 40.175,48.804 40.269,48.667 40.380 M44.811 44.208 C 43.504 45.515,42.618 46.433,42.843 46.250 C 43.467 45.739,47.396 41.833,47.284 41.833 C 47.231 41.833,46.117 42.902,44.811 44.208 M283.333 42.958 C 283.551 43.256,283.755 43.500,283.787 43.500 C 283.914 43.500,283.501 42.875,283.227 42.653 C 283.047 42.507,283.087 42.623,283.333 42.958 M377.406 49.000 C 377.406 51.429,377.429 52.423,377.458 51.208 C 377.486 49.994,377.486 48.006,377.458 46.792 C 377.429 45.577,377.406 46.571,377.406 49.000 M23.155 46.960 L 22.583 47.583 23.166 47.083 C 23.486 46.808,23.780 46.565,23.819 46.542 C 23.857 46.519,23.853 46.464,23.808 46.419 C 23.764 46.375,23.470 46.618,23.155 46.960 M68.500 47.083 C 68.811 47.404,69.103 47.667,69.149 47.667 C 69.195 47.667,68.978 47.404,68.667 47.083 C 68.356 46.762,68.064 46.500,68.018 46.500 C 67.972 46.500,68.189 46.762,68.500 47.083 M41.500 47.583 C 41.095 47.996,40.801 48.333,40.847 48.333 C 40.893 48.333,41.262 47.996,41.667 47.583 C 42.072 47.171,42.365 46.833,42.319 46.833 C 42.274 46.833,41.905 47.171,41.500 47.583 M71.845 48.014 C 71.549 48.297,71.336 48.559,71.373 48.595 C 71.410 48.632,71.693 48.400,72.002 48.081 C 72.699 47.362,72.579 47.312,71.845 48.014 M352.833 50.583 C 353.144 50.904,353.436 51.167,353.482 51.167 C 353.528 51.167,353.311 50.904,353.000 50.583 C 352.689 50.262,352.397 50.000,352.351 50.000 C 352.305 50.000,352.522 50.262,352.833 50.583 M18.250 51.833 C 17.560 52.540,17.509 52.762,18.184 52.121 C 18.649 51.680,19.072 51.167,18.971 51.167 C 18.932 51.167,18.608 51.467,18.250 51.833 M15.909 54.208 L 15.250 54.917 15.958 54.258 C 16.617 53.645,16.743 53.500,16.617 53.500 C 16.590 53.500,16.271 53.819,15.909 54.208 M341.794 53.618 C 342.001 53.658,342.301 53.656,342.460 53.615 C 342.620 53.573,342.450 53.540,342.083 53.542 C 341.717 53.544,341.586 53.578,341.794 53.618 M46.323 54.962 L 45.583 55.750 46.331 55.083 C 46.742 54.717,47.111 54.398,47.150 54.375 C 47.190 54.352,47.186 54.297,47.142 54.253 C 47.098 54.210,46.730 54.528,46.323 54.962 M245.262 54.833 C 245.324 55.063,245.443 55.362,245.528 55.500 C 245.635 55.674,245.649 55.623,245.571 55.333 C 245.510 55.104,245.390 54.804,245.305 54.667 C 245.198 54.493,245.185 54.544,245.262 54.833 M15.583 56.167 C 15.941 56.533,16.272 56.833,16.318 56.833 C 16.363 56.833,16.108 56.533,15.750 56.167 C 15.392 55.800,15.062 55.500,15.016 55.500 C 14.970 55.500,15.225 55.800,15.583 56.167 M190.333 55.958 C 190.551 56.256,190.755 56.500,190.787 56.500 C 190.914 56.500,190.501 55.875,190.227 55.653 C 190.047 55.507,190.087 55.623,190.333 55.958 M44.079 57.208 L 42.750 58.583 44.125 57.254 C 44.881 56.523,45.500 55.904,45.500 55.879 C 45.500 55.757,45.314 55.931,44.079 57.208 M325.000 57.386 C 325.000 57.427,325.275 57.670,325.612 57.927 C 325.948 58.184,326.171 58.309,326.107 58.205 C 325.975 57.991,325.000 57.270,325.000 57.386 M61.949 57.922 C 61.692 58.148,61.548 58.333,61.628 58.333 C 61.709 58.333,61.951 58.146,62.167 57.917 C 62.665 57.386,62.555 57.389,61.949 57.922 M36.500 58.385 C 36.500 58.414,36.744 58.658,37.042 58.927 L 37.583 59.417 37.094 58.875 C 36.638 58.370,36.500 58.257,36.500 58.385 M18.333 58.885 C 18.333 58.914,18.577 59.158,18.875 59.427 L 19.417 59.917 18.927 59.375 C 18.471 58.870,18.333 58.757,18.333 58.885 M41.092 60.158 C 40.367 60.887,39.701 61.438,39.611 61.383 C 39.516 61.324,39.502 61.369,39.578 61.492 C 39.682 61.660,42.500 59.139,42.500 58.879 C 42.500 58.759,42.318 58.925,41.092 60.158 M20.000 60.583 C 20.311 60.904,20.603 61.167,20.649 61.167 C 20.695 61.167,20.478 60.904,20.167 60.583 C 19.856 60.262,19.564 60.000,19.518 60.000 C 19.472 60.000,19.689 60.262,20.000 60.583 M22.825 63.375 C 23.966 64.537,24.923 65.465,24.952 65.437 C 24.998 65.391,21.143 61.523,20.866 61.339 C 20.802 61.296,21.684 62.212,22.825 63.375 M26.162 66.715 C 26.755 67.330,27.265 67.833,27.295 67.833 C 27.434 67.833,26.677 67.010,25.921 66.340 C 25.227 65.724,25.268 65.789,26.162 66.715 M27.668 68.136 C 27.668 68.199,28.698 69.262,29.956 70.500 C 31.214 71.737,31.788 72.262,31.231 71.667 C 29.664 69.989,27.667 68.010,27.668 68.136 M32.622 73.083 C 33.023 73.655,34.500 75.127,34.500 74.955 C 34.500 74.893,33.998 74.333,33.386 73.712 C 32.773 73.091,32.429 72.808,32.622 73.083 M36.080 76.663 C 36.529 77.119,36.922 77.467,36.953 77.436 C 37.026 77.363,35.519 75.833,35.374 75.833 C 35.312 75.833,35.630 76.207,36.080 76.663 M38.493 79.050 C 38.902 79.481,39.256 79.833,39.279 79.833 C 39.451 79.833,39.019 79.322,38.442 78.842 L 37.750 78.266 38.493 79.050 " stroke="none" fill="#f8bc2c" fill-rule="evenodd"></path></g></svg>