<svg width="26" height="26" viewBox="0 0 26 26" fill="none" xmlns="http://www.w3.org/2000/svg">
<path d="M0 13C0 5.8203 5.8203 0 13 0C20.1797 0 26 5.8203 26 13C26 20.1797 20.1797 26 13 26C5.8203 26 0 20.1797 0 13Z" fill="#202020"/>
<mask id="mask0_507_115" style="mask-type:alpha" maskUnits="userSpaceOnUse" x="0" y="0" width="26" height="26">
<circle cx="13" cy="13" r="13" fill="#708B96"/>
</mask>
<g mask="url(#mask0_507_115)">
<path fill-rule="evenodd" clip-rule="evenodd" d="M9.50433 11.5636L12.9999 8.06821L16.4973 11.5655L18.5313 9.53152L12.9999 4L7.47037 9.52968L9.50433 11.5636ZM8.06796 12.9995L6.03403 10.9656L4 12.9996L6.03393 15.0335L8.06796 12.9995ZM12.9999 17.9316L9.50434 14.4362L7.46739 16.4674L7.47023 16.4703L12.9999 21.9998L18.5313 16.4684L18.5323 16.4673L16.4972 14.4345L12.9999 17.9316ZM19.966 15.0345L22 13.0005L19.9661 10.9666L17.932 13.0006L19.966 15.0345ZM15.0639 12.9988H15.063L15.0649 12.9998L15.0639 13.001L12.9999 15.0649L10.9378 13.0028L10.9349 12.9998L10.9378 12.997L11.2993 12.6355L11.4745 12.4602H11.4746L12.9999 10.9349L15.0639 12.9988Z" fill="#F3BA2F"/>
</g>
</svg>
