<svg id="svg" version="1.1" xmlns="http://www.w3.org/2000/svg" xmlns:xlink="http://www.w3.org/1999/xlink" width="400" height="400" viewBox="0, 0, 400,400"><g id="svgg"><path id="path0" d="M146.080 58.880 C 145.734 59.226,145.600 62.009,145.600 68.880 L 145.600 78.400 144.436 78.400 C 143.146 78.400,141.200 80.315,141.200 81.584 C 141.200 82.775,139.924 82.911,127.215 83.072 C 118.227 83.186,114.949 83.355,114.721 83.713 C 114.531 84.013,114.410 84.034,114.406 83.767 C 114.396 83.075,113.204 83.266,113.160 83.967 C 113.138 84.315,112.976 84.150,112.800 83.600 C 112.566 82.870,112.456 82.789,112.390 83.300 C 112.243 84.444,112.204 84.575,111.832 85.162 C 111.597 85.532,111.622 85.634,111.904 85.459 C 112.139 85.314,112.423 85.421,112.534 85.698 C 112.679 86.056,112.746 86.035,112.768 85.624 C 112.792 85.197,112.963 85.248,113.430 85.824 C 113.776 86.251,113.927 86.330,113.766 86.000 C 113.600 85.661,113.625 85.540,113.824 85.721 C 114.018 85.898,114.129 86.708,114.072 87.521 C 113.993 88.635,114.068 88.852,114.377 88.400 C 114.603 88.070,114.791 87.989,114.794 88.220 C 114.797 88.451,114.575 88.882,114.300 89.179 C 114.025 89.475,113.980 89.618,114.200 89.496 C 114.463 89.351,114.557 92.692,114.474 99.278 C 114.311 112.274,112.533 110.800,128.374 110.800 L 141.023 110.800 141.512 113.903 C 141.793 115.693,142.000 120.950,142.000 126.323 C 142.000 140.169,141.403 139.596,155.838 139.599 C 168.649 139.600,167.200 137.831,167.200 153.470 C 167.200 168.949,168.646 167.200,155.849 167.200 C 144.899 167.200,144.243 167.327,142.784 169.719 C 142.020 170.972,142.003 172.139,142.001 223.997 C 142.000 263.749,141.878 277.769,141.512 280.097 L 141.023 283.200 128.374 283.200 C 116.627 283.200,115.677 283.252,115.062 283.931 C 114.000 285.105,114.064 309.172,115.131 310.138 C 115.780 310.725,117.305 310.800,128.531 310.800 L 141.200 310.800 141.200 311.969 C 141.200 313.630,142.956 315.600,144.436 315.600 L 145.600 315.600 145.600 325.138 C 145.600 333.870,145.662 334.732,146.331 335.338 C 147.525 336.418,253.159 336.350,254.138 335.269 C 254.715 334.631,254.800 333.318,254.800 325.069 L 254.800 315.600 255.980 315.600 C 257.400 315.600,259.200 313.511,259.200 311.862 L 259.200 310.800 268.738 310.800 C 280.965 310.800,279.600 312.542,279.600 296.930 C 279.600 281.475,280.968 283.200,268.711 283.200 L 259.284 283.200 258.986 281.500 C 258.821 280.565,258.577 255.230,258.444 225.200 C 258.179 165.788,258.345 169.486,255.874 167.980 C 254.680 167.252,253.764 167.203,241.362 167.201 C 229.046 167.200,228.078 167.149,227.462 166.469 C 226.400 165.295,226.464 141.228,227.531 140.262 C 228.181 139.674,229.741 139.600,241.431 139.599 C 259.544 139.596,258.092 140.825,258.457 125.200 C 258.599 119.150,258.843 113.435,258.999 112.500 L 259.284 110.800 268.766 110.800 C 280.988 110.800,279.681 112.170,279.526 99.520 C 279.442 92.716,279.535 89.379,279.800 89.599 C 280.048 89.805,280.219 89.527,280.249 88.866 C 280.277 88.280,280.217 88.025,280.116 88.300 C 279.835 89.069,279.377 88.893,279.309 87.991 C 279.276 87.547,279.418 87.287,279.624 87.415 C 279.831 87.543,280.014 87.142,280.032 86.524 C 280.049 85.906,280.154 85.625,280.265 85.900 C 280.569 86.655,281.601 86.500,281.594 85.700 C 281.589 85.102,281.531 85.087,281.200 85.600 C 280.800 86.219,280.589 85.433,280.783 84.045 C 280.835 83.670,280.593 83.561,280.030 83.708 C 279.545 83.835,279.197 83.733,279.194 83.463 C 279.190 83.204,279.017 83.264,278.800 83.600 C 278.542 84.000,278.410 84.033,278.406 83.700 C 278.401 83.314,276.210 83.200,268.800 83.200 L 259.200 83.200 259.200 82.138 C 259.200 80.489,257.400 78.400,255.980 78.400 L 254.800 78.400 254.800 68.880 C 254.800 62.009,254.666 59.226,254.320 58.880 C 253.623 58.183,146.777 58.183,146.080 58.880 M254.831 80.910 C 255.574 81.410,256.603 82.445,257.120 83.210 L 258.059 84.600 257.813 98.800 C 257.677 106.610,257.439 117.950,257.283 124.000 C 256.883 139.544,258.218 138.394,240.575 138.397 L 227.750 138.400 226.675 139.522 L 225.600 140.644 225.600 153.790 C 225.600 165.462,225.674 167.019,226.262 167.669 C 226.878 168.349,227.847 168.400,240.162 168.403 C 252.367 168.405,253.488 168.463,254.522 169.145 C 257.204 170.913,256.970 166.016,257.287 227.000 C 257.445 257.360,257.679 288.325,257.807 295.812 L 258.039 309.424 257.110 310.803 C 256.599 311.561,255.574 312.590,254.831 313.090 L 253.482 314.000 200.200 314.000 L 146.918 314.000 145.569 313.090 C 144.826 312.590,143.801 311.561,143.290 310.803 L 142.361 309.424 142.593 295.812 C 142.721 288.325,142.955 257.360,143.113 227.000 C 143.430 166.016,143.196 170.913,145.878 169.145 C 146.894 168.475,147.944 168.405,156.969 168.403 C 169.885 168.399,168.400 170.288,168.400 153.860 L 168.400 140.644 167.325 139.522 L 166.250 138.400 156.625 138.397 C 142.713 138.394,143.509 139.242,143.117 124.000 C 142.961 117.950,142.723 106.610,142.587 98.800 L 142.341 84.600 143.280 83.210 C 143.797 82.445,144.826 81.410,145.569 80.910 L 146.918 80.000 200.200 80.000 L 253.482 80.000 254.831 80.910 M281.141 83.300 C 281.035 84.179,281.134 84.821,281.380 84.851 C 283.493 85.108,283.452 85.130,283.244 83.842 L 283.044 82.600 282.786 83.800 L 282.528 85.000 282.121 84.000 C 281.898 83.450,281.626 82.730,281.518 82.400 C 281.410 82.070,281.240 82.475,281.141 83.300 M85.033 111.900 C 84.868 112.065,84.568 112.222,84.367 112.250 C 84.165 112.278,83.685 112.340,83.300 112.390 C 82.789 112.456,82.870 112.566,83.600 112.800 C 84.150 112.976,84.315 113.138,83.967 113.160 C 83.266 113.204,83.075 114.396,83.767 114.406 C 84.006 114.410,83.964 114.562,83.673 114.746 C 83.259 115.009,83.155 117.187,83.186 124.940 L 83.225 134.800 82.091 134.800 C 80.602 134.800,78.400 137.018,78.400 138.519 L 78.400 139.600 68.800 139.600 C 62.310 139.600,59.200 139.737,59.200 140.024 C 59.200 140.257,59.020 140.336,58.800 140.200 C 58.580 140.064,58.376 140.188,58.347 140.476 C 58.318 140.764,58.162 140.370,58.000 139.600 L 57.705 138.200 57.647 139.600 C 57.602 140.662,57.494 140.855,57.200 140.400 C 56.877 139.900,56.805 139.934,56.766 140.600 C 56.728 141.267,56.667 141.234,56.400 140.400 C 56.206 139.795,56.064 139.664,56.040 140.067 C 56.018 140.434,55.890 141.021,55.755 141.372 C 55.570 141.856,55.682 141.944,56.221 141.737 C 56.746 141.535,56.846 141.602,56.604 141.994 C 56.380 142.357,56.430 142.428,56.765 142.222 C 57.863 141.543,58.684 144.170,57.813 145.579 C 57.586 145.946,57.627 146.031,57.938 145.838 C 58.286 145.623,58.400 158.872,58.400 199.696 C 58.400 241.275,58.511 253.951,58.880 254.320 C 59.226 254.666,62.009 254.800,68.880 254.800 L 78.400 254.800 78.400 255.980 C 78.400 257.400,80.489 259.200,82.138 259.200 L 83.200 259.200 83.200 268.800 C 83.200 276.210,83.314 278.401,83.700 278.406 C 84.033 278.410,84.000 278.542,83.600 278.800 C 83.264 279.017,83.204 279.190,83.463 279.194 C 83.733 279.197,83.835 279.545,83.708 280.030 C 83.561 280.593,83.670 280.835,84.045 280.783 C 85.433 280.589,86.219 280.800,85.600 281.200 C 85.087 281.531,85.102 281.589,85.700 281.594 C 86.500 281.601,86.655 280.569,85.900 280.265 C 85.625 280.154,85.906 280.049,86.524 280.032 C 87.142 280.014,87.543 279.831,87.415 279.624 C 87.287 279.418,87.547 279.276,87.991 279.309 C 88.893 279.377,89.069 279.835,88.300 280.116 C 88.025 280.217,88.280 280.277,88.866 280.249 C 89.527 280.219,89.805 280.048,89.599 279.800 C 89.379 279.535,92.634 279.442,99.274 279.526 C 112.143 279.687,110.800 280.941,110.800 268.765 L 110.800 259.253 111.897 259.127 C 114.325 258.846,114.192 262.280,114.285 197.800 C 114.380 132.437,114.484 135.171,111.900 134.873 L 110.800 134.747 110.800 125.235 C 110.800 113.059,112.142 114.313,99.278 114.474 C 92.692 114.557,89.351 114.463,89.496 114.200 C 89.618 113.980,89.475 114.025,89.179 114.300 C 88.882 114.575,88.451 114.797,88.220 114.794 C 87.989 114.791,88.070 114.603,88.400 114.377 C 88.852 114.068,88.635 113.993,87.521 114.072 C 86.708 114.129,85.898 114.018,85.721 113.824 C 85.540 113.625,85.661 113.600,86.000 113.766 C 86.330 113.927,86.275 113.794,85.879 113.470 C 85.337 113.027,85.287 112.829,85.679 112.672 C 86.105 112.501,86.105 112.457,85.676 112.432 C 85.388 112.414,85.264 112.220,85.400 112.000 C 85.690 111.530,85.464 111.469,85.033 111.900 M283.614 115.174 C 283.362 115.644,283.200 119.633,283.200 125.347 L 283.200 134.747 282.100 134.873 C 279.516 135.171,279.620 132.437,279.715 197.800 C 279.808 262.280,279.675 258.846,282.103 259.127 L 283.200 259.253 283.200 268.765 C 283.200 280.960,281.459 279.600,297.070 279.600 C 312.527 279.600,310.800 280.975,310.800 268.669 L 310.800 259.200 311.862 259.200 C 313.511 259.200,315.600 257.400,315.600 255.980 L 315.600 254.800 325.138 254.800 C 333.906 254.800,334.730 254.740,335.345 254.061 C 335.964 253.377,336.006 249.307,335.907 199.095 C 335.821 155.424,335.898 144.950,336.306 145.288 C 336.825 145.718,336.856 144.696,336.351 143.800 C 336.227 143.580,336.241 142.950,336.381 142.400 C 336.603 141.531,336.673 141.495,336.916 142.125 C 337.193 142.846,338.000 142.718,338.000 141.953 C 338.000 141.733,337.820 141.664,337.600 141.800 C 337.380 141.936,337.200 141.857,337.200 141.624 C 337.200 141.391,337.566 141.200,338.013 141.200 C 339.076 141.200,339.402 140.264,338.892 138.678 L 338.482 137.400 338.413 138.600 C 338.353 139.644,338.299 139.696,338.000 139.000 C 337.712 138.330,337.652 138.411,337.628 139.500 C 337.600 140.794,337.049 141.252,336.665 140.300 C 336.554 140.025,336.441 140.160,336.415 140.600 C 336.377 141.223,336.197 141.091,335.600 140.000 C 335.178 139.230,334.826 138.825,334.817 139.100 C 334.804 139.486,332.604 139.600,325.200 139.600 L 315.600 139.600 315.600 138.478 C 315.600 137.002,313.374 134.800,311.881 134.800 L 310.800 134.800 310.800 125.262 C 310.800 116.530,310.738 115.668,310.069 115.062 C 308.853 113.962,284.207 114.066,283.614 115.174 M110.557 137.238 C 113.411 139.482,113.200 134.700,113.200 197.200 C 113.200 252.178,113.185 253.261,112.411 254.778 C 110.729 258.075,111.088 258.000,97.005 258.000 C 82.997 258.000,83.052 258.011,80.910 254.831 L 80.000 253.482 80.000 197.200 L 80.000 140.918 80.910 139.569 C 83.052 136.389,82.997 136.400,97.005 136.400 C 109.074 136.400,109.528 136.428,110.557 137.238 M310.831 137.310 C 311.574 137.810,312.590 138.826,313.090 139.569 L 314.000 140.918 314.000 197.200 L 314.000 253.482 313.090 254.831 C 310.948 258.011,311.003 258.000,296.995 258.000 C 282.912 258.000,283.271 258.075,281.589 254.778 C 280.350 252.350,280.350 142.050,281.589 139.622 C 283.271 136.325,282.912 136.400,296.995 136.400 C 309.321 136.400,309.499 136.412,310.831 137.310 M339.709 139.200 C 339.709 140.190,339.787 140.595,339.882 140.100 C 339.978 139.605,339.978 138.795,339.882 138.300 C 339.787 137.805,339.709 138.210,339.709 139.200 M170.262 170.331 C 169.674 170.981,169.600 172.538,169.600 184.210 L 169.600 197.356 170.675 198.478 L 171.750 199.600 197.153 199.600 L 222.556 199.600 223.678 198.525 L 224.800 197.450 224.800 184.187 C 224.800 171.846,224.749 170.878,224.069 170.262 C 222.881 169.188,171.237 169.254,170.262 170.331 M222.869 171.462 C 223.936 172.428,224.000 196.495,222.938 197.669 C 221.964 198.745,172.718 198.812,171.531 197.738 C 170.464 196.772,170.400 172.705,171.462 171.531 C 172.436 170.455,221.682 170.388,222.869 171.462 M83.400 281.189 L 82.200 281.429 83.600 281.971 L 85.000 282.514 83.800 282.779 L 82.600 283.044 83.861 283.247 C 85.061 283.440,85.115 283.393,84.973 282.270 C 84.793 280.841,84.872 280.895,83.400 281.189 " stroke="none" fill="#9494f4" fill-rule="evenodd"></path><path id="path1" d="M146.010 83.789 L 145.081 84.778 145.373 109.689 C 145.625 131.212,145.748 134.693,146.277 135.281 C 146.818 135.882,148.081 135.976,157.016 136.081 C 171.642 136.253,170.798 135.200,170.799 153.271 C 170.800 164.257,170.884 166.026,171.429 166.571 C 172.385 167.528,222.015 167.528,222.971 166.571 C 223.516 166.027,223.601 164.250,223.609 153.271 C 223.622 134.622,222.256 136.000,240.725 136.000 C 252.362 136.000,253.531 135.939,254.106 135.300 C 254.657 134.687,254.771 131.516,255.027 109.689 L 255.319 84.778 254.390 83.789 L 253.461 82.800 200.200 82.800 L 146.939 82.800 146.010 83.789 M83.670 140.126 L 82.800 141.052 82.800 197.256 L 82.800 253.461 83.726 254.330 C 85.057 255.581,109.018 255.706,110.138 254.469 C 111.218 253.275,111.150 140.841,110.069 139.862 C 109.421 139.276,107.914 139.200,96.938 139.200 L 84.539 139.200 83.670 140.126 M283.862 139.931 C 282.782 141.125,282.850 253.559,283.931 254.538 C 284.579 255.124,286.086 255.200,297.062 255.200 L 309.461 255.200 310.330 254.274 L 311.200 253.348 311.200 197.144 L 311.200 140.939 310.274 140.070 C 308.943 138.819,284.982 138.694,283.862 139.931 M146.309 171.500 C 145.762 172.122,145.673 179.835,145.507 240.887 L 145.320 309.573 146.186 310.387 C 147.553 311.671,252.847 311.671,254.214 310.387 L 255.080 309.573 254.893 240.887 C 254.727 179.835,254.638 172.122,254.091 171.500 C 253.392 170.704,228.825 170.417,227.600 171.191 C 227.093 171.511,226.969 173.638,226.800 184.915 L 226.600 198.261 225.600 199.724 C 224.024 202.030,224.403 202.000,197.040 201.999 C 163.924 201.999,167.485 204.032,167.200 184.957 C 167.031 173.643,166.907 171.511,166.400 171.191 C 165.190 170.427,147.006 170.707,146.309 171.500 " stroke="none" fill="#fcdc54" fill-rule="evenodd"></path><path id="path2" d="M145.726 57.178 C 143.669 58.435,143.600 58.820,143.600 68.974 L 143.600 78.400 144.600 78.400 L 145.600 78.400 145.600 68.880 C 145.600 62.009,145.734 59.226,146.080 58.880 C 146.777 58.183,253.623 58.183,254.320 58.880 C 254.666 59.226,254.800 62.009,254.800 68.880 L 254.800 78.400 255.800 78.400 L 256.800 78.400 256.800 68.806 L 256.800 59.213 255.633 57.906 L 254.466 56.600 200.733 56.499 C 148.079 56.400,146.974 56.414,145.726 57.178 M109.932 81.942 C 109.722 83.955,109.920 84.834,111.100 87.129 L 112.400 89.658 112.400 101.029 L 112.400 112.400 101.029 112.400 L 89.658 112.400 87.129 111.100 C 84.836 109.921,83.949 109.721,81.949 109.932 C 81.365 109.993,81.291 111.272,81.230 122.400 L 81.162 134.800 82.194 134.800 L 83.225 134.800 83.186 124.940 C 83.155 117.187,83.259 115.009,83.673 114.746 C 83.964 114.562,84.006 114.410,83.767 114.406 C 83.075 114.396,83.266 113.204,83.967 113.160 C 84.315 113.138,84.150 112.976,83.600 112.800 C 82.933 112.586,82.833 112.466,83.300 112.440 C 83.685 112.418,84.062 112.445,84.139 112.500 C 84.215 112.555,84.609 112.330,85.015 112.000 C 85.421 111.670,85.628 111.610,85.474 111.866 C 85.321 112.122,85.421 112.423,85.698 112.534 C 86.056 112.679,86.035 112.746,85.624 112.768 C 85.197 112.792,85.248 112.963,85.824 113.430 C 86.251 113.776,86.330 113.927,86.000 113.766 C 85.661 113.600,85.540 113.625,85.721 113.824 C 85.898 114.018,86.708 114.129,87.521 114.072 C 88.635 113.993,88.852 114.068,88.400 114.377 C 88.070 114.603,87.989 114.791,88.220 114.794 C 88.451 114.797,88.882 114.575,89.179 114.300 C 89.475 114.025,89.618 113.980,89.496 114.200 C 89.351 114.463,92.692 114.557,99.278 114.474 C 112.143 114.313,110.800 113.055,110.800 125.262 L 110.800 134.800 111.800 134.800 L 112.800 134.800 112.800 123.800 L 112.800 112.800 127.000 112.800 L 141.200 112.800 141.200 111.800 L 141.200 110.800 128.462 110.800 C 112.519 110.800,114.311 112.277,114.474 99.278 C 114.557 92.692,114.463 89.351,114.200 89.496 C 113.980 89.618,114.025 89.475,114.300 89.179 C 114.575 88.882,114.797 88.451,114.794 88.220 C 114.791 87.989,114.603 88.070,114.377 88.400 C 114.068 88.852,113.993 88.635,114.072 87.521 C 114.129 86.708,114.018 85.898,113.824 85.721 C 113.625 85.540,113.600 85.661,113.766 86.000 C 113.927 86.330,113.794 86.275,113.470 85.879 C 113.027 85.337,112.829 85.287,112.672 85.679 C 112.501 86.105,112.457 86.105,112.432 85.676 C 112.414 85.386,112.195 85.280,111.938 85.438 C 111.621 85.634,111.588 85.548,111.832 85.162 C 112.204 84.575,112.243 84.444,112.390 83.300 C 112.456 82.789,112.566 82.870,112.800 83.600 C 112.976 84.150,113.138 84.315,113.160 83.967 C 113.204 83.266,114.396 83.075,114.406 83.767 C 114.410 84.034,114.531 84.013,114.721 83.713 C 114.949 83.355,118.227 83.186,127.215 83.072 C 139.565 82.916,141.200 82.760,141.200 81.736 C 141.200 80.803,110.029 81.008,109.932 81.942 M259.200 82.185 L 259.200 83.200 268.800 83.200 C 276.210 83.200,278.401 83.314,278.406 83.700 C 278.410 84.033,278.542 84.000,278.800 83.600 C 279.017 83.264,279.190 83.204,279.194 83.463 C 279.197 83.733,279.545 83.835,280.030 83.708 C 280.593 83.561,280.835 83.670,280.783 84.045 C 280.589 85.433,280.800 86.219,281.200 85.600 C 281.531 85.087,281.589 85.102,281.594 85.700 C 281.601 86.500,280.569 86.655,280.265 85.900 C 280.154 85.625,280.049 85.906,280.032 86.524 C 280.014 87.142,279.831 87.543,279.624 87.415 C 279.418 87.287,279.276 87.547,279.309 87.991 C 279.377 88.893,279.835 89.069,280.116 88.300 C 280.217 88.025,280.277 88.280,280.249 88.866 C 280.219 89.527,280.048 89.805,279.800 89.599 C 279.535 89.379,279.442 92.716,279.526 99.520 C 279.681 112.172,280.995 110.800,268.724 110.800 L 259.200 110.800 259.200 111.800 L 259.200 112.800 270.200 112.800 L 281.200 112.800 281.200 123.800 L 281.200 134.800 282.200 134.800 L 283.200 134.800 283.200 125.374 C 283.200 119.641,283.362 115.644,283.614 115.174 C 284.239 114.007,309.084 113.967,310.138 115.131 C 310.715 115.769,310.800 117.082,310.800 125.331 L 310.800 134.800 311.800 134.800 L 312.800 134.800 312.800 125.380 C 312.800 111.352,314.205 112.400,295.403 112.400 L 281.566 112.400 281.683 100.700 L 281.800 89.000 283.177 86.300 C 284.325 84.048,284.490 83.417,284.168 82.500 L 283.781 81.400 271.491 81.285 L 259.200 81.170 259.200 82.185 M282.121 84.000 L 282.528 85.000 282.786 83.800 L 283.044 82.600 283.244 83.842 C 283.452 85.130,283.493 85.108,281.380 84.851 C 281.134 84.821,281.035 84.179,281.141 83.300 C 281.240 82.475,281.410 82.070,281.518 82.400 C 281.626 82.730,281.898 83.450,282.121 84.000 M53.246 138.471 C 53.216 139.973,53.396 140.939,53.779 141.322 C 54.097 141.640,54.772 142.598,55.279 143.450 L 56.200 145.000 56.400 199.733 L 56.600 254.466 57.906 255.633 L 59.213 256.800 68.806 256.800 L 78.400 256.800 78.400 255.800 L 78.400 254.800 68.880 254.800 C 62.009 254.800,59.226 254.666,58.880 254.320 C 58.511 253.951,58.400 241.275,58.400 199.696 C 58.400 158.872,58.286 145.623,57.938 145.838 C 57.627 146.031,57.586 145.946,57.813 145.579 C 58.684 144.170,57.863 141.543,56.765 142.222 C 56.430 142.428,56.380 142.357,56.604 141.994 C 56.846 141.602,56.746 141.535,56.221 141.737 C 55.682 141.944,55.570 141.856,55.755 141.372 C 55.890 141.021,56.018 140.434,56.040 140.067 C 56.064 139.664,56.206 139.795,56.400 140.400 C 56.667 141.234,56.728 141.267,56.766 140.600 C 56.805 139.934,56.877 139.900,57.200 140.400 C 57.494 140.855,57.602 140.662,57.647 139.600 L 57.705 138.200 58.000 139.600 C 58.162 140.370,58.318 140.764,58.347 140.476 C 58.376 140.188,58.580 140.064,58.800 140.200 C 59.020 140.336,59.200 140.257,59.200 140.024 C 59.200 139.737,62.310 139.600,68.800 139.600 L 78.400 139.600 78.400 138.600 L 78.400 137.600 66.029 137.600 C 54.584 137.600,53.645 137.548,53.476 136.900 C 53.375 136.515,53.272 137.222,53.246 138.471 M339.930 139.076 L 339.860 141.000 339.707 139.300 C 339.623 138.365,339.395 137.600,339.201 137.600 C 339.007 137.600,338.883 138.365,338.924 139.300 C 338.990 140.786,338.887 141.016,338.100 141.128 C 337.605 141.198,337.200 141.434,337.200 141.651 C 337.200 141.869,337.380 141.936,337.600 141.800 C 337.820 141.664,338.000 141.733,338.000 141.953 C 338.000 142.718,337.193 142.846,336.916 142.125 C 336.673 141.495,336.603 141.531,336.381 142.400 C 336.241 142.950,336.227 143.580,336.351 143.800 C 336.856 144.696,336.825 145.718,336.306 145.288 C 335.898 144.950,335.821 155.424,335.907 199.095 C 336.006 249.307,335.964 253.377,335.345 254.061 C 334.730 254.740,333.906 254.800,325.138 254.800 L 315.600 254.800 315.600 255.800 L 315.600 256.800 325.020 256.800 C 332.657 256.800,334.662 256.685,335.613 256.193 C 338.154 254.879,338.000 258.535,338.000 199.469 C 338.000 141.232,337.888 144.394,340.044 141.653 C 340.851 140.628,341.085 137.823,340.400 137.400 C 340.158 137.250,339.972 137.911,339.930 139.076 M315.600 138.600 L 315.600 139.600 325.200 139.600 C 332.604 139.600,334.804 139.486,334.817 139.100 C 334.826 138.825,335.178 139.230,335.600 140.000 C 336.197 141.091,336.377 141.223,336.415 140.600 C 336.441 140.160,336.554 140.025,336.665 140.300 C 337.049 141.252,337.600 140.794,337.628 139.500 C 337.652 138.411,337.712 138.330,338.000 139.000 C 338.305 139.709,338.347 139.675,338.372 138.700 L 338.400 137.600 327.000 137.600 L 315.600 137.600 315.600 138.600 M81.354 265.700 C 81.494 269.275,81.825 274.240,82.089 276.733 L 82.568 281.266 83.684 281.102 C 84.781 280.941,84.964 281.180,84.907 282.700 C 84.884 283.331,84.794 283.344,86.856 282.409 C 88.467 281.678,89.509 281.617,100.500 281.609 L 112.400 281.600 112.400 295.420 C 112.400 314.502,110.815 312.800,128.580 312.800 L 141.200 312.800 141.200 311.800 L 141.200 310.800 128.462 310.800 C 116.630 310.800,115.677 310.748,115.062 310.069 C 114.000 308.895,114.064 284.828,115.131 283.862 C 115.780 283.275,117.305 283.200,128.531 283.200 L 141.200 283.200 141.200 282.200 L 141.200 281.200 127.000 281.200 L 112.800 281.200 112.800 270.200 L 112.800 259.200 111.800 259.200 L 110.800 259.200 110.800 268.738 C 110.800 280.945,112.144 279.687,99.274 279.526 C 92.634 279.442,89.379 279.535,89.599 279.800 C 89.805 280.048,89.527 280.219,88.866 280.249 C 88.280 280.277,88.025 280.217,88.300 280.116 C 89.069 279.835,88.893 279.377,87.991 279.309 C 87.547 279.276,87.287 279.418,87.415 279.624 C 87.543 279.831,87.142 280.014,86.524 280.032 C 85.906 280.049,85.625 280.154,85.900 280.265 C 86.655 280.569,86.500 281.601,85.700 281.594 C 85.102 281.589,85.087 281.531,85.600 281.200 C 86.219 280.800,85.433 280.589,84.045 280.783 C 83.670 280.835,83.561 280.593,83.708 280.030 C 83.835 279.545,83.733 279.197,83.463 279.194 C 83.204 279.190,83.264 279.017,83.600 278.800 C 84.000 278.542,84.033 278.410,83.700 278.406 C 83.314 278.401,83.200 276.210,83.200 268.800 L 83.200 259.200 82.149 259.200 L 81.098 259.200 81.354 265.700 M281.200 270.200 L 281.200 281.200 270.200 281.200 L 259.200 281.200 259.200 282.200 L 259.200 283.200 268.738 283.200 C 280.965 283.200,279.600 281.458,279.600 297.070 C 279.600 312.527,280.975 310.800,268.669 310.800 L 259.200 310.800 259.200 311.800 L 259.200 312.800 268.620 312.800 C 282.647 312.800,281.600 314.202,281.600 295.420 L 281.600 281.600 295.420 281.600 C 314.202 281.600,312.800 282.647,312.800 268.620 L 312.800 259.200 311.800 259.200 L 310.800 259.200 310.800 268.738 C 310.800 280.965,312.542 279.600,296.930 279.600 C 281.473 279.600,283.200 280.975,283.200 268.669 L 283.200 259.200 282.200 259.200 L 281.200 259.200 281.200 270.200 M82.304 282.612 C 82.508 283.677,83.743 284.606,84.408 284.195 C 85.156 283.733,84.794 283.200,83.700 283.153 L 82.600 283.105 83.800 282.817 L 85.000 282.528 83.874 282.064 C 82.276 281.406,82.086 281.472,82.304 282.612 M143.600 325.020 C 143.600 335.387,143.765 336.244,145.987 337.393 C 147.767 338.314,252.633 338.314,254.413 337.393 C 256.635 336.244,256.800 335.387,256.800 325.020 L 256.800 315.600 255.800 315.600 L 254.800 315.600 254.800 325.138 C 254.800 333.870,254.738 334.732,254.069 335.338 C 252.875 336.418,147.241 336.350,146.262 335.269 C 145.685 334.631,145.600 333.318,145.600 325.069 L 145.600 315.600 144.600 315.600 L 143.600 315.600 143.600 325.020 " stroke="none" fill="#9494fc" fill-rule="evenodd"></path><path id="path3" d="M140.809 37.479 C 140.795 45.989,140.730 53.003,140.666 53.067 C 140.602 53.131,133.616 53.195,125.142 53.209 C 113.453 53.229,109.708 53.351,109.630 53.717 C 109.257 55.469,109.202 82.400,109.572 82.400 C 109.808 82.400,110.000 82.149,110.000 81.843 C 110.000 81.377,112.540 81.275,125.473 81.225 L 140.946 81.164 142.256 79.682 L 143.567 78.200 143.583 68.754 C 143.602 58.334,143.696 57.918,146.286 56.849 C 147.111 56.508,161.305 56.416,200.933 56.494 L 254.466 56.600 255.633 57.906 L 256.800 59.213 256.815 68.706 L 256.830 78.200 258.115 79.693 L 259.400 81.185 271.492 81.215 C 282.417 81.241,283.623 81.309,283.983 81.922 C 284.252 82.379,284.352 77.838,284.291 68.000 C 284.212 55.350,284.120 53.396,283.600 53.361 C 283.270 53.340,277.645 53.294,271.100 53.261 L 259.200 53.200 259.200 40.827 C 259.200 26.822,259.428 27.697,255.905 28.186 C 253.539 28.514,253.258 28.192,253.120 24.989 L 253.000 22.200 196.918 22.104 L 140.836 22.008 140.809 37.479 M84.630 84.751 C 84.522 84.927,84.470 90.629,84.516 97.423 L 84.600 109.775 87.135 111.088 L 89.670 112.400 101.035 112.400 L 112.400 112.400 112.400 101.035 L 112.400 89.670 111.088 87.135 L 109.775 84.600 97.302 84.516 C 90.441 84.469,84.739 84.575,84.630 84.751 M283.702 85.488 C 281.733 88.333,281.600 89.328,281.600 101.208 L 281.600 112.400 295.420 112.400 C 314.192 112.400,312.800 111.367,312.800 125.299 L 312.800 134.638 314.327 136.129 L 315.855 137.620 328.327 137.589 L 340.800 137.557 340.800 123.802 C 340.800 113.237,340.684 109.972,340.300 109.724 C 340.025 109.546,334.358 109.339,327.706 109.265 L 315.611 109.130 315.506 96.865 L 315.400 84.600 299.936 84.488 L 284.472 84.376 283.702 85.488 M56.352 109.382 C 56.252 109.482,55.511 109.608,54.705 109.662 L 53.240 109.761 53.211 122.674 C 53.195 129.776,53.295 136.040,53.434 136.594 L 53.687 137.600 65.962 137.600 L 78.238 137.600 79.700 136.100 L 81.163 134.600 81.231 122.300 C 81.287 112.159,81.396 110.000,81.850 110.000 C 82.152 110.000,82.400 109.820,82.400 109.600 C 82.400 109.205,56.743 108.990,56.352 109.382 M112.800 123.613 C 112.800 133.390,112.877 134.654,113.605 136.815 C 114.778 140.296,114.678 255.671,113.500 257.961 C 112.884 259.160,112.800 260.629,112.800 270.261 L 112.800 281.200 126.957 281.200 C 140.043 281.200,141.140 281.147,141.457 280.500 C 141.646 280.115,141.890 255.230,142.000 225.200 C 142.218 165.773,142.054 169.487,144.526 167.980 C 145.698 167.265,146.604 167.203,155.838 167.201 C 168.649 167.200,167.200 168.969,167.200 153.330 C 167.200 137.847,168.659 139.600,155.769 139.599 C 141.380 139.596,142.287 140.543,141.981 125.200 C 141.860 119.150,141.616 113.885,141.438 113.500 C 141.139 112.853,140.050 112.800,126.957 112.800 L 112.800 112.800 112.800 123.613 M258.864 113.819 C 258.550 114.509,258.400 118.220,258.399 125.319 C 258.396 140.642,259.645 139.600,241.282 139.600 C 229.043 139.600,228.078 139.651,227.462 140.331 C 226.400 141.505,226.464 165.572,227.531 166.538 C 228.181 167.126,229.734 167.200,241.351 167.200 C 255.813 167.200,256.108 167.246,257.616 169.719 C 258.380 170.973,258.397 172.148,258.399 225.081 C 258.400 265.267,258.519 279.424,258.864 280.181 L 259.328 281.200 270.264 281.200 L 281.200 281.200 281.200 270.261 C 281.200 260.629,281.116 259.160,280.500 257.961 C 279.322 255.671,279.222 140.296,280.395 136.815 C 281.123 134.654,281.200 133.390,281.200 123.613 L 281.200 112.800 270.264 112.800 L 259.328 112.800 258.864 113.819 M22.104 196.918 L 22.200 253.000 24.989 253.120 C 28.192 253.258,28.514 253.539,28.186 255.905 C 27.697 259.428,26.822 259.200,40.827 259.200 L 53.200 259.200 53.261 271.100 C 53.294 277.645,53.340 283.270,53.361 283.600 C 53.396 284.120,55.422 284.214,68.584 284.305 C 81.008 284.391,83.639 284.317,83.065 283.897 C 82.530 283.505,82.334 282.679,82.235 280.392 C 82.163 278.747,81.883 273.350,81.612 268.400 L 81.118 259.400 79.659 258.115 L 78.200 256.830 68.706 256.815 L 59.213 256.800 57.906 255.633 L 56.600 254.466 56.400 199.733 L 56.200 145.000 55.279 143.450 C 53.581 140.594,54.827 140.781,37.624 140.809 L 22.008 140.835 22.104 196.918 M339.935 141.735 C 337.900 144.557,338.000 141.587,338.000 199.469 C 338.000 258.535,338.154 254.879,335.613 256.193 C 334.664 256.684,332.676 256.800,325.196 256.800 L 315.953 256.800 314.377 258.067 L 312.800 259.334 312.800 268.687 C 312.800 282.636,314.194 281.600,295.420 281.600 L 281.600 281.600 281.600 295.420 C 281.600 314.194,282.636 312.800,268.687 312.800 L 259.334 312.800 258.067 314.377 L 256.800 315.953 256.800 325.196 C 256.800 335.371,256.629 336.248,254.413 337.393 C 252.633 338.314,147.767 338.314,145.987 337.393 C 143.771 336.248,143.600 335.372,143.600 325.193 L 143.600 315.946 142.300 314.380 L 141.000 312.814 128.480 312.807 C 110.832 312.797,112.400 314.493,112.400 295.420 L 112.400 281.600 100.500 281.609 C 89.858 281.617,88.431 281.695,87.000 282.345 C 84.236 283.603,84.364 282.710,84.488 299.856 L 84.600 315.400 96.865 315.506 L 109.130 315.611 109.265 327.706 C 109.339 334.358,109.546 340.025,109.724 340.300 C 109.973 340.686,113.562 340.800,125.424 340.800 L 140.800 340.800 140.847 355.900 C 140.873 364.205,140.874 371.132,140.850 371.293 C 140.746 371.969,145.191 372.014,200.800 371.910 L 259.000 371.800 259.105 356.306 L 259.209 340.811 271.705 340.706 L 284.200 340.600 284.306 328.105 L 284.411 315.609 299.906 315.505 L 315.400 315.400 315.505 299.906 L 315.609 284.411 328.105 284.306 L 340.600 284.200 340.706 271.705 L 340.811 259.209 356.306 259.105 L 371.800 259.000 371.910 200.800 C 371.970 168.790,371.923 142.203,371.806 141.718 L 371.594 140.835 356.097 140.824 L 340.600 140.813 339.935 141.735 M171.462 171.531 C 170.400 172.705,170.464 196.772,171.531 197.738 C 172.718 198.812,221.964 198.745,222.938 197.669 C 224.000 196.495,223.936 172.428,222.869 171.462 C 221.682 170.388,172.436 170.455,171.462 171.531 " stroke="none" fill="#5454fc" fill-rule="evenodd"></path><path id="path4" d="M145.569 80.910 C 144.826 81.410,143.797 82.445,143.280 83.210 L 142.341 84.600 142.587 98.800 C 142.723 106.610,142.961 117.950,143.117 124.000 C 143.509 139.242,142.713 138.394,156.625 138.397 L 166.250 138.400 167.325 139.522 L 168.400 140.644 168.400 153.860 C 168.400 170.288,169.885 168.399,156.969 168.403 C 147.944 168.405,146.894 168.475,145.878 169.145 C 143.196 170.913,143.430 166.016,143.113 227.000 C 142.955 257.360,142.721 288.325,142.593 295.812 L 142.361 309.424 143.290 310.803 C 143.801 311.561,144.826 312.590,145.569 313.090 L 146.918 314.000 200.200 314.000 L 253.482 314.000 254.831 313.090 C 255.574 312.590,256.599 311.561,257.110 310.803 L 258.039 309.424 257.807 295.812 C 257.679 288.325,257.445 257.360,257.287 227.000 C 256.970 166.016,257.204 170.913,254.522 169.145 C 253.488 168.463,252.367 168.405,240.162 168.403 C 227.847 168.400,226.878 168.349,226.262 167.669 C 225.674 167.019,225.600 165.462,225.600 153.790 L 225.600 140.644 226.675 139.522 L 227.750 138.400 240.575 138.397 C 258.218 138.394,256.883 139.544,257.283 124.000 C 257.439 117.950,257.677 106.610,257.813 98.800 L 258.059 84.600 257.120 83.210 C 256.603 82.445,255.574 81.410,254.831 80.910 L 253.482 80.000 200.200 80.000 L 146.918 80.000 145.569 80.910 M254.390 83.789 L 255.319 84.778 255.027 109.689 C 254.771 131.516,254.657 134.687,254.106 135.300 C 253.531 135.939,252.362 136.000,240.725 136.000 C 222.256 136.000,223.622 134.622,223.609 153.271 C 223.601 164.250,223.516 166.027,222.971 166.571 C 222.015 167.528,172.385 167.528,171.429 166.571 C 170.884 166.026,170.800 164.257,170.799 153.271 C 170.798 135.200,171.642 136.253,157.016 136.081 C 148.081 135.976,146.818 135.882,146.277 135.281 C 145.748 134.693,145.625 131.212,145.373 109.689 L 145.081 84.778 146.010 83.789 L 146.939 82.800 200.200 82.800 L 253.461 82.800 254.390 83.789 M83.169 137.310 C 82.426 137.810,81.410 138.826,80.910 139.569 L 80.000 140.918 80.000 197.200 L 80.000 253.482 80.910 254.831 C 83.052 258.011,82.997 258.000,97.005 258.000 C 111.088 258.000,110.729 258.075,112.411 254.778 C 113.650 252.350,113.650 142.050,112.411 139.622 C 110.729 136.325,111.088 136.400,97.005 136.400 C 84.679 136.400,84.501 136.412,83.169 137.310 M283.443 137.238 C 280.589 139.482,280.800 134.700,280.800 197.200 C 280.800 252.178,280.815 253.261,281.589 254.778 C 283.271 258.075,282.912 258.000,296.995 258.000 C 311.003 258.000,310.948 258.011,313.090 254.831 L 314.000 253.482 314.000 197.200 L 314.000 140.918 313.090 139.569 C 310.948 136.389,311.003 136.400,296.995 136.400 C 284.926 136.400,284.472 136.428,283.443 137.238 M110.069 139.862 C 111.150 140.841,111.218 253.275,110.138 254.469 C 109.018 255.706,85.057 255.581,83.726 254.330 L 82.800 253.461 82.800 197.256 L 82.800 141.052 83.670 140.126 L 84.539 139.200 96.938 139.200 C 107.914 139.200,109.421 139.276,110.069 139.862 M310.274 140.070 L 311.200 140.939 311.200 197.144 L 311.200 253.348 310.330 254.274 L 309.461 255.200 297.062 255.200 C 286.086 255.200,284.579 255.124,283.931 254.538 C 282.850 253.559,282.782 141.125,283.862 139.931 C 284.982 138.694,308.943 138.819,310.274 140.070 M224.069 170.262 C 224.749 170.878,224.800 171.846,224.800 184.187 L 224.800 197.450 223.678 198.525 L 222.556 199.600 197.153 199.600 L 171.750 199.600 170.675 198.478 L 169.600 197.356 169.600 184.210 C 169.600 172.538,169.674 170.981,170.262 170.331 C 171.237 169.254,222.881 169.188,224.069 170.262 M166.400 171.191 C 166.907 171.511,167.031 173.643,167.200 184.957 C 167.485 204.032,163.924 201.999,197.040 201.999 C 224.403 202.000,224.024 202.030,225.600 199.724 L 226.600 198.261 226.800 184.915 C 226.969 173.638,227.093 171.511,227.600 171.191 C 228.825 170.417,253.392 170.704,254.091 171.500 C 254.638 172.122,254.727 179.835,254.893 240.887 L 255.080 309.573 254.214 310.387 C 252.847 311.671,147.553 311.671,146.186 310.387 L 145.320 309.573 145.507 240.887 C 145.673 179.835,145.762 172.122,146.309 171.500 C 147.006 170.707,165.190 170.427,166.400 171.191 " stroke="none" fill="#e498ac" fill-rule="evenodd"></path></g></svg>