<?xml version="1.0" encoding="utf-8"?>
<!-- Generator: Adobe Illustrator 26.0.1, SVG Export Plug-In . SVG Version: 6.00 Build 0)  -->
<svg version="1.0" id="Layer_1" xmlns="http://www.w3.org/2000/svg" xmlns:xlink="http://www.w3.org/1999/xlink" x="0px" y="0px"
	 viewBox="0 0 1080 1080" style="enable-background:new 0 0 1080 1080;" xml:space="preserve">
<style type="text/css">
	.st0{fill:#F7F7F7;}
	.st1{fill:#00DACC;}
	.st2{fill:#313144;}
</style>
<g>
	<g>
		<path class="st1" d="M832.2,426.3c-3.3-162.8-139.1-291.8-302.4-286.1c-159.5,5.5-285.5,138.9-282.1,298.5
			c2.6,117.9,74.6,217.9,176.1,262c14.4-18.3,26.4-51.2,32.4-69.5c6-15,12.3-29.6,18.9-43.8c29.7,10.3,69.5,0.5,91.3-23.2l0.9-0.9
			l-0.1,0c-26.4-11.6-62.8-5.6-86.8,13c8.2-16.9,16.8-33.3,25.9-49.1c29.2,11.7,69.4,3.7,92.2-18.9l0.9-0.9l-0.1,0
			c-25.4-12.6-61.3-8.6-86.1,8.1c9-15,18.4-29.5,28.2-43.3c30.2,9.4,70-2.2,90.9-27l0.8-1l-0.1,0c-24.6-9.5-57-3.9-80,12.2
			c0.8-1.1,1.6-2.2,2.4-3.3c5.9-7.7,11.9-15.1,18-22.4c35.7-10.1,67.5-46.5,72.6-84.1l0.2-1.5l-0.1,0c-36.9,7.4-71.1,43.7-77.9,82.1
			c-5.9,7-11.6,14.1-17.3,21.5c9.2-25,7.6-55.4-5.9-76.4L545,372l-0.8,1c-20.3,25.7-23.6,67.5-7.8,95.2
			c-9.3,13.1-18.2,26.8-26.8,40.9c5.4-28.4-3.7-61.4-23.7-80l-0.1-0.1l-0.5,1.2c-13.2,29.6-6.1,70.5,15.6,93.6
			c-8.6,14.9-16.7,30.3-24.5,46.3c4.7-29.5-5.8-63.7-27-82.2l-0.1-0.1l-0.5,1.2c-12,31.1-2.8,73.2,20.6,95.7
			c-5.1,10.9-10,22.1-14.7,33.4c-1.1-1.2-2.6-2.1-4.3-2.6c-6.1-1.8-14.5-5-23.8-10.5c-6.1-3.7-12.6-6.7-19.4-8.9
			c-26.4-8.6-22.5-21.4-36.3-46.8c-0.9-1.7-11.8-13-14.1-15.1c-0.6-0.5-7.5-4.5-11.1-12c-3.2-6.8-5.1-13.2-5.7-19.4
			c-0.9-8.3-4.3-13.7-12.4-16.5C289,473,306.3,422.7,307.7,416c1.1-5.7-3.8-18.2-5.7-25c-0.2-0.8-0.4-1.8-0.6-3.1
			c-2.8-13.5,3.5-24.9,8.1-29.6c4.7-4.7,20.8-12.2,24.2-16.6c3.3-4.3,6-9.3,9.4-13.5c4.5-5.6,18.4-16.7,37-26.7
			c11.3-6,13.3-21.8,17.6-26.7c7.4-8.3,18.5-8.3,26.8-15.8c4.2-3.8,10.2-5.7,14.1-9.6c19.2-19.7,45-27.7,70.5-32.4
			c17.2-3.2,36.3,1.7,54.2,4.8c2.6,0.4,5.1,1.1,7.6,1.8c40.3,1.4,88.8,9.8,106.3,26.8c10.9,10.7,16.3,22.3,18.9,30.3
			c2.9,9,6.9,17.5,11.9,25.5l10.8,17.5c6.8,11.1,9.1,24.4,6.1,37.1c-1.7,7.2-2.5,14.8-0.4,19c3.4,6.6,13.7,17.3,19.9,23.4
			c3,3,6.3,5.6,9.9,7.8c8.3,5.2,24,15.3,24,16.2c0,1.2,1.3,6.2-5.7,12.2c-7,6-20,15.6-20,15.6s0.7,4.4,2.5,7.9
			c1.8,3.5,6.4,8.7,5,13.5c-1.4,4.8-11,8.5-8.3,13.7c2.8,5.3,9.6,6.9,7.6,11.7c-2,4.8-11.5,12.9-10.6,16.5c1,3.5,8.7,36.1-9.2,41.8
			c-13.5,4.3-50.5,6.7-67.9,7.6c-7.5,0.4-14.3,4.6-17.9,11.2c-2.7,4.9-5.4,11.8-6.7,20.8c-3.4,23.1-26.2,76.1-26.2,76.1
			s-0.7,1.3-1.7,3.6c-2,4.8-4.8,12.3-4.4,15.3c0.3,2,2.9,5.8,6.9,10.5c3.1,3.7,8.2,5.2,12.9,3.6C751.7,669,834.9,556.7,832.2,426.3z
			"/>
	</g>
	<g>
		<path class="st0" d="M128.9,811.6h30l33.3,53.5l33.3-53.5h30v126.6h-27.7v-82.6l-35.6,54.1h-0.7l-35.3-53.5v82.1h-27.3V811.6z"/>
		<path class="st0" d="M354.5,811.6H450v24.8h-67.8v25.7h59.7v24.8h-59.7v26.6h68.7v24.8h-96.4V811.6z"/>
		<path class="st0" d="M573.8,837.3h-38.5v-25.7h104.9v25.7h-38.5v100.9h-27.8V837.3z"/>
		<path class="st0" d="M731.5,811.6h27.8v126.6h-27.8V811.6z"/>
		<path class="st0" d="M851,919.8l16.5-19.7c11.6,9.4,23.3,15.4,37.8,15.4c11.6,0,18.3-4.5,18.3-11.9v-0.4c0-7.1-4.3-10.8-25.5-16.1
			c-25.7-6.3-41.9-13.7-41.9-38.7V848c0-23,18.3-38.1,44.3-38.1c18.6,0,34,5.8,47,16.1l-14.5,21c-11.4-7.8-22.1-12.5-32.9-12.5
			c-10.8,0-16.3,4.7-16.3,11v0.4c0,8.5,5.4,10.8,27.3,16.6c25.7,6.9,40.1,15.9,40.1,38v0.4c0,25.1-19.2,39.2-46.5,39.2
			C885.3,940,866.2,933.5,851,919.8z"/>
	</g>
</g>
</svg>