<svg width="16" height="16" fill="none" xmlns="http://www.w3.org/2000/svg"><path d="M15.137 7.288a7.501 7.501 0 0 1-8.175 8.175C3.639 15.156.872 12.576.287 9.291a7.185 7.185 0 0 1 .09-3.03.75.75 0 0 1 .982-.525.743.743 0 0 1 .473.87 6.028 6.028 0 0 0-.143 1.957c.278 3.03 2.918 5.438 5.963 5.445a6.008 6.008 0 0 0 5.955-6.84c-.383-2.775-2.745-4.965-5.543-5.145a5.833 5.833 0 0 0-1.785.15.748.748 0 0 1-.87-.48.748.748 0 0 1 .518-.982 7.19 7.19 0 0 1 4.335.277c2.67 1.013 4.612 3.465 4.875 6.3ZM2.792 2.001c-.623 0-1.125.502-1.125 1.125 0 .622.502 1.125 1.125 1.125.622 0 1.125-.503 1.125-1.125C3.917 2.503 3.414 2 2.792 2Zm4.125 8.25v-4.5a.752.752 0 0 0-.75-.75.752.752 0 0 0-.75.75v4.5c0 .412.337.75.75.75.412 0 .75-.338.75-.75Zm3 0v-4.5a.752.752 0 0 0-.75-.75.752.752 0 0 0-.75.75v4.5c0 .412.337.75.75.75.412 0 .75-.338.75-.75Z" fill="#fff"/></svg>