<svg width="31" height="16" viewBox="0 0 31 16" fill="none" xmlns="http://www.w3.org/2000/svg">
<path fill-rule="evenodd" clip-rule="evenodd" d="M2.5 0C1.39543 0 0.5 0.895431 0.5 2V14C0.5 15.1046 1.39543 16 2.5 16H28.5C29.6046 16 30.5 15.1046 30.5 14V2C30.5 0.895431 29.6046 0 28.5 0H2.5ZM4.5 6.2C4.5 5.53726 5.11764 5 5.87953 5H7.94883C8.71073 5 9.32837 5.53726 9.32837 6.2V7.4C9.32837 8.06274 8.79111 8.6 8.12837 8.6H7.94883H5.87953V10.4C5.87953 10.7314 5.57071 11 5.18977 11C4.80882 11 4.5 10.7314 4.5 10.4V8.6V7.4V6.2ZM7.94882 6.20001V7.40001H5.87952V6.20001H7.94882ZM13.2261 11C13.988 11 14.6056 10.4627 14.6056 9.8V8.6V7.4V5.6C14.6056 5.26863 14.2968 5 13.9158 5C13.5349 5 13.2261 5.26863 13.2261 5.6V9.8H11.1568V5.6C11.1568 5.26863 10.8479 5 10.467 5C10.086 5 9.77723 5.26863 9.77723 5.6V7.4L9.77722 8.6V9.8C9.77722 10.4627 10.3949 11 11.1568 11H13.2261ZM16.8795 5H15.6C15.2686 5 15 5.26863 15 5.6C15 5.93137 15.2686 6.2 15.6 6.2H16.8795L16.8795 10.4C16.8795 10.7314 17.1883 11 17.5692 11C17.9502 11 18.259 10.7314 18.259 10.4V6.2H19.4C19.7314 6.2 20 5.93137 20 5.6C20 5.26863 19.7314 5 19.4 5H18.259H16.8795ZM25.5 8.6V9.8C25.5 10.46 24.9375 11 24.25 11H21.125C20.7812 11 20.5 10.73 20.5 10.4C20.5 10.07 20.7812 9.8 21.125 9.8H24.25V8.6H21.75C20.875 8.6 20.5 8 20.5 7.4V6.2C20.5 5.87 20.5 5 21.75 5H24.875C25.2188 5 25.5 5.27 25.5 5.6C25.5 5.93 25.2188 6.2 24.875 6.2H21.75V7.4H24.25C24.9375 7.4 25.5 7.94 25.5 8.6Z" fill="#FF617D"/>
</svg>
