<svg width="12" height="16" fill="none" xmlns="http://www.w3.org/2000/svg"><path d="M6 2V.657a.371.371 0 0 0-.638-.262l-2.1 2.092a.371.371 0 0 0 0 .533l2.093 2.092A.38.38 0 0 0 6 4.842V3.5c2.482 0 4.5 2.017 4.5 4.5 0 .592-.113 1.17-.33 1.687a.72.72 0 0 0 .172.78.752.752 0 0 0 1.23-.255A5.87 5.87 0 0 0 12 8c0-3.315-2.685-6-6-6Zm0 10.5A4.504 4.504 0 0 1 1.5 8c0-.593.113-1.17.33-1.688a.72.72 0 0 0-.173-.78.752.752 0 0 0-1.23.255A5.87 5.87 0 0 0 0 8c0 3.315 2.685 6 6 6v1.342c0 .338.405.503.638.263l2.092-2.093a.371.371 0 0 0 0-.532l-2.093-2.093a.375.375 0 0 0-.637.27V12.5Z" fill="#fff"/></svg>