<svg width="18" height="18" fill="none" xmlns="http://www.w3.org/2000/svg"><path d="M14.803 14.533a2.303 2.303 0 0 0-1.37 1.462l-.417 1.278a.045.045 0 0 1-.043.035.045.045 0 0 1-.043-.035l-.415-1.278a2.302 2.302 0 0 0-1.373-1.462l-1.198-.444a.047.047 0 0 1-.03-.045c0-.02.012-.038.03-.045l1.198-.444a2.303 2.303 0 0 0 1.373-1.462l.415-1.278a.045.045 0 0 1 .043-.034c.02 0 .037.014.043.034l.416 1.278a2.303 2.303 0 0 0 1.371 1.463l1.2.444c.018.006.03.024.03.044 0 .02-.012.038-.03.045l-1.2.444ZM15.771 5.38c-.803.298-1.435.972-1.714 1.828l-.52 1.598a.056.056 0 0 1-.053.041.056.056 0 0 1-.053-.04l-.521-1.599c-.28-.856-.91-1.53-1.714-1.827l-1.5-.555a.059.059 0 0 1-.037-.056.06.06 0 0 1 .038-.056l1.499-.555c.803-.298 1.435-.971 1.714-1.828l.52-1.598a.056.056 0 0 1 .054-.04c.024 0 .045.016.053.04l.52 1.598c.28.857.91 1.53 1.714 1.828l1.5.555a.06.06 0 0 1 .037.056.059.059 0 0 1-.038.056l-1.499.555ZM9.18 10.367c-1.115.413-1.992 1.349-2.38 2.538l-.723 2.22a.078.078 0 0 1-.073.056.078.078 0 0 1-.074-.056l-.723-2.22c-.388-1.19-1.265-2.124-2.38-2.538l-2.083-.77a.082.082 0 0 1-.052-.079c0-.035.021-.066.052-.077l2.082-.771c1.116-.414 1.993-1.349 2.38-2.538l.724-2.22a.078.078 0 0 1 .074-.056c.033 0 .062.023.073.056l.723 2.22c.388 1.19 1.265 2.124 2.38 2.538l2.083.77a.082.082 0 0 1 .052.078c0 .035-.021.067-.052.078l-2.082.771Z" fill="#8E8E8E"/></svg>