<?xml version="1.0" standalone="no"?>
<!DOCTYPE svg PUBLIC "-//W3C//DTD SVG 20010904//EN"
 "http://www.w3.org/TR/2001/REC-SVG-20010904/DTD/svg10.dtd">
<svg version="1.0" xmlns="http://www.w3.org/2000/svg"
 width="50.000000pt" height="50.000000pt" viewBox="0 0 50.000000 50.000000"
 preserveAspectRatio="xMidYMid meet">

<g transform="translate(0.000000,50.000000) scale(0.100000,-0.100000)"
fill="#000000" stroke="none">
<path d="M0 250 l0 -250 250 0 250 0 0 250 0 250 -250 0 -250 0 0 -250z m329
139 c25 -15 31 -23 22 -32 -8 -8 -19 -8 -44 1 -72 26 -133 7 -163 -49 -19 -37
-18 -59 3 -59 11 0 6 -8 -17 -25 -19 -14 -35 -25 -37 -25 -2 0 -3 22 -3 49 0
121 137 202 239 140z m-85 -101 c5 -10 7 -10 12 0 6 13 44 17 44 5 0 -5 -7
-17 -15 -27 -13 -18 -13 -22 6 -42 l21 -22 -62 0 -62 0 21 22 21 23 -21 26
-20 27 24 0 c14 0 28 -6 31 -12z m164 -43 c-5 -59 -24 -94 -72 -129 -37 -28
-130 -29 -170 -3 -39 26 -20 46 27 29 45 -16 82 -15 117 3 48 25 80 105 43
105 -14 0 -11 6 12 25 17 13 34 24 39 25 5 0 6 -25 4 -55z"/>
</g>
</svg>
