<svg xmlns="http://www.w3.org/2000/svg" width="400" height="400"><g fill-rule="evenodd"><path d="M197.1 108.81c-15.258 2.393-19.327 22.715-6.187 30.905 11.05 6.887 25.375-1.198 25.364-14.315-.009-10.217-9.188-18.157-19.177-16.59m-64.6 36.609c-10.386 1.367-16.361 10.875-13.764 21.902.086.362-.422.745-3.668 2.762-11.975 7.443-17.768 11.116-17.83 11.304-.039.117-.233.213-.43.213-.198 0-.475.14-.617.311-.142.171-.176.296-.075.277.417-.08.565.031.284.212-.254.164-.245.194.062.197.199.002.311.085.249.186-.063.101 0 .228.138.284.151.061.112.108-.099.117-.202.009-.361.185-.375.416-.014.22-.042.603-.063.85-.021.247.009.538.066.646.279.531.156.883-.236.673-.26-.139-.348-.141-.264-.004.07.113-.032.246-.226.297-.321.083-.319.094.019.115.24.015.332.127.259.317-.062.161-.038.339.052.395.091.056.143.442.117.857-.065.988-.072 1.005-.299.654-.116-.18-.195-.205-.197-.062a.467.467 0 0 0 .2.364c.112.069.137.232.056.362-.08.13-.123.461-.094.736.041.386.008.433-.145.206-.109-.162-.254-.239-.322-.17-.069.068.039.29.239.494.2.203.326.348.281.322-.044-.027-.197.047-.338.164-.282.234-.149.85.144.669a.211.211 0 0 0 .075-.287c-.059-.095.052-.164.247-.152.195.012 3.144-1.717 6.554-3.842s9.425-5.875 13.367-8.334c8.102-5.053 7.269-4.659 8.156-3.86 3.498 3.152 9.977 4.591 14.877 3.304 2.741-.72 7.533-3.681 8.312-5.136.3-.56-1.37-1.575 20.759 12.62l19.97 12.811.117 1.658c.065.913.145 1.775.18 1.917.037.155-4.139 2.817-10.438 6.654a23335.69 23335.69 0 0 0-18.806 11.469c-9.978 6.093-8.714 5.566-10.021 4.181-7.042-7.459-19.436-6.709-25.496 1.544l-.684.932-12.647-8.107c-15.453-9.906-14.899-9.556-14.605-9.248.174.183.182.361.029.647-.14.261-.144.437-.011.519.266.167.37.863.174 1.175-.088.141-.065.25.055.25.117 0 .212.132.212.294 0 .196-.115.249-.345.161-.28-.107-.261-.026.1.433.245.311.445.734.445.939 0 .205.113.374.25.376.167.002.15.068-.05.197-.165.107-.221.195-.126.197.096.002.051.155-.1.341-.15.187-.184.288-.074.226.11-.062.38.069.6.292.22.223.306.352.19.288-.115-.065-.319.056-.452.269-.204.327-.187.387.11.39.199.002.265.067.152.15-.276.202-.344.647-.1.647.11 0 .2.27.2.6 0 .33.071.6.157.6.087 0 .171.18.188.4.017.22-.068.4-.188.4-.459 0 .973.958 11.943 7.995l11.3 7.248v1.687c0 12.564 14.21 20.664 25.026 14.265 5.575-3.298 8.749-9.305 8.299-15.708l-.131-1.853 3.453-2.097 19.623-11.917 16.171-9.819 1.165.719c4.347 2.683 9.952 2.473 13.917-.52l1.022-.772 19.237 12.336 19.236 12.336.049 3c.106 6.571 3.522 12.048 9.233 14.806 11.69 5.645 24.777-3.237 24.026-16.306l-.121-2.1 4.748-2.872c15.144-9.16 18.033-10.955 18.04-11.206.004-.153.165-.394.357-.535.329-.242.328-.255-.027-.222-.444.041-.603-.555-.245-.918.137-.139.212-.576.17-.997-.043-.432.013-.75.132-.75.114 0 .159-.126.1-.28-.059-.154-.007-.342.116-.418.162-.1.163-.21.004-.402-.154-.186-.156-.303-.006-.396.117-.072.158-.219.092-.327-.066-.107.029-.423.213-.703.183-.28.281-.561.217-.625-.064-.063-.116-.005-.116.129 0 .135-.09.19-.2.122-.11-.068-.2-.023-.2.1s-.095.165-.212.093c-.142-.088-.124-.207.055-.362.447-.387 1.074-1.21.799-1.049-.196.115-.228.015-.134-.415.093-.425.073-.493-.083-.27-.166.239-.202.199-.181-.2.015-.273.123-.622.24-.776.594-.778.494-.719-19.947 11.699l-7.364 4.474-1.112-1.201c-6.197-6.694-17.03-6.789-23.698-.208l-1.738 1.715-18.862-12.112-18.863-12.113.056-1.387c.031-.764-.023-1.858-.119-2.433l-.176-1.046 15.42-9.382c8.48-5.161 17.211-10.477 19.402-11.815l3.983-2.432.917.876c6.709 6.409 17.03 6.338 23.53-.161l1.314-1.315 13.277 8.51c7.302 4.68 13.439 8.509 13.636 8.507.215-.002.274-.062.145-.15-.309-.212-.498-.816-.293-.942.095-.059.21.001.254.134.063.187.114.188.229.001.082-.132.053-.24-.063-.24a.212.212 0 0 1-.212-.212c0-.116.104-.147.231-.069.146.091.176.055.082-.098-.104-.168-.224-.178-.397-.034-.179.149-.249.126-.249-.081 0-.159.068-.246.153-.194.084.052.215-.007.292-.131.076-.124.028-.294-.108-.378-.166-.103-.2-.368-.103-.808.128-.581.102-.64-.229-.525-.341.12-.344.109-.036-.131.232-.181.278-.351.15-.551-.161-.249-.212-.248-.383.012-.121.184-.198.207-.2.06-.002-.132.155-.332.347-.444.194-.113.239-.207.1-.21-.138-.003-.25-.101-.25-.218 0-.116.112-.144.25-.061.161.096.15.026-.032-.198-.222-.274-.318-.293-.447-.088-.132.208-.165.209-.168.003-.002-.141.134-.309.302-.374.18-.069.24-.21.146-.343-.088-.125-.149-.474-.135-.777.017-.38-.075-.551-.296-.553-.28-.003-.282-.028-.02-.197.254-.164.244-.194-.064-.197-.332-.003-.337-.031-.048-.319.277-.278.271-.684-.012-.684-.055 0-.053.075.003.167.057.091-.02.166-.171.166-.219 0-.21-.097.046-.488.275-.419.28-.512.033-.662-.158-.097-5.237-3.359-11.287-7.251l-11-7.077.067-2.277c.453-15.462-17.085-23.744-28.14-13.289-4.103 3.881-6.374 11.165-4.93 15.813.107.347-.386.71-3.636 2.678-2.069 1.252-10.853 6.583-19.521 11.848-8.668 5.265-15.851 9.572-15.963 9.572-.112 0-.49-.215-.84-.477-4.402-3.299-11.147-2.973-15.242.737l-1.205 1.092-20.028-12.826c-19.14-12.257-20.023-12.848-19.896-13.326.283-1.059.121-5.663-.246-7-2.308-8.402-10.041-13.684-18.42-12.581M95.467 187.7c0 .128.12.233.266.233.147 0 .267-.105.267-.233s-.12-.233-.267-.233c-.146 0-.266.105-.266.233M195.6 256.408c-12.435 3.199-16.843 18.532-8.011 27.865 10.324 10.909 28.639 3.515 28.667-11.573.021-10.906-10.214-18.978-20.656-16.292" fill="#b727f0"/><path d="M197.1 36.287c-8.893 1.755-14.084 10.632-11.191 19.139 4.077 11.986 20.794 13.251 26.555 2.008 5.515-10.761-3.703-23.449-15.364-21.147m-62.192 38.749c-9.792 1.317-15.452 11.943-11.114 20.864 4.445 9.14 16.547 11.004 23.554 3.628 9.42-9.917 1.092-26.313-12.44-24.492m126.54.773c-11.657 2.088-16.158 16.394-7.771 24.695 7.792 7.713 20.585 4.627 24.067-5.804 3.377-10.115-5.814-20.769-16.296-18.891M69.7 111.083c-14.89 3.455-15.673 23.77-1.093 28.348 10.537 3.309 21.084-7.155 18.032-17.891-2.087-7.342-9.812-12.112-16.939-10.457m254.6.024c-9.236 1.992-14.202 12.69-9.789 21.087 5.497 10.461 20.726 10.289 25.892-.294 5.34-10.937-4.27-23.346-16.103-20.793M182.854 125.4c0 .495.039.697.087.45a2.83 2.83 0 0 0 0-.9c-.048-.247-.087-.045-.087.45m-60.167 24.85-.587.65.65-.587c.358-.323.65-.616.65-.65 0-.155-.165-.019-.713.587m180.075 30.151c-.24.418-.249.532-.042.532.144 0 .207-.089.14-.197-.068-.111-.02-.135.109-.055.299.184.292.229-.083.605-.286.285-.281.314.05.317.308.003.318.033.064.197-.262.169-.26.194.02.197.221.002.313.173.296.553-.014.303.047.652.135.777.094.133.034.274-.146.343-.168.065-.304.233-.302.374.003.206.036.205.168-.003.129-.205.225-.186.447.088.182.224.193.294.032.198-.138-.083-.25-.055-.25.061 0 .117.112.215.25.218.139.003.094.097-.1.21-.192.112-.349.312-.347.444.002.147.079.124.2-.06.171-.26.222-.261.383-.012.128.2.082.37-.15.551-.308.24-.305.251.036.131.331-.115.357-.056.229.525-.097.44-.063.705.103.808.136.084.184.254.108.378-.077.124-.208.183-.292.131-.085-.052-.153.035-.153.194 0 .207.07.23.249.081.173-.144.293-.134.397.034.094.153.064.189-.082.098-.127-.078-.231-.055-.231.053 0 .107.108.231.24.275.187.062.187.113 0 .228-.132.082-.24.048-.24-.075s-.082-.173-.181-.112c-.242.15-.033.908.254.926.125.008.047.091-.173.186-.378.162-.374.173.062.186.254.008.42.082.368.165-.051.083 1.932 1.446 4.408 3.029 4.465 2.854 4.5 2.882 4.38 3.482-.289 1.443-.344 3.346-.136 4.738.122.825.244 1.662.27 1.861.036.273-.951.973-4.042 2.867-2.25 1.378-4.214 2.656-4.365 2.839-.151.183-.212.211-.135.062.093-.181-.051-.151-.435.09-.808.506-.841.551-.277.377.408-.126.46-.103.286.125-.117.154-.225.503-.24.776-.021.399.015.439.181.2.156-.223.176-.155.083.27-.094.43-.062.53.134.415.275-.161-.352.662-.799 1.049-.179.155-.197.274-.055.362.117.072.212.03.212-.093s.09-.168.2-.1c.11.068.2.013.2-.122 0-.134.052-.192.116-.129.064.064-.034.345-.217.625-.184.28-.279.596-.213.703.066.108.025.255-.092.327-.15.093-.148.21.006.396.159.192.158.302-.004.402-.123.076-.175.264-.116.418.059.154.014.28-.1.28-.119 0-.175.318-.132.75.042.421-.033.858-.17.997-.358.363-.199.959.245.918.355-.033.356-.02.027.222-.351.258-.481.719-.2.706.083-.003 3.3-1.928 7.15-4.278l7-4.271.9.677c11.613 8.733 27.399-2.533 22.734-16.225-3.241-9.51-15.168-13.01-22.811-6.695-1.246 1.03-.348 1.427-8.291-3.667l-6.964-4.465-.306.532m-212.927 5.35-6.215 3.885-1.431-1.204c-9.637-8.112-24.013-1.617-24.052 10.868-.039 12.522 13.481 19.014 23.767 11.411.379-.28.854-.01 7.6 4.318 3.958 2.539 7.331 4.659 7.496 4.712.267.086.267.073 0-.119-.184-.133-.208-.217-.062-.219.13-.002.224-.183.207-.403-.017-.22-.101-.4-.188-.4-.086 0-.157-.27-.157-.6 0-.33-.09-.6-.2-.6-.244 0-.176-.445.1-.647.113-.083.047-.148-.152-.15-.297-.003-.314-.063-.11-.39.133-.213.337-.334.452-.269.116.064.03-.065-.19-.288-.22-.223-.49-.354-.6-.292-.11.062-.076-.039.074-.226.151-.186.196-.339.1-.341-.095-.002-.039-.09.126-.197.2-.129.217-.195.05-.197-.137-.002-.25-.171-.25-.376s-.2-.628-.445-.939c-.361-.459-.38-.54-.1-.433.23.088.345.035.345-.161 0-.162-.095-.294-.212-.294-.12 0-.143-.109-.055-.25.191-.305.095-1.007-.16-1.166-.103-.064-.129-.266-.059-.449s.193-.292.274-.243c.08.05.145-.037.145-.192s-.059-.246-.131-.201c-.072.044-.264-.072-.427-.259-.163-.187-2.209-1.555-4.547-3.04-4.208-2.673-4.25-2.706-4.127-3.3.416-2.021.522-3.182.42-4.6l-.115-1.6 4.205-2.6c3.237-2.001 4.186-2.679 4.118-2.943-.078-.306.283-.827.489-.705.045.026-.081-.119-.281-.322-.2-.204-.308-.426-.239-.494.068-.069.213.008.322.17.153.227.186.18.145-.206-.029-.275.014-.606.094-.736.081-.13.056-.293-.056-.362a.467.467 0 0 1-.2-.364c.002-.143.081-.118.197.062.227.351.234.334.299-.654.026-.415-.026-.801-.117-.857-.09-.056-.117-.226-.059-.378.061-.159-.048-.316-.258-.37-.349-.09-.349-.096-.003-.118.209-.013.304-.116.226-.243-.098-.158-.026-.161.254-.011.392.21.515-.142.236-.673-.057-.108-.087-.399-.066-.646.021-.247.049-.63.063-.85.014-.231.173-.407.375-.416.211-.009.25-.056.099-.117-.138-.056-.201-.183-.138-.284.062-.101-.05-.184-.249-.186-.203-.002-.274-.068-.162-.15.303-.223.312-.58.014-.58-.145 0-3.06 1.748-6.479 3.884M96 187.7c0 .128-.12.233-.267.233-.146 0-.266-.105-.266-.233s.12-.233.266-.233c.147 0 .267.105.267.233m103.352 68.241c.249.048.609.046.8-.004.192-.05-.012-.089-.452-.087-.44.003-.596.044-.348.091M69.9 259.081c-9.341 1.813-14.455 11.939-10.412 20.619 5.099 10.95 20.748 11.07 26.119.2 5.299-10.724-4.027-23.085-15.707-20.819m254.8.001c-9.475 1.852-14.646 12.32-10.317 20.884 5.35 10.582 20.389 10.713 25.907.225 5.595-10.634-3.838-23.406-15.59-21.109M182.854 272.6c0 .495.039.698.087.45a2.83 2.83 0 0 0 0-.9c-.048-.247-.087-.045-.087.45m16.296 16.941c.248.048.653.048.9 0 .248-.048.045-.087-.45-.087s-.697.039-.45.087M135 295.596c-9.733 1.27-15.476 11.775-11.315 20.699 4.307 9.24 16.67 11.252 23.636 3.847 8.232-8.751 3.271-22.875-8.615-24.528-1.668-.233-2.048-.234-3.706-.018m126 .904c-9.378 1.891-14.359 12.216-10.077 20.889 4.383 8.876 16.282 10.729 23.277 3.625 10.019-10.176.78-27.334-13.2-24.514m-64.766 38.207c-6.339 1.376-11.088 7.46-11.078 14.193.018 12.675 15.12 19.35 24.288 10.736 10.901-10.243 1.433-28.108-13.21-24.929" fill="#7849e3"/><path d="M0 200v200h400V0H0v200M204.1 36.667c12.439 4.067 13.713 21.363 2 27.14-9.473 4.672-20.515-1.847-21.047-12.426-.514-10.205 9.405-17.867 19.047-14.714m-62.8 38.818c11.081 3.726 13.763 17.985 4.776 25.398-8.119 6.698-20.686 2.576-23.424-7.683-2.917-10.933 7.993-21.297 18.648-17.715m126.175.509c11.762 3.008 14.957 18.634 5.295 25.897-9.778 7.35-23.459.532-23.459-11.691 0-9.565 8.949-16.563 18.164-14.206m-63.686 33.034c10.971 2.771 16.195 16.021 10.024 25.425-7.295 11.118-23.316 10.259-29.224-1.567-6.408-12.826 5.297-27.37 19.2-23.858m-127.4 2.199c10.914 2.884 14.471 16.511 6.414 24.578-9.405 9.418-25.341 2.288-24.754-11.075a14.547 14.547 0 0 1 18.34-13.503m254.8 0c10.914 2.884 14.471 16.511 6.414 24.578-9.405 9.418-25.341 2.288-24.754-11.075a14.547 14.547 0 0 1 18.34-13.503M139.8 145.977c7.879 2.652 12.879 10.771 11.532 18.723l-.136.8 19.919 12.758 19.919 12.758.802-.725c4.443-4.014 11.324-4.44 15.858-.982l.676.516 19.518-11.863 19.518-11.862-.153-1.2c-1.419-11.119 6.554-20.106 17.434-19.65 9.959.418 17.548 9.804 15.879 19.64-.054.321 3.2 2.487 18.285 12.168l18.35 11.778.965-.807c11.919-9.979 29.167 3.889 22.298 17.928-4.235 8.656-14.305 10.68-22.74 4.572-.501-.363-37.327 22.292-37.177 22.871.758 2.921-.418 8.54-2.455 11.727-9.088 14.221-30.741 7.844-30.986-9.125l-.039-2.698-3.284-2.108-19.14-12.276-15.857-10.168-1.186.832c-4.225 2.963-9.313 3.15-13.709.502-1.464-.882 1.459-2.443-21.363 11.414-16.373 9.942-19.088 11.655-18.992 11.985.587 2.002-.154 6.972-1.445 9.697-7.577 15.993-30.909 11.245-32.059-6.524l-.132-2.041-18.6-11.932c-10.23-6.563-18.695-11.97-18.811-12.015-.116-.046-.896.374-1.734.932-11.489 7.651-26.358-3.593-22.087-16.702 3.348-10.273 16.947-13.601 24.215-5.925l.584.616.716-.436c.394-.24 8.333-5.185 17.642-10.99l16.924-10.553-.382-1.356c-2.622-9.29 3.718-19.023 13.633-20.93 1.724-.331 5.922.019 7.8.651m135.897 28.033c-6.326 6.432-16.125 6.617-23.249.438l-1.252-1.085-19.242 11.697-19.241 11.698.038 2.442.039 2.443 18.794 12.053 18.794 12.053 1.771-1.724c6.661-6.484 16.909-6.479 23.516.011l1.379 1.355 18.028-10.969 18.028-10.968-.097-.877c-.143-1.286-.124-5.381.028-6.077l.132-.6-17.873-11.453c-9.83-6.299-17.99-11.498-18.134-11.553-.144-.056-.8.447-1.459 1.116m-129.714.448c-5.624 5.348-14.231 5.983-20.791 1.535-.609-.413-1.228-.895-1.375-1.072-.461-.556-.483-.544-18.779 10.868L87.1 196.978l.062 2.075c.04 1.315-.043 2.534-.226 3.324l-.288 1.247 1.226.78c.674.429 8.786 5.637 18.026 11.573l16.8 10.794.499-.635c6.776-8.625 19.406-9.307 26.158-1.414l.743.868 19-11.554c18.493-11.246 18.999-11.57 18.974-12.145-.088-2.015-.257-3.156-.498-3.376-.477-.434-39.709-25.515-39.897-25.507-.098.005-.861.657-1.696 1.45m58.093 81.922c12.412 3.667 16.489 18.841 7.547 28.088-10.224 10.572-27.976 3.8-28.761-10.972-.601-11.316 10.508-20.279 21.214-17.116m-127.077 3.019c16.494 5.619 11.324 30.667-5.914 28.65-14.762-1.727-17.983-21.996-4.454-28.022 1.111-.495 1.739-.696 3.469-1.11 1.111-.265 5.631.05 6.899.482m254.8 0c16.494 5.619 11.324 30.667-5.914 28.65-14.762-1.727-17.983-21.996-4.454-28.022 1.111-.495 1.739-.696 3.469-1.11 1.111-.265 5.631.05 6.899.482M141.3 296.085c9.844 3.31 13.385 15.249 6.898 23.26-8.732 10.783-25.941 4.503-25.882-9.445.041-9.83 9.774-16.912 18.984-13.815m124.756.204c9.359 1.031 15.238 12.104 11.05 20.811-5.366 11.158-21.121 11.158-26.428 0-4.297-9.035 1.603-19.756 11.484-20.868 1.497-.169 1.901-.163 3.894.057M203.7 334.805c10.809 3.405 14.134 16.539 6.2 24.491-9.464 9.486-25.565 2.236-24.846-11.188.501-9.342 9.91-16.055 18.646-13.303" fill="#0c143c"/><path d="M249.26 90.2c0 .605.037.853.083.55a4.401 4.401 0 0 0 0-1.1c-.046-.302-.083-.055-.083.55m-102.271 9.75-.689.75.75-.689c.698-.642.842-.811.689-.811-.033 0-.371.338-.75.75m106.511.65c.43.44.826.8.881.8.055 0-.251-.36-.681-.8-.43-.44-.826-.8-.881-.8-.055 0 .251.36.681.8m-42.2 12.8c.43.44.826.8.881.8.055 0-.251-.36-.681-.8-.43-.44-.826-.8-.881-.8-.055 0 .251.36.681.8m.1 23.9c-.486.495-.838.9-.783.9.055 0 .497-.405.983-.9s.838-.9.783-.9c-.055 0-.497.405-.983.9m64.192 12.75c.828.883 1.008 1.042 1.008.892 0-.032-.427-.46-.95-.95l-.95-.892.892.95m-129.192.05c.373.385.723.7.778.7.055 0-.205-.315-.578-.7-.373-.385-.723-.7-.778-.7-.055 0 .205.315.578.7M117.864 162c0 .715.036 1.008.081.65a6.418 6.418 0 0 0 0-1.3c-.045-.357-.081-.065-.081.65m129.193.1c.002.55.041.751.087.447a3.627 3.627 0 0 0-.003-1c-.048-.246-.085.003-.084.553M134.15 178.941c.248.048.653.048.9 0s.045-.087-.45-.087-.697.039-.45.087m129.303.003c.304.045.754.044 1-.003.246-.048-.003-.085-.553-.084-.55.002-.751.041-.447.087m-71.966 11.706-.587.65.65-.587c.358-.323.65-.616.65-.65 0-.155-.165-.019-.713.587m8.563 21.288c.193.05.508.05.7 0 .192-.05.035-.092-.35-.092s-.542.042-.35.092m51.842 12.312-.992 1.05 1.05-.992c.578-.546 1.05-1.019 1.05-1.05 0-.15-.185.016-1.108.992m23.708-.15c.373.385.723.7.778.7.055 0-.205-.315-.578-.7-.373-.385-.723-.7-.778-.7-.055 0 .205.315.578.7m-155.554 11.1c0 .385.042.543.092.35.05-.193.05-.507 0-.7-.05-.193-.092-.035-.092.35m127.011.9c.002.55.041.751.087.447a3.627 3.627 0 0 0-.003-1c-.048-.246-.085.003-.084.553m-127.011.7c0 .385.042.543.092.35.05-.193.05-.507 0-.7-.05-.193-.092-.035-.092.35M125 248.1c.373.385.723.7.778.7.055 0-.205-.315-.578-.7-.373-.385-.723-.7-.778-.7-.055 0 .205.315.578.7m11.15 4.845c.358.044.943.044 1.3 0 .358-.045.065-.081-.65-.081-.715 0-1.008.036-.65.081m127.204 0c.359.044.899.044 1.2-.002.3-.046.006-.082-.654-.081-.66.001-.906.038-.546.083M249.26 310.8c0 .605.037.853.083.55a4.401 4.401 0 0 0 0-1.1c-.046-.303-.083-.055-.083.55m-50.11 23.541c.248.048.653.048.9 0 .248-.048.045-.087-.45-.087s-.697.039-.45.087" fill="#591e8f"/><path d="m189.291 40.25-.791.85.85-.791c.467-.434.85-.817.85-.85 0-.151-.174.001-.909.791m20.596 20.8-.587.65.65-.587c.358-.323.65-.616.65-.65 0-.155-.165-.019-.713.587m-11.437 4.288c.193.05.508.05.7 0 .193-.05.035-.092-.35-.092s-.542.042-.35.092m1.6 0c.193.05.508.05.7 0 .192-.05.035-.092-.35-.092s-.542.042-.35.092m53.437 14.512-.587.65.65-.587c.606-.548.742-.713.587-.713-.034 0-.327.293-.65.65M151.446 89.6c0 .385.042.542.092.35.05-.192.05-.508 0-.7-.05-.192-.092-.035-.092.35m127.016.7c.001.66.038.906.083.546a5.338 5.338 0 0 0-.002-1.2c-.046-.3-.082-.006-.081.654m-79.11 18.241c.249.048.609.046.8-.004.192-.05-.012-.089-.452-.087-.44.003-.596.044-.348.091M72.25 110.738c.192.05.508.05.7 0 .192-.05.035-.092-.35-.092s-.542.042-.35.092m254.8 0c.193.05.508.05.7 0 .193-.05.035-.092-.35-.092s-.542.042-.35.092m-254.9 29.403c.248.048.652.048.9 0 .247-.048.045-.087-.45-.087s-.697.039-.45.087m254.8 0c.247.048.653.048.9 0 .248-.048.045-.087-.45-.087s-.697.039-.45.087m-127.8 2.2c.248.048.653.048.9 0 .248-.048.045-.087-.45-.087s-.697.039-.45.087m81.512 19.759c.001.66.038.906.083.546a5.338 5.338 0 0 0-.002-1.2c-.046-.3-.082-.006-.081.654m-129.212 0c.003.44.044.596.091.348.048-.249.046-.609-.004-.8-.05-.192-.089.012-.087.452m100.35 11.8c.373.385.723.7.778.7.055 0-.205-.315-.578-.7-.373-.385-.723-.7-.778-.7-.055 0 .205.315.578.7M72.05 214.143c.303.046.798.046 1.1 0 .303-.046.055-.083-.55-.083-.605 0-.852.037-.55.083m254.8 0c.303.046.798.046 1.1 0 .303-.046.055-.083-.55-.083-.605 0-.852.037-.55.083M280.662 236.1c.001.66.038.906.083.546a5.338 5.338 0 0 0-.002-1.2c-.046-.3-.082-.006-.081.654M71.95 288.145c.358.044.942.044 1.3 0 .358-.045.065-.081-.65-.081-.715 0-1.007.036-.65.081m254.8 0c.358.044.943.044 1.3 0 .358-.045.065-.081-.65-.081-.715 0-1.007.036-.65.081M151.446 310.2c0 .385.042.543.092.35.05-.192.05-.507 0-.7-.05-.192-.092-.035-.092.35m127.016.7c.001.66.038.906.083.546a5.338 5.338 0 0 0-.002-1.2c-.046-.3-.082-.006-.081.654M147 320.5c-.486.495-.838.9-.783.9.055 0 .497-.405.983-.9s.838-.9.783-.9c-.055 0-.497.405-.983.9m106.392.55c.828.883 1.008 1.042 1.008.892 0-.032-.428-.46-.95-.95l-.95-.892.892.95m20.695.2-.587.65.65-.587c.606-.548.742-.713.587-.713-.034 0-.327.293-.65.65m-10.837 4.293c.303.046.798.046 1.1 0 .303-.046.055-.083-.55-.083-.605 0-.853.037-.55.083M209.9 338.6c.43.44.826.8.881.8.055 0-.251-.36-.681-.8-.43-.44-.826-.8-.881-.8-.055 0 .251.36.681.8m-20.7 20.7c.373.385.723.7.778.7.055 0-.205-.315-.578-.7-.373-.385-.723-.7-.778-.7-.055 0 .205.315.578.7" fill="#3a2a82"/></g></svg>