<svg width="39" height="39" viewBox="0 0 39 39" fill="none" xmlns="http://www.w3.org/2000/svg">
<circle cx="16" cy="16" r="15.5" stroke="#50AF95"/>
<path fill-rule="evenodd" clip-rule="evenodd" d="M17.7531 16.5546C17.6552 16.5614 17.1493 16.5895 16.021 16.5895C15.1235 16.5895 14.4863 16.5645 14.2627 16.5546C10.7944 16.4126 8.20555 15.8508 8.20555 15.1781C8.20555 14.5054 10.7944 13.9444 14.2627 13.8001V15.995C14.4895 16.0102 15.139 16.0459 16.0365 16.0459C17.1134 16.0459 17.6527 16.0041 17.7498 15.9958V13.8016C21.2108 13.9451 23.7939 14.507 23.7939 15.1781C23.7939 15.8493 21.2116 16.4111 17.7498 16.5538L17.7531 16.5546ZM17.7531 13.5746V11.6105H22.5832V8.61536H9.43265V11.6105H14.2619V13.5739C10.3367 13.7417 7.38477 14.4652 7.38477 15.3322C7.38477 16.1993 10.3367 16.9221 14.2619 17.0906V23.3846H17.7523V17.0883C21.6685 16.9205 24.6155 16.1978 24.6155 15.3315C24.6155 14.4652 21.671 13.7424 17.7523 13.5739L17.7531 13.5746Z" fill="#50AF95"/>
<defs>
<linearGradient id="#50AF95" x1="16" y1="0" x2="16" y2="32" gradientUnits="userSpaceOnUse">
<stop stop-color="#00FFB9"/>
<stop offset="1" stop-color="#50AF95"/>
</linearGradient>
<linearGradient id="#50AF95" x1="16.0002" y1="8.61536" x2="16.0002" y2="23.3846" gradientUnits="userSpaceOnUse">
<stop stop-color="#00FFB9"/>
<stop offset="1" stop-color="#50AF95"/>
</linearGradient>
</defs>
</svg>
