<svg width="15" height="16" fill="none" xmlns="http://www.w3.org/2000/svg"><path d="M5.833 7.25h1.973l-2.79 3.263c-.413.487-.068 1.237.57 1.237h3.247c.413 0 .75-.337.75-.75a.752.752 0 0 0-.75-.75H6.861l2.79-3.262c.412-.488.067-1.238-.57-1.238H5.833a.752.752 0 0 0-.75.75c0 .413.338.75.75.75Zm8.475-3.435a.756.756 0 0 1-1.057.098l-2.303-1.92a.75.75 0 0 1-.09-1.058.756.756 0 0 1 1.058-.097l2.302 1.92a.75.75 0 0 1 .09 1.057Zm-13.95 0a.741.741 0 0 0 1.05.098l2.303-1.92A.744.744 0 0 0 3.808.935a.741.741 0 0 0-1.05-.097l-2.31 1.92a.75.75 0 0 0-.09 1.057ZM7.333 3.5a5.256 5.256 0 0 1 5.25 5.25A5.256 5.256 0 0 1 7.333 14a5.256 5.256 0 0 1-5.25-5.25 5.256 5.256 0 0 1 5.25-5.25Zm0-1.5a6.75 6.75 0 1 0 .001 13.501 6.75 6.75 0 0 0 0-13.5Z" fill="#fff"/></svg>