<svg width="26" height="26" viewBox="0 0 26 26" fill="none" xmlns="http://www.w3.org/2000/svg">
<mask id="mask0_502_62" style="mask-type:alpha" maskUnits="userSpaceOnUse" x="0" y="0" width="26" height="26">
<circle cx="13" cy="13" r="13" fill="#708B96"/>
</mask>
<g mask="url(#mask0_502_62)">
<circle cx="13" cy="13" r="13" fill="url(#paint0_linear_502_62)"/>
<path fill-rule="evenodd" clip-rule="evenodd" d="M0.619863 16.9778C0.217352 15.7241 0 14.3874 0 13C0 5.8203 5.8203 0 13 0C20.1797 0 26 5.8203 26 13C26 18.3135 22.8121 22.8825 18.2446 24.8987C18.2931 25.0201 18.3392 25.1449 18.3824 25.2732C18.5295 25.7102 18.4209 25.7187 17.304 25.8057C16.6225 25.8588 15.5656 25.9412 13.9624 26.168C13.9624 26.168 7.32966 25.7658 7.32966 25.3971C7.32966 25.3971 1.58082 22.0382 -0.239809 19.1883C-0.338223 19.052 -0.409078 18.9588 -0.460463 18.8912C-0.56616 18.7522 -0.58948 18.7215 -0.600826 18.6468C-0.600826 18.6468 -0.948269 17.9968 -0.948269 17.9247C-0.948269 16.8665 -0.0351091 16.8175 0.619863 16.9778ZM16.8262 22.6736C16.6341 22.4712 16.4459 22.2991 16.2718 22.1572L17.0926 20.8906C17.0926 20.8906 13.331 20.1306 12.8258 19.8849C10.237 19.054 10.3001 16.2674 10.3001 16.2674C10.3001 16.2674 10.7421 17.604 11.6893 18.294C12.6364 18.984 13.3941 19.054 13.9624 19.054C14.5307 19.054 15.3515 18.864 15.9198 18.484C16.3618 18.864 16.9932 19.3706 18.3824 19.434C19.7715 19.4973 20.5023 17.2174 20.5023 17.2174C19.05 16.6474 19.2395 15.3808 19.2395 15.3808C19.5552 16.3308 20.2492 16.5629 20.6709 16.5983C20.7328 16.5983 20.747 16.5486 20.7544 16.5223L20.7549 16.5207C20.7867 16.4091 20.8367 16.2821 20.8827 16.1654C20.9317 16.041 20.976 15.9283 20.9889 15.8583C21.0357 15.6037 20.9321 15.3403 20.7225 15.187L17.2189 13.2275C17.1567 13.1819 17.465 12.7736 17.6533 12.5242C17.7212 12.4343 17.7735 12.3651 17.7872 12.3409C17.7872 12.3409 17.4715 11.8343 16.9663 11.2643C16.4612 10.6943 15.7304 10.1243 15.7304 10.1243C12.9521 12.1345 10.7421 9.87101 10.7421 9.87101C12.447 10.857 13.9133 10.3777 15.0358 9.74435C15.4534 9.50875 15.9848 9.43607 16.559 9.35753C17.5283 9.22494 18.6197 9.07565 19.492 8.09775C20.3711 7.11237 20.5702 6.47684 20.6154 5.91714C22.3432 7.77399 23.4 10.2636 23.4 13C23.4 17.3927 20.6766 21.1493 16.8262 22.6736ZM19.5575 4.92743C18.995 5.58816 18.0783 6.26115 16.6776 6.26115H14.5307C10.6789 6.36699 9.91355 7.62262 9.61862 8.10644C9.56061 8.20161 9.5208 8.26692 9.47928 8.28774C9.47928 8.28774 8.34273 8.31008 7.01672 8.85772C5.80431 9.35843 4.12233 10.1612 2.63139 12.1859C3.04665 6.82265 7.5302 2.6 13 2.6C15.486 2.6 17.7683 3.47226 19.5575 4.92743Z" fill="black"/>
<path d="M13.636 13.785C12.8176 13.275 12.973 12.51 13.1094 12C13.1094 12 13.636 12.17 14.1816 12.765C14.7272 13.36 15 13.87 15 13.87C14.1134 14.04 14.0989 14.0735 13.636 13.785Z" fill="white"/>
</g>
<defs>
<linearGradient id="paint0_linear_502_62" x1="19.708" y1="24.388" x2="6.5188" y2="4.09317" gradientUnits="userSpaceOnUse">
<stop stop-color="#002EFF"/>
<stop offset="1" stop-color="#22E1FF"/>
</linearGradient>
</defs>
</svg>
