<svg id="svg" version="1.1" xmlns="http://www.w3.org/2000/svg" xmlns:xlink="http://www.w3.org/1999/xlink" width="400" height="400" viewBox="0, 0, 400,400"><g id="svgg"><path id="path0" d="M142.577 84.836 C 142.428 85.078,142.440 97.499,142.603 112.438 L 142.901 139.600 156.436 139.600 C 169.409 139.600,169.989 139.632,170.386 140.374 C 170.647 140.862,170.800 146.022,170.800 154.376 L 170.800 167.606 198.100 167.503 L 225.400 167.400 225.505 154.034 C 225.576 145.066,225.755 140.495,226.050 140.140 C 226.395 139.724,229.374 139.588,239.945 139.505 L 253.400 139.400 253.400 112.000 L 253.400 84.600 198.124 84.499 C 158.312 84.426,142.773 84.520,142.577 84.836 M83.300 140.680 L 82.400 140.856 82.400 197.978 C 82.400 229.395,82.513 255.665,82.651 256.355 L 82.902 257.610 97.151 257.505 L 111.400 257.400 111.400 199.000 L 111.400 140.600 97.800 140.552 C 90.320 140.525,83.795 140.583,83.300 140.680 M285.067 140.667 C 284.920 140.813,284.800 167.186,284.800 199.272 L 284.800 257.610 299.100 257.505 L 313.400 257.400 313.501 199.150 L 313.603 140.901 312.351 140.650 C 310.668 140.314,285.405 140.329,285.067 140.667 M142.707 240.900 C 142.595 279.455,142.626 311.136,142.774 311.301 C 142.922 311.467,167.873 311.557,198.221 311.501 L 253.400 311.400 253.501 241.100 L 253.602 170.800 241.201 170.800 L 228.800 170.800 228.800 185.000 C 228.800 198.667,228.770 199.230,228.000 200.000 C 227.078 200.922,170.064 201.291,168.374 200.386 C 167.630 199.988,167.600 199.397,167.600 185.386 L 167.600 170.800 155.254 170.800 L 142.909 170.800 142.707 240.900 " stroke="none" fill="#fcdc54" fill-rule="evenodd"></path><path id="path1" d="M142.480 58.480 C 142.128 58.832,142.000 62.187,142.000 71.080 L 142.000 83.200 198.000 83.200 L 254.000 83.200 254.000 70.843 C 254.000 59.944,253.925 58.457,253.367 58.243 C 252.051 57.738,142.989 57.971,142.480 58.480 M113.200 84.600 C 113.200 84.930,112.930 85.200,112.600 85.200 C 112.079 85.200,112.000 86.956,112.000 98.600 L 112.000 112.000 98.600 112.000 C 86.956 112.000,85.200 112.079,85.200 112.600 C 85.200 112.930,84.930 113.200,84.600 113.200 C 84.079 113.200,84.000 114.911,84.000 126.200 L 84.000 139.200 98.000 139.200 L 112.000 139.200 112.000 125.600 L 112.000 112.000 126.600 112.000 L 141.200 112.000 141.200 99.400 L 141.200 86.800 140.200 86.800 C 139.400 86.800,139.200 86.600,139.200 85.800 C 139.200 85.000,139.400 84.800,140.200 84.800 C 140.750 84.800,141.200 84.620,141.200 84.400 C 141.200 84.141,136.267 84.000,127.200 84.000 C 115.022 84.000,113.200 84.078,113.200 84.600 M255.200 98.000 L 255.200 112.000 269.600 112.000 L 284.000 112.000 284.000 125.600 L 284.000 139.200 298.000 139.200 L 312.000 139.200 312.000 126.200 C 312.000 113.536,311.980 113.200,311.213 113.200 C 310.680 113.200,310.499 113.007,310.653 112.605 C 310.852 112.088,309.152 111.997,297.541 111.905 L 284.200 111.800 284.095 98.500 C 284.028 90.092,283.844 85.200,283.595 85.200 C 283.378 85.200,283.200 85.380,283.200 85.600 C 283.200 85.820,283.050 86.000,282.867 86.000 C 282.683 86.000,282.533 85.738,282.533 85.418 C 282.533 85.097,282.683 84.928,282.867 85.041 C 283.050 85.155,283.200 84.967,283.200 84.624 C 283.200 84.071,281.613 84.000,269.200 84.000 L 255.200 84.000 255.200 98.000 M57.200 140.600 C 57.200 140.930,56.930 141.200,56.600 141.200 C 56.070 141.200,56.000 147.731,56.000 197.576 C 56.000 234.729,55.864 254.037,55.600 254.200 C 54.344 254.976,55.192 256.760,56.700 256.514 C 57.525 256.379,63.375 256.201,69.700 256.117 L 81.200 255.965 81.200 197.983 L 81.200 140.000 69.200 140.000 C 58.800 140.000,57.200 140.080,57.200 140.600 M314.800 145.600 L 314.800 151.200 315.800 151.200 L 316.800 151.200 316.800 201.000 L 316.800 250.800 315.800 250.800 C 314.836 250.800,314.800 250.893,314.800 253.400 L 314.800 256.000 326.800 256.000 C 338.402 256.000,339.349 255.909,338.327 254.887 C 338.066 254.626,337.979 254.287,338.133 254.133 C 338.287 253.979,338.626 254.066,338.887 254.327 C 339.147 254.587,339.504 254.800,339.680 254.800 C 339.856 254.800,340.000 229.240,340.000 198.000 C 340.000 141.769,339.992 141.200,339.213 141.200 C 338.677 141.200,338.499 141.008,338.655 140.600 C 338.857 140.075,337.383 140.000,326.843 140.000 L 314.800 140.000 314.800 145.600 M84.001 265.100 C 84.003 273.722,84.451 282.815,84.862 282.562 C 85.048 282.447,85.200 282.610,85.200 282.924 C 85.200 283.835,87.369 283.991,100.100 283.996 L 112.000 284.000 112.000 297.443 C 112.000 309.228,112.074 310.857,112.600 310.655 C 113.008 310.499,113.200 310.677,113.200 311.213 C 113.200 311.981,113.541 312.000,127.200 312.000 L 141.200 312.000 141.200 298.000 L 141.200 284.000 126.600 284.000 L 112.000 284.000 112.000 271.400 L 112.000 258.800 98.000 258.800 L 84.000 258.800 84.001 265.100 M284.000 271.400 L 284.000 284.000 269.600 284.000 L 255.200 284.000 255.200 291.600 L 255.200 299.200 257.200 299.200 L 259.200 299.200 259.200 302.000 L 259.200 304.800 257.200 304.800 L 255.200 304.800 255.200 308.400 L 255.200 312.000 269.200 312.000 C 281.378 312.000,283.200 311.922,283.200 311.400 C 283.200 311.070,282.998 310.845,282.750 310.900 C 282.047 311.056,281.893 310.127,282.578 309.864 C 282.915 309.734,283.148 309.825,283.095 310.064 C 283.043 310.304,283.225 310.583,283.500 310.683 C 283.894 310.828,284.000 308.011,284.000 297.433 L 284.000 284.000 297.400 284.000 C 304.770 284.000,310.800 283.856,310.800 283.680 C 310.800 283.504,310.587 283.147,310.327 282.887 C 309.694 282.254,310.232 281.763,310.927 282.340 C 311.897 283.144,311.956 282.487,311.988 270.555 L 312.020 258.800 298.010 258.800 L 284.000 258.800 284.000 271.400 M142.000 324.951 C 142.000 334.694,142.108 337.191,142.543 337.552 C 142.941 337.883,157.863 337.976,198.443 337.901 L 253.800 337.800 253.906 325.300 L 254.011 312.800 198.006 312.800 L 142.000 312.800 142.000 324.951 M176.800 315.000 L 176.800 316.800 175.000 316.800 L 173.200 316.800 173.200 315.000 L 173.200 313.200 175.000 313.200 L 176.800 313.200 176.800 315.000 " stroke="none" fill="#9494fc" fill-rule="evenodd"></path><path id="path2" d="M141.316 84.000 C 141.181 84.518,140.770 84.800,140.153 84.800 C 139.403 84.800,139.200 85.013,139.200 85.800 C 139.200 86.581,139.404 86.800,140.135 86.800 L 141.069 86.800 141.334 106.300 C 141.480 117.025,141.599 128.989,141.600 132.886 C 141.600 139.482,141.653 140.000,142.374 140.386 C 142.862 140.647,148.021 140.800,156.374 140.800 L 169.600 140.800 169.600 154.386 C 169.600 167.409,169.632 167.989,170.374 168.386 C 171.957 169.233,225.359 168.929,226.138 168.069 C 226.726 167.419,226.800 165.854,226.800 154.069 L 226.800 140.800 240.138 140.800 C 252.338 140.800,253.529 140.740,254.097 140.100 C 254.944 139.145,255.625 84.794,254.802 83.802 C 253.899 82.714,141.601 82.909,141.316 84.000 M253.626 84.014 C 254.797 84.641,254.844 138.674,253.675 139.732 C 253.038 140.308,251.331 140.402,239.775 140.494 L 226.600 140.600 226.494 153.775 C 226.402 165.331,226.308 167.038,225.732 167.675 C 224.862 168.637,171.248 168.822,170.454 167.866 C 170.154 167.504,169.977 163.015,169.905 153.966 L 169.800 140.600 156.434 140.495 C 148.207 140.430,142.882 140.234,142.583 139.986 C 141.673 139.230,141.314 85.379,142.213 84.386 C 143.037 83.475,251.941 83.112,253.626 84.014 M82.400 139.558 L 81.400 139.836 81.400 198.750 C 81.400 256.607,81.414 257.675,82.176 258.232 C 82.814 258.698,85.586 258.800,97.630 258.800 L 112.307 258.800 112.548 257.900 C 112.863 256.724,112.863 141.276,112.548 140.100 L 112.307 139.200 97.853 139.240 C 89.904 139.262,82.950 139.405,82.400 139.558 M283.867 139.467 C 283.720 139.613,283.600 166.523,283.600 199.267 L 283.600 258.800 298.538 258.800 C 316.143 258.800,314.800 259.191,314.800 254.069 C 314.800 250.849,314.815 250.800,315.800 250.800 L 316.800 250.800 316.800 201.000 L 316.800 151.200 315.800 151.200 L 314.800 151.200 314.800 145.452 L 314.800 139.705 313.300 139.457 C 311.271 139.121,284.203 139.131,283.867 139.467 M111.669 140.262 C 112.608 141.112,112.835 256.453,111.900 257.729 C 111.442 258.354,110.183 258.403,97.012 258.306 L 82.623 258.200 82.118 257.200 C 81.380 255.741,81.362 141.091,82.100 140.492 C 83.011 139.753,84.098 139.693,97.569 139.646 C 109.488 139.605,111.016 139.672,111.669 140.262 M313.739 140.349 C 314.758 141.196,314.757 256.542,313.738 257.669 C 312.910 258.584,285.380 258.820,284.480 257.920 C 283.770 257.210,283.784 140.776,284.494 140.066 C 285.246 139.314,312.814 139.581,313.739 140.349 M141.872 169.900 C 141.776 170.065,141.630 202.240,141.549 241.400 L 141.400 312.600 198.200 312.600 L 255.000 312.600 255.114 308.700 L 255.229 304.800 257.214 304.800 L 259.200 304.800 259.200 302.000 L 259.200 299.200 257.264 299.200 L 255.329 299.200 255.065 287.500 C 254.920 281.065,254.801 252.209,254.801 223.376 C 254.800 182.069,254.694 170.808,254.300 170.270 C 253.844 169.647,252.667 169.597,240.800 169.694 L 227.800 169.800 227.600 184.600 L 227.400 199.400 198.100 199.503 L 168.800 199.605 168.800 185.376 C 168.800 176.333,168.649 170.865,168.386 170.374 C 167.955 169.569,142.332 169.111,141.872 169.900 M167.946 170.535 C 168.248 170.899,168.423 175.646,168.495 185.435 L 168.600 199.800 197.756 199.903 C 218.962 199.977,227.060 199.882,227.456 199.554 C 227.896 199.188,228.000 196.409,228.000 185.031 C 228.000 174.620,228.125 170.835,228.480 170.480 C 228.832 170.128,232.213 170.000,241.200 170.000 C 250.187 170.000,253.568 170.128,253.920 170.480 C 254.618 171.178,254.618 311.222,253.920 311.920 C 253.089 312.751,142.553 312.602,142.087 311.770 C 141.578 310.861,141.983 171.139,142.496 170.500 C 143.101 169.747,167.320 169.780,167.946 170.535 M338.060 254.380 C 338.148 254.644,338.351 254.847,338.510 254.830 C 338.988 254.781,338.896 254.232,338.380 254.060 C 338.116 253.972,337.972 254.116,338.060 254.380 M310.060 282.380 C 310.148 282.644,310.351 282.847,310.510 282.830 C 310.988 282.781,310.896 282.232,310.380 282.060 C 310.116 281.972,309.972 282.116,310.060 282.380 M282.403 309.989 C 281.928 310.290,281.908 310.468,282.303 310.863 C 282.577 311.137,282.814 311.279,282.831 311.180 C 282.847 311.081,282.922 310.685,282.995 310.300 C 283.151 309.488,283.176 309.501,282.403 309.989 M173.200 315.000 L 173.200 316.800 175.000 316.800 L 176.800 316.800 176.800 315.000 L 176.800 313.200 175.000 313.200 L 173.200 313.200 173.200 315.000 " stroke="none" fill="#9494f4" fill-rule="evenodd"></path><path id="path3" d="M143.200 28.200 C 143.200 29.000,143.000 29.200,142.200 29.200 L 141.200 29.200 141.200 43.200 L 141.200 57.200 127.200 57.200 L 113.200 57.200 113.200 70.600 L 113.200 84.000 127.120 84.000 C 137.413 84.000,141.165 83.875,141.520 83.520 C 141.872 83.168,142.000 79.831,142.000 71.000 C 142.000 62.169,142.128 58.832,142.480 58.480 C 142.989 57.971,252.051 57.738,253.367 58.243 C 253.925 58.457,254.000 59.937,254.000 70.763 C 254.000 79.778,254.128 83.168,254.480 83.520 C 254.835 83.875,258.631 84.000,269.080 84.000 L 283.200 84.000 283.200 70.600 L 283.200 57.200 269.200 57.200 L 255.200 57.200 255.200 43.200 L 255.200 29.200 254.000 29.200 C 252.987 29.200,252.800 29.044,252.800 28.200 L 252.800 27.200 198.000 27.200 L 143.200 27.200 143.200 28.200 M85.200 98.600 L 85.200 112.000 98.585 112.000 L 111.970 112.000 112.199 126.100 C 112.498 144.483,112.498 253.972,112.199 270.929 L 111.968 284.057 98.584 283.929 L 85.199 283.800 85.200 297.300 L 85.200 310.800 98.600 310.800 L 112.000 310.800 112.000 297.400 L 112.000 284.000 126.600 284.000 C 134.630 284.000,141.243 283.955,141.297 283.900 C 141.350 283.845,141.485 258.150,141.597 226.800 L 141.800 169.800 154.800 169.694 C 166.667 169.597,167.844 169.647,168.300 170.270 C 168.678 170.786,168.800 174.449,168.800 185.279 L 168.800 199.605 198.100 199.503 L 227.400 199.400 227.600 184.600 L 227.800 169.800 240.774 169.694 C 249.546 169.623,253.887 169.727,254.174 170.014 C 254.469 170.309,254.661 187.844,254.800 227.120 L 255.000 283.800 269.500 283.905 L 284.000 284.010 284.000 297.405 L 284.000 310.800 297.400 310.800 L 310.800 310.800 310.800 297.400 L 310.800 284.000 297.448 284.000 L 284.096 284.000 283.793 258.500 C 283.626 244.475,283.583 205.773,283.696 172.495 L 283.902 111.990 269.451 112.095 L 255.000 112.200 254.895 125.774 C 254.802 137.704,254.710 139.437,254.133 140.074 C 253.523 140.748,252.512 140.800,240.138 140.800 L 226.800 140.800 226.800 154.138 C 226.800 166.552,226.749 167.522,226.069 168.138 C 225.186 168.936,171.846 169.174,170.374 168.386 C 169.632 167.989,169.600 167.409,169.600 154.386 L 169.600 140.800 156.374 140.800 C 148.021 140.800,142.862 140.647,142.374 140.386 C 141.632 139.989,141.600 139.411,141.600 126.619 C 141.600 119.274,141.491 112.981,141.357 112.633 C 141.142 112.072,139.462 112.000,126.557 112.000 L 112.000 112.000 112.000 98.600 L 112.000 85.200 98.600 85.200 L 85.200 85.200 85.200 98.600 M284.095 98.500 L 284.200 111.800 297.500 111.905 L 310.800 112.011 310.800 98.605 L 310.800 85.200 297.395 85.200 L 283.989 85.200 284.095 98.500 M57.200 126.600 L 57.200 140.000 69.100 139.998 C 76.115 139.996,81.616 139.825,82.500 139.579 L 84.000 139.162 84.000 126.181 L 84.000 113.200 70.600 113.200 L 57.200 113.200 57.200 126.600 M312.000 126.157 C 312.000 138.104,312.055 139.140,312.700 139.447 C 313.085 139.630,319.115 139.841,326.100 139.915 L 338.800 140.051 338.800 126.625 L 338.800 113.200 325.400 113.200 L 312.000 113.200 312.000 126.157 M29.200 142.200 C 29.200 143.000,29.000 143.200,28.200 143.200 L 27.200 143.200 27.200 198.000 L 27.200 252.800 28.200 252.800 C 29.000 252.800,29.200 253.000,29.200 253.800 L 29.200 254.800 42.120 254.800 C 51.636 254.800,55.166 254.674,55.520 254.320 C 55.889 253.951,56.000 240.791,56.000 197.520 L 56.000 141.200 42.600 141.200 L 29.200 141.200 29.200 142.200 M340.000 198.000 L 340.000 254.800 353.400 254.800 L 366.800 254.800 366.800 253.800 C 366.800 253.000,367.000 252.800,367.800 252.800 L 368.800 252.800 368.800 198.000 L 368.800 143.200 367.800 143.200 C 367.000 143.200,366.800 143.000,366.800 142.200 L 366.800 141.200 353.400 141.200 L 340.000 141.200 340.000 198.000 M58.100 256.412 L 57.200 256.774 57.200 269.787 L 57.200 282.800 70.862 282.800 L 84.524 282.800 84.264 277.100 C 84.120 273.965,84.002 268.585,84.001 265.143 L 84.000 258.887 82.974 258.629 C 82.317 258.464,81.800 257.946,81.535 257.186 L 81.122 256.000 70.061 256.025 C 63.977 256.039,58.595 256.213,58.100 256.412 M314.800 256.738 C 314.800 257.630,313.591 258.800,312.669 258.800 C 312.061 258.800,311.997 259.808,311.967 269.900 C 311.948 276.005,311.888 281.405,311.834 281.900 L 311.734 282.800 325.267 282.800 L 338.800 282.800 338.800 269.400 L 338.800 256.000 326.800 256.000 C 315.403 256.000,314.800 256.037,314.800 256.738 M113.200 325.400 L 113.200 338.800 127.200 338.800 L 141.200 338.800 141.200 352.800 L 141.200 366.800 142.200 366.800 C 143.000 366.800,143.200 367.000,143.200 367.800 L 143.200 368.800 198.000 368.800 L 252.800 368.800 252.800 367.800 C 252.800 366.956,252.987 366.800,254.000 366.800 L 255.200 366.800 255.200 352.800 L 255.200 338.800 269.200 338.800 L 283.200 338.800 283.200 325.400 L 283.200 312.000 269.300 312.013 C 258.433 312.023,255.249 312.140,254.706 312.553 C 254.078 313.030,254.002 314.252,253.906 325.440 L 253.800 337.800 198.443 337.901 C 157.863 337.976,142.941 337.883,142.543 337.552 C 142.108 337.191,142.000 334.706,142.000 325.031 C 142.000 316.176,141.872 312.832,141.520 312.480 C 141.165 312.125,137.413 312.000,127.120 312.000 L 113.200 312.000 113.200 325.400 " stroke="none" fill="#5454fc" fill-rule="evenodd"></path><path id="path4" d="M142.213 84.386 C 141.314 85.379,141.673 139.230,142.583 139.986 C 142.882 140.234,148.207 140.430,156.434 140.495 L 169.800 140.600 169.905 153.966 C 169.977 163.015,170.154 167.504,170.454 167.866 C 171.248 168.822,224.862 168.637,225.732 167.675 C 226.308 167.038,226.402 165.331,226.494 153.775 L 226.600 140.600 239.775 140.494 C 251.331 140.402,253.038 140.308,253.675 139.732 C 254.844 138.674,254.797 84.641,253.626 84.014 C 251.941 83.112,143.037 83.475,142.213 84.386 M253.400 112.000 L 253.400 139.400 239.945 139.505 C 229.374 139.588,226.395 139.724,226.050 140.140 C 225.755 140.495,225.576 145.066,225.505 154.034 L 225.400 167.400 198.100 167.503 L 170.800 167.606 170.800 154.376 C 170.800 146.022,170.647 140.862,170.386 140.374 C 169.989 139.632,169.409 139.600,156.436 139.600 L 142.901 139.600 142.603 112.438 C 142.440 97.499,142.428 85.078,142.577 84.836 C 142.773 84.520,158.312 84.426,198.124 84.499 L 253.400 84.600 253.400 112.000 M83.400 139.889 C 82.960 139.998,82.375 140.269,82.100 140.492 C 81.362 141.091,81.380 255.741,82.118 257.200 L 82.623 258.200 97.012 258.306 C 110.183 258.403,111.442 258.354,111.900 257.729 C 112.835 256.453,112.608 141.112,111.669 140.262 C 110.954 139.615,85.861 139.285,83.400 139.889 M284.494 140.066 C 283.784 140.776,283.770 257.210,284.480 257.920 C 285.380 258.820,312.910 258.584,313.738 257.669 C 314.757 256.542,314.758 141.196,313.739 140.349 C 312.814 139.581,285.246 139.314,284.494 140.066 M111.400 199.000 L 111.400 257.400 97.151 257.505 L 82.902 257.610 82.651 256.355 C 82.513 255.665,82.400 229.395,82.400 197.978 L 82.400 140.856 83.300 140.680 C 83.795 140.583,90.320 140.525,97.800 140.552 L 111.400 140.600 111.400 199.000 M312.351 140.650 L 313.603 140.901 313.501 199.150 L 313.400 257.400 299.100 257.505 L 284.800 257.610 284.800 199.272 C 284.800 167.186,284.920 140.813,285.067 140.667 C 285.405 140.329,310.668 140.314,312.351 140.650 M142.496 170.500 C 141.983 171.139,141.578 310.861,142.087 311.770 C 142.553 312.602,253.089 312.751,253.920 311.920 C 254.618 311.222,254.618 171.178,253.920 170.480 C 253.568 170.128,250.187 170.000,241.200 170.000 C 232.213 170.000,228.832 170.128,228.480 170.480 C 228.125 170.835,228.000 174.620,228.000 185.031 C 228.000 196.409,227.896 199.188,227.456 199.554 C 227.060 199.882,218.962 199.977,197.756 199.903 L 168.600 199.800 168.495 185.435 C 168.423 175.646,168.248 170.899,167.946 170.535 C 167.320 169.780,143.101 169.747,142.496 170.500 M167.600 185.386 C 167.600 199.397,167.630 199.988,168.374 200.386 C 170.064 201.291,227.078 200.922,228.000 200.000 C 228.770 199.230,228.800 198.667,228.800 185.000 L 228.800 170.800 241.201 170.800 L 253.602 170.800 253.501 241.100 L 253.400 311.400 198.221 311.501 C 167.873 311.557,142.922 311.467,142.774 311.301 C 142.626 311.136,142.595 279.455,142.707 240.900 L 142.909 170.800 155.254 170.800 L 167.600 170.800 167.600 185.386 " stroke="none" fill="#e498ac" fill-rule="evenodd"></path></g></svg>