<?xml version="1.0" standalone="yes"?>
<svg xmlns="http://www.w3.org/2000/svg" width="250" height="250">
<path style="fill:#101210; stroke:none;" d="M0 0L0 250L250 250L250 0L0 0z"/>
<path style="fill:#1c4f09; stroke:none;" d="M155 46L155 47L159 47L155 46M88 47L79 57L88 47z"/>
<path style="fill:#498e2b; stroke:none;" d="M79 72C87.653 67.9648 99.9648 55.653 104 47C85.6225 47 79 53.6225 79 72z"/>
<path style="fill:#1c4f09; stroke:none;" d="M104 47L105 48L104 47M145 47L152 55L145 47z"/>
<path style="fill:#498e2b; stroke:none;" d="M146 47C150.035 55.653 162.347 67.9648 171 72L171 58L170 58L170 71L147 48C158.045 48 161.182 50.7893 170 57C163.207 47.3581 156.937 47 146 47z"/>
<path style="fill:#1c4f09; stroke:none;" d="M161 47L162 48L161 47z"/>
<path style="fill:#69b547; stroke:none;" d="M88 49L88 50L92 49L88 49z"/>
<path style="fill:#56c91b; stroke:none;" d="M81 69L101 49C87.4393 45.7805 78.5126 55.9509 81 69z"/>
<path style="fill:#69b547; stroke:none;" d="M99 48L99 49L103 49L99 48M147 48L170 71L170 60L169 60L169 68C162.72 63.5766 152.753 55.6783 151 48L147 48z"/>
<path style="fill:#56c91b; stroke:none;" d="M150 49C153.336 56.1528 161.847 64.6644 169 68C169.088 56.5054 163.673 44.9599 150 49z"/>
<path style="fill:#69b547; stroke:none;" d="M160 48L161 49L160 48z"/>
<path style="fill:#1c4f09; stroke:none;" d="M162 48L163 49L162 48M103 49L104 50L103 49M163 49L164 50L163 49z"/>
<path style="fill:#69b547; stroke:none;" d="M100 50L101 51L100 50z"/>
<path style="fill:#1c4f09; stroke:none;" d="M102 50L103 51L102 50z"/>
<path style="fill:#69b547; stroke:none;" d="M162 50L163 51L162 50z"/>
<path style="fill:#1c4f09; stroke:none;" d="M164 50L165 51L164 50z"/>
<path style="fill:#69b547; stroke:none;" d="M86 51L87 52L86 51M99 51L100 52L99 51z"/>
<path style="fill:#1c4f09; stroke:none;" d="M101 51L102 52L101 51z"/>
<path style="fill:#69b547; stroke:none;" d="M163 51L164 52L163 51z"/>
<path style="fill:#1c4f09; stroke:none;" d="M165 51L166 52L165 51z"/>
<path style="fill:#69b547; stroke:none;" d="M85 52L86 53L85 52M98 52L99 53L98 52z"/>
<path style="fill:#1c4f09; stroke:none;" d="M100 52L101 53L100 52z"/>
<path style="fill:#69b547; stroke:none;" d="M164 52L165 53L164 52z"/>
<path style="fill:#1c4f09; stroke:none;" d="M166 52L167 53L166 52z"/>
<path style="fill:#69b547; stroke:none;" d="M97 53L98 54L97 53z"/>
<path style="fill:#1c4f09; stroke:none;" d="M99 53L100 54L99 53M167 53L168 54L167 53z"/>
<path style="fill:#69b547; stroke:none;" d="M96 54L97 55L96 54z"/>
<path style="fill:#1c4f09; stroke:none;" d="M98 54L99 55L98 54z"/>
<path style="fill:#69b547; stroke:none;" d="M166 54L167 55L166 54z"/>
<path style="fill:#1c4f09; stroke:none;" d="M168 54L169 55L168 54z"/>
<path style="fill:#69b547; stroke:none;" d="M82 55L83 56L82 55M95 55L96 56L95 55z"/>
<path style="fill:#1c4f09; stroke:none;" d="M97 55L98 56L97 55z"/>
<path style="fill:#69b547; stroke:none;" d="M167 55L168 56L167 55z"/>
<path style="fill:#1c4f09; stroke:none;" d="M169 55L170 56L169 55z"/>
<path style="fill:#69b547; stroke:none;" d="M81 56L82 57L81 56M94 56L95 57L94 56z"/>
<path style="fill:#1c4f09; stroke:none;" d="M153 56L154 57L153 56z"/>
<path style="fill:#69b547; stroke:none;" d="M168 56L169 57L168 56z"/>
<path style="fill:#1c4f09; stroke:none;" d="M170.333 56.6667L170.667 57.3333L170.333 56.6667z"/>
<path style="fill:#69b547; stroke:none;" d="M80 57L81 58L80 57M93 57L94 58L93 57z"/>
<path style="fill:#1c4f09; stroke:none;" d="M95 57L96 58L95 57M154 57L155 58L154 57z"/>
<path style="fill:#69b547; stroke:none;" d="M169.333 57.6667L169.667 58.3333L169.333 57.6667M92 58L93 59L92 58z"/>
<path style="fill:#1c4f09; stroke:none;" d="M94 58L95 59L94 58M155 58L156 59L155 58z"/>
<path style="fill:#69b547; stroke:none;" d="M91 59L92 60L91 59z"/>
<path style="fill:#1c4f09; stroke:none;" d="M93 59L94 60L93 59M99 62L103 60L99 62z"/>
<path style="fill:#498e2b; stroke:none;" d="M103 59L103 60C117.01 60 150.745 53.4601 156 71L157 71L158 69C143.363 54.3647 122.662 59 103 59z"/>
<path style="fill:#1c4f09; stroke:none;" d="M156 59L157 60L156 59z"/>
<path style="fill:#69b547; stroke:none;" d="M90 60L91 61L90 60z"/>
<path style="fill:#1c4f09; stroke:none;" d="M92 60L93 61L92 60z"/>
<path style="fill:#498e2b; stroke:none;" d="M101 60L92 70L101 60z"/>
<path style="fill:#69b547; stroke:none;" d="M93 70L157 70L145 60L145 61C146.669 61.8669 152.929 64.9318 150.94 67.6829C149.092 70.2383 141.715 69 139 69C127.106 69 113.794 70.6922 102.049 68.8557C92.1536 67.3084 108.047 61.0113 112 61C103.791 57.5554 97.4761 63.6463 93 70z"/>
<path style="fill:#56c91b; stroke:none;" d="M112 60.4244C109.909 60.6997 93.9009 62.6352 98.8904 67.973C101.035 70.2669 108.153 69 111 69L139 69C142.177 69 147.659 70.0321 150.508 68.3966C155.185 65.7117 146.154 60.8894 144 60.3943C134.755 58.2693 121.374 59.19 112 60.4244z"/>
<path style="fill:#1c4f09; stroke:none;" d="M149 60L150 61L149 60M157 60L158 61L157 60z"/>
<path style="fill:#69b547; stroke:none;" d="M89 61L90 62L89 61z"/>
<path style="fill:#1c4f09; stroke:none;" d="M91 61L92 62L91 61M150 61L151 62L150 61M158 61L159 62L158 61M90 62L91 63L90 62M151 62L152 63L151 62M159 62L160 63L159 62M171 62L172 63L171 62M89 63L90 64L89 63z"/>
<path style="fill:#69b547; stroke:none;" d="M80.3333 64.6667L80.6667 65.3333L80.3333 64.6667M86 64L87 65L86 64z"/>
<path style="fill:#1c4f09; stroke:none;" d="M96 64L97 65L96 64M153 64L154 65L153 64M161 64L162 65L161 64z"/>
<path style="fill:#69b547; stroke:none;" d="M85 65L86 66L85 65z"/>
<path style="fill:#1c4f09; stroke:none;" d="M87 65L88 66L87 65M154 65L155 66L154 65M162 65L163 66L162 65z"/>
<path style="fill:#69b547; stroke:none;" d="M84 66L85 67L84 66z"/>
<path style="fill:#1c4f09; stroke:none;" d="M86 66L87 67L86 66M94 66L95 67L94 66M155 66L156 67L155 66M163 66L164 67L163 66z"/>
<path style="fill:#69b547; stroke:none;" d="M80 67L80 71L81 71L80 67M83 67L84 68L83 67z"/>
<path style="fill:#1c4f09; stroke:none;" d="M85 67L86 68L85 67M93 67L94 68L93 67M164 67L165 68L164 67z"/>
<path style="fill:#69b547; stroke:none;" d="M82 68L83 69L82 68z"/>
<path style="fill:#1c4f09; stroke:none;" d="M84 68L85 69L84 68M157 68L158 69L157 68M165 68L166 69L165 68M171 68L172 69L171 68M83 69L84 70L83 69M158 69L159 70L158 69M166 69L167 70L166 69M82 70L83 71L82 70M92 70L92 71L101 71L92 70z"/>
<path style="fill:#498e2b; stroke:none;" d="M101 70L102 71L101 70z"/>
<path style="fill:#1c4f09; stroke:none;" d="M102 70L102 71L152 71C139.11 65.5913 116.049 70 102 70z"/>
<path style="fill:#498e2b; stroke:none;" d="M152 70L153 71L152 70z"/>
<path style="fill:#1c4f09; stroke:none;" d="M153 70L153 71L156 71L153 70M157 70L158 71L157 70M167 70L168 71L167 70M81 71L82 72L81 71M79 72L80 73L79 72M170 72L171 73L170 72M52 101L56 97L52 100C52 81.6225 58.6225 75 77 75C59.5383 67.6728 47.3269 85.1904 52 101M173 74L173 75C191.377 75 198 81.6225 198 100C205.932 81.0972 187.883 74 173 74z"/>
<path style="fill:#498e2b; stroke:none;" d="M61 75L52 85L61 75z"/>
<path style="fill:#69b547; stroke:none;" d="M52 99L76 75C58.6916 75 52 81.6916 52 99z"/>
<path style="fill:#498e2b; stroke:none;" d="M76 75L77 76L76 75M173 75L198 100L173 75z"/>
<path style="fill:#69b547; stroke:none;" d="M174 75L194 95L177 76C187.871 76.0072 201.947 84.5079 195 97L198 99C198 81.6916 191.308 75 174 75z"/>
<path style="fill:#498e2b; stroke:none;" d="M188 75L189 76L188 75z"/>
<path style="fill:#56c91b; stroke:none;" d="M53 96C60.6436 92.4355 68.1782 83.8452 73 77C59.4519 72.9969 53.0013 84.1368 53 96z"/>
<path style="fill:#498e2b; stroke:none;" d="M75 76L76 77L75 76z"/>
<path style="fill:#1c4f09; stroke:none;" d="M85.6667 76.3333L86.3333 76.6667L85.6667 76.3333M88 76L88 77L104 77L88 76M105 76L106 77L105 76M107 76L108 77L107 76M111 76L111 77L143 77L111 76M146 76L146 77L158 77L146 76M161 76L162 77L161 76M163.667 76.3333L164.333 76.6667L163.667 76.3333M173 76L174 77L173 76z"/>
<path style="fill:#56c91b; stroke:none;" d="M177 76C180.298 82.8048 189.751 93.671 197 96C196.999 82.4588 190.599 76.0015 177 76z"/>
<path style="fill:#498e2b; stroke:none;" d="M189 76L190 77L189 76M74 77L72 80L74 77z"/>
<path style="fill:#1c4f09; stroke:none;" d="M83 77L84 78L83 77z"/>
<path style="fill:#498e2b; stroke:none;" d="M84 77L69 93C73.9961 89.4807 82.5286 83.0702 84 77z"/>
<path style="fill:#69b547; stroke:none;" d="M80 137L80 132C70.0208 131.575 70 121.602 70 114C70 100.772 72.414 78.225 91 79C83.6507 74.7423 72.0079 87.4783 69.6034 94C64.4089 108.089 68.0993 128.618 80 137z"/>
<path style="fill:#498e2b; stroke:none;" d="M86 77L87 78L86 77M88 77L88 78L96 78L88 77z"/>
<path style="fill:#69b547; stroke:none;" d="M96 77L96 78L145 78C152.355 78 160.883 76.4813 167 81.3441C180.108 91.7646 180.001 100.524 180 116C180 122.765 179.101 132.302 170 131L171 136C188.854 123.434 184.647 87.8512 165 78.0278C159.455 75.2554 150.078 77 144 77L96 77z"/>
<path style="fill:#498e2b; stroke:none;" d="M165 77L167 79L165 77z"/>
<path style="fill:#1c4f09; stroke:none;" d="M166 77L167 78L166 77z"/>
<path style="fill:#498e2b; stroke:none;" d="M190 77L191 78L190 77z"/>
<path style="fill:#1c4f09; stroke:none;" d="M74 78L75 79L74 78z"/>
<path style="fill:#56c91b; stroke:none;" d="M79 133C79 123.394 75.237 103.506 81.0324 95.5764C92.2644 80.2077 125.85 87 143 87C150.507 87 158.081 85.6186 163.999 91.0586C176.253 102.323 168.245 118.537 172 133C182.254 128.201 183.665 102.688 178.821 93C176.484 88.3257 171.21 83.5748 167 80.5725C161.444 76.61 153.475 78 147 78L104 78C98.0861 78 89.8073 76.8231 84.4244 79.7238C69.8133 87.5971 70 99.6234 70 114C70 122.25 69.4604 130.32 79 133z"/>
<path style="fill:#1c4f09; stroke:none;" d="M175 78L176 79L175 78z"/>
<path style="fill:#498e2b; stroke:none;" d="M191 78L192 79L191 78z"/>
<path style="fill:#1c4f09; stroke:none;" d="M73 79L74 80L73 79z"/>
<path style="fill:#498e2b; stroke:none;" d="M167 79L168 80L167 79M192 79L193 80L192 79M71 80L56 96C60.9961 92.4807 69.5286 86.0703 71 80M168 80L176 88L168 80z"/>
<path style="fill:#1c4f09; stroke:none;" d="M169 80L170 81L169 80M177 80L178 81L177 80z"/>
<path style="fill:#498e2b; stroke:none;" d="M193 80L194 81L193 80z"/>
<path style="fill:#1c4f09; stroke:none;" d="M71 81L72 82L71 81M170 81L171 82L170 81M178 81L179 82L178 81z"/>
<path style="fill:#498e2b; stroke:none;" d="M194 81L195 82L194 81z"/>
<path style="fill:#1c4f09; stroke:none;" d="M70 82L71 83L70 82M78 82L79 83L78 82M171 82L172 83L171 82M179 82L180 83L179 82z"/>
<path style="fill:#498e2b; stroke:none;" d="M195 82L196 83L195 82z"/>
<path style="fill:#1c4f09; stroke:none;" d="M69 83L70 84L69 83M77 83L78 84L77 83M172 83L173 84L172 83M180 83L181 84L180 83z"/>
<path style="fill:#498e2b; stroke:none;" d="M196 83L197 84L196 83z"/>
<path style="fill:#1c4f09; stroke:none;" d="M68 84L69 85L68 84M76 84L77 85L76 84M173 84L174 85L173 84M181 84L182 85L181 84z"/>
<path style="fill:#498e2b; stroke:none;" d="M197 84L198 85L197 84z"/>
<path style="fill:#1c4f09; stroke:none;" d="M67 85L68 86L67 85M75 85L76 86L75 85M174 85L175 86L174 85M182 85L183 86L182 85M66 86L67 87L66 86M74 86L75 87L74 86M175 86L176 87L175 86M65 87L66 88L65 87z"/>
<path style="fill:#69b547; stroke:none;" d="M89 87L89 88L161 88L138 87L89 87z"/>
<path style="fill:#1c4f09; stroke:none;" d="M64 88L65 89L64 88z"/>
<path style="fill:#498e2b; stroke:none;" d="M88 88L80 97L88 88z"/>
<path style="fill:#1c4f09; stroke:none;" d="M89 88L89 89L143 89C154.16 89 163.538 88.2868 169 100C170.498 92.5293 160.01 88.0421 154 88.0008C132.336 87.8517 110.665 88 89 88z"/>
<path style="fill:#498e2b; stroke:none;" d="M161 88L162 89L161 88M176 88L177 89L176 88z"/>
<path style="fill:#1c4f09; stroke:none;" d="M185 88L186 89L185 88M63 89L64 90L63 89z"/>
<path style="fill:#69b547; stroke:none;" d="M86 89L87 90L86 89z"/>
<path style="fill:#1c4f09; stroke:none;" d="M88 89L89 90L88 89z"/>
<path style="fill:#498e2b; stroke:none;" d="M162 89L163 90L162 89M177 89L181 93L177 89z"/>
<path style="fill:#1c4f09; stroke:none;" d="M178 89L179 90L178 89M186 89L187 90L186 89M62 90L63 91L62 90M70 90L71 91L70 90z"/>
<path style="fill:#69b547; stroke:none;" d="M85 90L86 91L85 90z"/>
<path style="fill:#1c4f09; stroke:none;" d="M87 90L88 91L87 90z"/>
<path style="fill:#498e2b; stroke:none;" d="M163 90L164 91L163 90z"/>
<path style="fill:#1c4f09; stroke:none;" d="M179 90L180 91L179 90M187 90L188 91L187 90M61 91L62 92L61 91z"/>
<path style="fill:#69b547; stroke:none;" d="M84 91L85 92L84 91z"/>
<path style="fill:#1c4f09; stroke:none;" d="M86 91L87 92L86 91z"/>
<path style="fill:#498e2b; stroke:none;" d="M164 91L165 92L164 91z"/>
<path style="fill:#1c4f09; stroke:none;" d="M180 91L181 92L180 91M188 91L189 92L188 91M60 92L61 93L60 92z"/>
<path style="fill:#69b547; stroke:none;" d="M83 92L84 93L83 92z"/>
<path style="fill:#1c4f09; stroke:none;" d="M85 92L86 93L85 92z"/>
<path style="fill:#498e2b; stroke:none;" d="M165 92L166 93L165 92z"/>
<path style="fill:#1c4f09; stroke:none;" d="M189 92L190 93L189 92M59 93L60 94L59 93M68 93L68 128L69 128L68 93z"/>
<path style="fill:#69b547; stroke:none;" d="M82 93L83 94L82 93z"/>
<path style="fill:#1c4f09; stroke:none;" d="M84 93L85 94L84 93z"/>
<path style="fill:#498e2b; stroke:none;" d="M166 93L167 94L166 93z"/>
<path style="fill:#1c4f09; stroke:none;" d="M181 93L181 128L182 128L181 93M190 93L191 94L190 93M58 94L59 95L58 94M83 94L84 95L83 94z"/>
<path style="fill:#498e2b; stroke:none;" d="M167 94L168 95L167 94z"/>
<path style="fill:#1c4f09; stroke:none;" d="M191 94L192 95L191 94M57 95L58 96L57 95M82 95L83 96L82 95z"/>
<path style="fill:#69b547; stroke:none;" d="M168 95L169 96L168 95z"/>
<path style="fill:#1c4f09; stroke:none;" d="M192 95L193 96L192 95z"/>
<path style="fill:#498e2b; stroke:none;" d="M55 96L56 97L55 96z"/>
<path style="fill:#69b547; stroke:none;" d="M79 96L79 99L80 99L79 96z"/>
<path style="fill:#1c4f09; stroke:none;" d="M81 96L82 97L81 96z"/>
<path style="fill:#498e2b; stroke:none;" d="M169 96L170 97L169 96M54 97L55 98L54 97z"/>
<path style="fill:#1c4f09; stroke:none;" d="M80 97L81 98L80 97z"/>
<path style="fill:#69b547; stroke:none;" d="M170 97L171 98L170 97z"/>
<path style="fill:#1c4f09; stroke:none;" d="M194 97L195 98L194 97z"/>
<path style="fill:#498e2b; stroke:none;" d="M53 98L54 99L53 98M170 98L170 131L171 131L170 98z"/>
<path style="fill:#1c4f09; stroke:none;" d="M195 98L196 99L195 98z"/>
<path style="fill:#498e2b; stroke:none;" d="M52 99L53 100L52 99M79.3333 99.6667L79.6667 100.333L79.3333 99.6667z"/>
<path style="fill:#1c4f09; stroke:none;" d="M61 101C46.2248 115.777 51 137.143 51 157L52 157L52.3179 114L61 101z"/>
<path style="fill:#498e2b; stroke:none;" d="M62 101L63 102L62 101z"/>
<path style="fill:#69b547; stroke:none;" d="M79.3333 101.667L79.6667 102.333L79.3333 101.667z"/>
<path style="fill:#498e2b; stroke:none;" d="M187 101L188 102L187 101z"/>
<path style="fill:#1c4f09; stroke:none;" d="M188 101C190.819 105.002 195.685 108.358 197.397 113C201.751 124.809 198 144.401 198 157L199 157C199 138.401 204.932 112.927 188 101z"/>
<path style="fill:#69b547; stroke:none;" d="M62 107L63 102C60.1591 103.543 59.2494 104.837 62 107z"/>
<path style="fill:#1c4f09; stroke:none;" d="M169 102L169 106L170 106L169 102z"/>
<path style="fill:#69b547; stroke:none;" d="M187 102L188 107L193 107L187 102z"/>
<path style="fill:#498e2b; stroke:none;" d="M62 103L62 165L63 165L63 123L62 103M79 103L79 112L80 112L79 103M187 103L187 167L198 157L188 166L188 123L187 103M58 105L59 106L58 105z"/>
<path style="fill:#69b547; stroke:none;" d="M57 106C48.6336 115.049 52 131.332 52 143C52 147.31 51.0428 153.032 53.0278 157C55.0459 161.034 59.032 164.15 63 166L62 158L61 158L60 163C45.9972 148.65 54.025 122.862 57 106z"/>
<path style="fill:#56c91b; stroke:none;" d="M60 163C64.7219 150.391 62 133.354 62 120C62 117.435 63.5141 106.234 58.892 106.921C52.4344 107.881 53.0003 117.427 53 122C52.9992 134.605 48.6194 154.785 60 163M189 163L191 163C200.396 151.79 197.005 134.972 197 121C196.999 117.112 197.076 105.836 190.314 106.921C186.537 107.527 188 117.37 188 120C188 133.296 185.23 150.246 189 163z"/>
<path style="fill:#498e2b; stroke:none;" d="M193 107L194 108L193 107z"/>
<path style="fill:#69b547; stroke:none;" d="M194 108L195 109L194 108z"/>
<path style="fill:#1c4f09; stroke:none;" d="M84 110L95 121L87 110L84 110M88 109L88 110L113 110L88 109M114 109L114 110L117 110C109.998 117.002 106.105 120.999 96 121L96 122L119 112L114 109M120 109L120 110L130 110L120 109M131 112C136.032 113.41 138.384 118.664 143 120.972C152.518 125.732 161.131 117.208 166 110L136 109L136 110L165 110C157.679 117.321 149.831 125.968 140.002 116.942C138.089 115.186 134.626 112.592 135 110L131 112z"/>
<path style="fill:#498e2b; stroke:none;" d="M195 109L196 110L195 109M85 110L86 111L85 110z"/>
<path style="fill:#69b547; stroke:none;" d="M86 110L89 114C92.2053 109.056 108.795 109.056 112 114L116 110L86 110z"/>
<path style="fill:#498e2b; stroke:none;" d="M116 110L117 111L116 110M119 110C119 116.32 116.126 132.741 121 137L119 110z"/>
<path style="fill:#69b547; stroke:none;" d="M120 113L121 113L130 113C129.044 108.538 120.956 108.538 120 113z"/>
<path style="fill:#498e2b; stroke:none;" d="M130 110L130 137L131 137L130 110M133 110L144 121L133 110z"/>
<path style="fill:#69b547; stroke:none;" d="M134 110C138.812 116.832 143.519 120.97 152 121L152 120C145.187 119.835 141.705 116.663 137 112L160 111L153 121L164 110L134 110z"/>
<path style="fill:#498e2b; stroke:none;" d="M164 110L165 111L164 110z"/>
<path style="fill:#1c4f09; stroke:none;" d="M186 110L187 111L186 110z"/>
<path style="fill:#69b547; stroke:none;" d="M196 110C198.785 125.001 197.906 142.919 196 158L197 158L198 124L196 110z"/>
<path style="fill:#56c91b; stroke:none;" d="M89 111C92.105 122.031 109.993 123.179 112 111L89 111z"/>
<path style="fill:#498e2b; stroke:none;" d="M115 111L116 112L115 111z"/>
<path style="fill:#56c91b; stroke:none;" d="M121.742 112.032C116.766 115.948 120.41 141.453 128.397 134.137C132.351 130.515 130.593 105.066 121.742 112.032M137 112C142.633 119.924 157.829 124.424 160 111L137 112z"/>
<path style="fill:#498e2b; stroke:none;" d="M163 111L164 112L163 111M197 111L198 112L197 111z"/>
<path style="fill:#69b547; stroke:none;" d="M79 112L79 116L80 116L79 112z"/>
<path style="fill:#1c4f09; stroke:none;" d="M80 112L81 113L80 112z"/>
<path style="fill:#498e2b; stroke:none;" d="M114 112L115 113L114 112M113 113L114 114L113 113z"/>
<path style="fill:#1c4f09; stroke:none;" d="M118 113L119 114L118 113z"/>
<path style="fill:#498e2b; stroke:none;" d="M161 113L162 114L161 113M89 114L90 115L89 114M112 114L113 115L112 114z"/>
<path style="fill:#69b547; stroke:none;" d="M90 115L91 116L90 115z"/>
<path style="fill:#498e2b; stroke:none;" d="M111 115L112 116L111 115M79 116L80 117L79 116M91 116L92 117L91 116z"/>
<path style="fill:#69b547; stroke:none;" d="M94 119L94 120C100.287 121.858 105.876 121.413 110 116L94 119z"/>
<path style="fill:#498e2b; stroke:none;" d="M110 116L111 117L110 116z"/>
<path style="fill:#69b547; stroke:none;" d="M79.3333 117.667L79.6667 118.333L79.3333 117.667M92 117L93 118L92 117z"/>
<path style="fill:#498e2b; stroke:none;" d="M109 117L110 118L109 117M93 118L94 119L93 118M108 118L109 119L108 118M79 119L79 126L80 126L79 119M107 119L108 120L107 119z"/>
<path style="fill:#69b547; stroke:none;" d="M129 119L129 124L130 124L129 119z"/>
<path style="fill:#498e2b; stroke:none;" d="M106 120L107 121L106 120M152 120L153 121L152 120M154 120L155 121L154 120z"/>
<path style="fill:#1c4f09; stroke:none;" d="M169 120L169 124L170 124L169 120M118.333 122.667L118.667 123.333L118.333 122.667z"/>
<path style="fill:#69b547; stroke:none;" d="M79 126L80 127L79 126z"/>
<path style="fill:#498e2b; stroke:none;" d="M79 127L80 128L79 127z"/>
<path style="fill:#69b547; stroke:none;" d="M171.333 127.667L171.667 128.333L171.333 127.667z"/>
<path style="fill:#1c4f09; stroke:none;" d="M69 128L77 136L69 128z"/>
<path style="fill:#498e2b; stroke:none;" d="M70 128L71 129L70 128z"/>
<path style="fill:#69b547; stroke:none;" d="M79.3333 128.667L79.6667 129.333L79.3333 128.667z"/>
<path style="fill:#1c4f09; stroke:none;" d="M169 128L170 129L169 128z"/>
<path style="fill:#498e2b; stroke:none;" d="M179 128C177.202 129.798 171.615 137.615 171 133L170 133L170 137L179 128z"/>
<path style="fill:#1c4f09; stroke:none;" d="M180 128L181 129L180 128z"/>
<path style="fill:#498e2b; stroke:none;" d="M71 129L72 130L71 129z"/>
<path style="fill:#69b547; stroke:none;" d="M120 129C120 135.142 128.287 141.994 130 134C124.217 135.647 122.632 133.969 120 129z"/>
<path style="fill:#1c4f09; stroke:none;" d="M179 129L180 130L179 129z"/>
<path style="fill:#498e2b; stroke:none;" d="M72 130L73 131L72 130M79.3333 130.667L79.6667 131.333L79.3333 130.667z"/>
<path style="fill:#1c4f09; stroke:none;" d="M178 130L179 131L178 130z"/>
<path style="fill:#498e2b; stroke:none;" d="M73 131L74 132L73 131z"/>
<path style="fill:#1c4f09; stroke:none;" d="M131.333 131.667L131.667 132.333L131.333 131.667M177 131L178 132L177 131z"/>
<path style="fill:#498e2b; stroke:none;" d="M74 132L75 133L74 132z"/>
<path style="fill:#1c4f09; stroke:none;" d="M169 132L170 133L169 132M176 132L177 133L176 132z"/>
<path style="fill:#498e2b; stroke:none;" d="M75 133L76 134L75 133z"/>
<path style="fill:#1c4f09; stroke:none;" d="M175 133L176 134L175 133z"/>
<path style="fill:#498e2b; stroke:none;" d="M76 134L77 135L76 134M79 134L80 135L79 134z"/>
<path style="fill:#1c4f09; stroke:none;" d="M174 134L175 135L174 134z"/>
<path style="fill:#498e2b; stroke:none;" d="M77 135L78 136L77 135z"/>
<path style="fill:#1c4f09; stroke:none;" d="M173 135L174 136L173 135z"/>
<path style="fill:#498e2b; stroke:none;" d="M78 136L79 137L78 136z"/>
<path style="fill:#1c4f09; stroke:none;" d="M172 136L173 137L172 136M78.6667 137.333L79.3333 137.667L78.6667 137.333M123 137L124 138L123 137M129 137L130 138L129 137M170 137L169 141L172 140L172 137L170 137M79 139L77 140L77 141L79 139z"/>
<path style="fill:#69b547; stroke:none;" d="M79 140C69.2479 149.753 65.9209 161.2 70 175L71 175C68.5471 164.697 67.3983 147.577 80 144L79 140z"/>
<path style="fill:#498e2b; stroke:none;" d="M170 140L170 141L181 150L170 140M77 141L78 142L77 141z"/>
<path style="fill:#69b547; stroke:none;" d="M170 141L170 144L174 144L170 141z"/>
<path style="fill:#1c4f09; stroke:none;" d="M173 141L174 142L173 141M75 142L76 143L75 142z"/>
<path style="fill:#498e2b; stroke:none;" d="M76 142L77 143L76 142M79 142L80 143L79 142z"/>
<path style="fill:#1c4f09; stroke:none;" d="M85 166L86 166L109 143C101.789 142.847 87.9241 159.73 85 166z"/>
<path style="fill:#498e2b; stroke:none;" d="M109 142L109 143L140 143.603L151 152C141.126 137.984 124.333 142 109 142z"/>
<path style="fill:#1c4f09; stroke:none;" d="M142 142L143 143L142 142z"/>
<path style="fill:#498e2b; stroke:none;" d="M170 142L171 143L170 142M75 143L76 144L75 143M107 143L86 165C92.3029 160.56 105.161 150.588 107 143z"/>
<path style="fill:#69b547; stroke:none;" d="M97 155L112 144C106.005 142.126 100.057 150.66 97 155z"/>
<path style="fill:#56c91b; stroke:none;" d="M95 197C97.6983 187.871 92.053 176.373 97.5926 167.985C110.714 148.118 142.044 144.459 153.454 169.09C156.944 176.625 153.693 188.788 155 197C169.845 189.874 163.624 165.952 155 156.665C144.35 145.197 121.022 134.685 106 146.303C93.3379 156.096 72.3955 185.232 95 197z"/>
<path style="fill:#69b547; stroke:none;" d="M139 143L139 144L142 144L139 143z"/>
<path style="fill:#1c4f09; stroke:none;" d="M143 143L144 144L143 143z"/>
<path style="fill:#498e2b; stroke:none;" d="M74 144L75 145L74 144z"/>
<path style="fill:#56c91b; stroke:none;" d="M79 180L79 144C64.8603 148.109 66.5104 175.251 79 180z"/>
<path style="fill:#498e2b; stroke:none;" d="M79.3333 144.667L79.6667 145.333L79.3333 144.667z"/>
<path style="fill:#69b547; stroke:none;" d="M142 144L143 145L142 144z"/>
<path style="fill:#1c4f09; stroke:none;" d="M144 144L145 145L144 144z"/>
<path style="fill:#498e2b; stroke:none;" d="M170 144L170 147L171 147L170 144z"/>
<path style="fill:#56c91b; stroke:none;" d="M171 144L172 180C182.747 174.78 185.232 146.396 171 144z"/>
<path style="fill:#498e2b; stroke:none;" d="M73 145L74 146L73 145z"/>
<path style="fill:#69b547; stroke:none;" d="M143 145L144 146L143 145z"/>
<path style="fill:#1c4f09; stroke:none;" d="M145 145L146 146L145 145z"/>
<path style="fill:#69b547; stroke:none;" d="M175 145L176 146L175 145z"/>
<path style="fill:#1c4f09; stroke:none;" d="M177 145L178 146L177 145M71 146L69 149L71 146z"/>
<path style="fill:#498e2b; stroke:none;" d="M72 146L73 147L72 146z"/>
<path style="fill:#69b547; stroke:none;" d="M79.3333 146.667L79.6667 147.333L79.3333 146.667M144 146L145 147L144 146z"/>
<path style="fill:#1c4f09; stroke:none;" d="M146 146L147 147L146 146z"/>
<path style="fill:#69b547; stroke:none;" d="M176 146L176 148L178 148L176 146z"/>
<path style="fill:#1c4f09; stroke:none;" d="M178 146L179 147L178 146z"/>
<path style="fill:#498e2b; stroke:none;" d="M71 147L72 148L71 147z"/>
<path style="fill:#69b547; stroke:none;" d="M145 147L146 148L145 147z"/>
<path style="fill:#1c4f09; stroke:none;" d="M147 147L148 148L147 147z"/>
<path style="fill:#69b547; stroke:none;" d="M170 147L171 148L170 147z"/>
<path style="fill:#1c4f09; stroke:none;" d="M179 147L180 148L179 147z"/>
<path style="fill:#69b547; stroke:none;" d="M61.3333 148.667L61.6667 149.333L61.3333 148.667z"/>
<path style="fill:#498e2b; stroke:none;" d="M70 148L71 149L70 148M79.3333 148.667L79.6667 149.333L79.3333 148.667z"/>
<path style="fill:#69b547; stroke:none;" d="M146 148L147 149L146 148z"/>
<path style="fill:#1c4f09; stroke:none;" d="M148 148L149 149L148 148z"/>
<path style="fill:#498e2b; stroke:none;" d="M170 148L170 176L171 176L170 148z"/>
<path style="fill:#69b547; stroke:none;" d="M178 148L179 149L178 148z"/>
<path style="fill:#1c4f09; stroke:none;" d="M180 148L181 149L180 148z"/>
<path style="fill:#498e2b; stroke:none;" d="M69 149L70 150L69 149z"/>
<path style="fill:#69b547; stroke:none;" d="M147 149L148 150L147 149z"/>
<path style="fill:#1c4f09; stroke:none;" d="M149 149L150 150L149 149z"/>
<path style="fill:#69b547; stroke:none;" d="M179 149L179 151L181 151L179 149z"/>
<path style="fill:#1c4f09; stroke:none;" d="M68 150L68 174L69 174L68 150z"/>
<path style="fill:#69b547; stroke:none;" d="M79 150L80 151L79 150z"/>
<path style="fill:#1c4f09; stroke:none;" d="M150 150L151 151L150 150M169 150L170 151L169 150M181 150L181 174L182 174L181 150z"/>
<path style="fill:#498e2b; stroke:none;" d="M79 151L79 160L80 160L79 151z"/>
<path style="fill:#1c4f09; stroke:none;" d="M151 151L164 166L165 166L151 151z"/>
<path style="fill:#498e2b; stroke:none;" d="M180 151L181 152L180 151z"/>
<path style="fill:#69b547; stroke:none;" d="M113 152L113 153L137 153L113 152M150 152L152 154L152 152L150 152M180 152C180 159.68 182.759 179.972 170 178L171 183C180.487 176.316 184.706 163.216 180 152z"/>
<path style="fill:#498e2b; stroke:none;" d="M112.667 153.333L113.333 153.667L112.667 153.333z"/>
<path style="fill:#1c4f09; stroke:none;" d="M114 153L114 154C125.608 154 133.255 153.251 143 160C136.131 150.363 124.602 153 114 153z"/>
<path style="fill:#498e2b; stroke:none;" d="M137 153L151.972 170L153 201L164 191L154 200C154 179.341 155.68 166.158 137 153z"/>
<path style="fill:#69b547; stroke:none;" d="M138 153L139 154L138 153z"/>
<path style="fill:#498e2b; stroke:none;" d="M152 153L153 154L152 153z"/>
<path style="fill:#69b547; stroke:none;" d="M110 154L96 169L110 154z"/>
<path style="fill:#498e2b; stroke:none;" d="M111 154L106 160L111 154z"/>
<path style="fill:#69b547; stroke:none;" d="M139 154L140 155L139 154z"/>
<path style="fill:#498e2b; stroke:none;" d="M153 154L154 155L153 154z"/>
<path style="fill:#1c4f09; stroke:none;" d="M111 155L112 156L111 155z"/>
<path style="fill:#69b547; stroke:none;" d="M140 155L141 156L140 155z"/>
<path style="fill:#498e2b; stroke:none;" d="M154 155L156 157L154 155z"/>
<path style="fill:#1c4f09; stroke:none;" d="M110 156L111 157L110 156z"/>
<path style="fill:#69b547; stroke:none;" d="M141 156L142 157L141 156M154 156L155 157L154 156z"/>
<path style="fill:#498e2b; stroke:none;" d="M52 157L55 160L52 157z"/>
<path style="fill:#1c4f09; stroke:none;" d="M109 157L110 158L109 157z"/>
<path style="fill:#69b547; stroke:none;" d="M142 157L143 158L142 157z"/>
<path style="fill:#498e2b; stroke:none;" d="M156 157L164 165L156 157z"/>
<path style="fill:#1c4f09; stroke:none;" d="M186 157L186 160L187 160L186 157M52 158L53 159L52 158M108 158L109 159L108 158z"/>
<path style="fill:#69b547; stroke:none;" d="M143 158L144 159L143 158M156 158L157 159L156 158M195 158L196 159L195 158z"/>
<path style="fill:#1c4f09; stroke:none;" d="M197 158L198 159L197 158M53 159L54 160L53 159z"/>
<path style="fill:#69b547; stroke:none;" d="M92 159L93 160L92 159z"/>
<path style="fill:#1c4f09; stroke:none;" d="M107 159L108 160L107 159z"/>
<path style="fill:#69b547; stroke:none;" d="M144 159L145 160L144 159M157 159L158 160L157 159M194 159L195 160L194 159z"/>
<path style="fill:#1c4f09; stroke:none;" d="M196 159L197 160L196 159z"/>
<path style="fill:#498e2b; stroke:none;" d="M55 160L56 161L55 160z"/>
<path style="fill:#69b547; stroke:none;" d="M79 160L79 168L80 168L79 160z"/>
<path style="fill:#498e2b; stroke:none;" d="M105 160C93.3023 171.707 96 184.352 96 200L86 191L97 201L97.6034 171L105 160z"/>
<path style="fill:#69b547; stroke:none;" d="M145 160L146 161L145 160M158 160L159 161L158 160M192 160L192 162L194 160L192 160z"/>
<path style="fill:#1c4f09; stroke:none;" d="M195 160L196 161L195 160z"/>
<path style="fill:#498e2b; stroke:none;" d="M56 161L63 167L63 166L56 161z"/>
<path style="fill:#69b547; stroke:none;" d="M90 161L91 162L90 161z"/>
<path style="fill:#1c4f09; stroke:none;" d="M105 161L106 162L105 161M119 161L119 162L131 162L119 161M144 161L145 162L144 161z"/>
<path style="fill:#69b547; stroke:none;" d="M146 161L147 162L146 161M159 161L160 162L159 161z"/>
<path style="fill:#1c4f09; stroke:none;" d="M186 161L186 164L187 164L186 161M194 161L195 162L194 161M56 162L57 163L56 162z"/>
<path style="fill:#69b547; stroke:none;" d="M89 162L90 163L89 162z"/>
<path style="fill:#1c4f09; stroke:none;" d="M104 162L105 163L104 162M102 173L113 163L113 203L114 203L114 162L102 173z"/>
<path style="fill:#498e2b; stroke:none;" d="M119 162L119 191L120.603 201.972L131 203L131 162L130 162L130 202L120 202C120 190.566 123.411 172.512 119 162z"/>
<path style="fill:#69b547; stroke:none;" d="M120 164L130 165C129.113 160.861 121.939 160.634 120 164z"/>
<path style="fill:#1c4f09; stroke:none;" d="M136 162L136 203L137 203L137 163L148 173L136 162M145 162L146 163L145 162z"/>
<path style="fill:#69b547; stroke:none;" d="M147 162L148 163L147 162M160 162L160 164L162 164L160 162M188 162L188 166L191 163L188 162M191 162L192 163L191 162z"/>
<path style="fill:#1c4f09; stroke:none;" d="M193 162L194 163L193 162M57 163L58 164L57 163M63 163L64 164L63 163z"/>
<path style="fill:#69b547; stroke:none;" d="M88 163L89 164L88 163z"/>
<path style="fill:#1c4f09; stroke:none;" d="M103 163L104 164L103 163z"/>
<path style="fill:#69b547; stroke:none;" d="M112 163L103 175L104 175L111 166C113.471 176.38 113.471 191.62 111 202L113 192L112 163z"/>
<path style="fill:#56c91b; stroke:none;" d="M122.318 163.747C119.118 165.303 120.052 170.136 120.116 173C120.237 178.42 116.767 205.514 126.856 201.102C132.773 198.514 131.054 172.803 129.632 167.059C128.838 163.853 125.344 162.276 122.318 163.747z"/>
<path style="fill:#498e2b; stroke:none;" d="M137 163L138 164L137 163z"/>
<path style="fill:#1c4f09; stroke:none;" d="M146 163L147 164L146 163z"/>
<path style="fill:#69b547; stroke:none;" d="M148 163L149 164L148 163z"/>
<path style="fill:#1c4f09; stroke:none;" d="M58 164L59 165L58 164z"/>
<path style="fill:#69b547; stroke:none;" d="M87 164L86 177L87 177L87 164z"/>
<path style="fill:#1c4f09; stroke:none;" d="M102 164L103 165L102 164z"/>
<path style="fill:#69b547; stroke:none;" d="M137 164L137 191L139 202C136.502 191.508 136.138 175.079 140 165L139 164L137 164z"/>
<path style="fill:#1c4f09; stroke:none;" d="M147 164L148 165L147 164z"/>
<path style="fill:#69b547; stroke:none;" d="M149 164L150 165L149 164M162 164L163 165L162 164z"/>
<path style="fill:#1c4f09; stroke:none;" d="M59 165L60 166L59 165M101 165L102 166L101 165M148 165L149 166L148 165z"/>
<path style="fill:#69b547; stroke:none;" d="M150 165L151 166L150 165M163 165L162 192L163 192C165.025 185.149 165.785 171.638 163 165z"/>
<path style="fill:#1c4f09; stroke:none;" d="M190 165L191 166L190 165M60 166L61 167L60 166z"/>
<path style="fill:#498e2b; stroke:none;" d="M85 166L86 167L85 166z"/>
<path style="fill:#1c4f09; stroke:none;" d="M100 166L101 167L100 166z"/>
<path style="fill:#56c91b; stroke:none;" d="M110 166C102.113 174.128 96.4523 199.203 111 202C113.278 194.292 114.922 172.496 110 166z"/>
<path style="fill:#498e2b; stroke:none;" d="M140 166L141 167L140 166z"/>
<path style="fill:#1c4f09; stroke:none;" d="M149 166L150 167L149 166z"/>
<path style="fill:#69b547; stroke:none;" d="M151 166L153 168L153 166L151 166z"/>
<path style="fill:#498e2b; stroke:none;" d="M164 166L165 167L164 166z"/>
<path style="fill:#1c4f09; stroke:none;" d="M61.6667 167.333L62.3333 167.667L61.6667 167.333M85 167L85 192L86 192L85 167M99 167L100 168L99 167z"/>
<path style="fill:#56c91b; stroke:none;" d="M138 167L138 181L138 190C138 193.331 139.491 208.295 145.807 199.436C151.44 191.535 147.705 169.756 138 167z"/>
<path style="fill:#69b547; stroke:none;" d="M141 167L142 168L141 167z"/>
<path style="fill:#1c4f09; stroke:none;" d="M150 167L151 168L150 167M164 167L164 192L165 192L164 167M187 167L188 168L187 167z"/>
<path style="fill:#498e2b; stroke:none;" d="M79 168L79 177L80 177L79 168z"/>
<path style="fill:#1c4f09; stroke:none;" d="M98 168L99 169L98 168z"/>
<path style="fill:#69b547; stroke:none;" d="M142 168L143 169L142 168M153 168L154 169L153 168z"/>
<path style="fill:#1c4f09; stroke:none;" d="M97 169L98 170L97 169M131 169L131 175L132 175L131 169z"/>
<path style="fill:#69b547; stroke:none;" d="M143 169L144 170L143 169z"/>
<path style="fill:#1c4f09; stroke:none;" d="M152 169L153 170L152 169z"/>
<path style="fill:#69b547; stroke:none;" d="M129.333 170.667L129.667 171.333L129.333 170.667M144 170L144 172L146 172L144 170M154 170L154 173L155 173L154 170M146 172L146 175L147 175L146 172M95 173L96 174L95 173z"/>
<path style="fill:#498e2b; stroke:none;" d="M102 173L102 203L113 203L113 202L103 202L102 173M147 173L147 202L137 202L137 203L148 203L147 173z"/>
<path style="fill:#1c4f09; stroke:none;" d="M169 173L169 177L170 177L169 173z"/>
<path style="fill:#498e2b; stroke:none;" d="M69 174L79 184L69 174z"/>
<path style="fill:#69b547; stroke:none;" d="M120.333 174.667L120.667 175.333L120.333 174.667z"/>
<path style="fill:#1c4f09; stroke:none;" d="M148.333 174.667L148.667 175.333L148.333 174.667z"/>
<path style="fill:#498e2b; stroke:none;" d="M180 174L179 176L180 174z"/>
<path style="fill:#1c4f09; stroke:none;" d="M69 175L70 176L69 175M101 175L102 176L101 175M180 175L181 176L180 175M70 176L71 177L70 176z"/>
<path style="fill:#69b547; stroke:none;" d="M72 176L73 177L72 176M95 176L95 184L96 184L95 176M170 176L171 177L170 176z"/>
<path style="fill:#498e2b; stroke:none;" d="M178 176L176 179L178 176z"/>
<path style="fill:#1c4f09; stroke:none;" d="M71 177L72 178L71 177z"/>
<path style="fill:#69b547; stroke:none;" d="M73 177L74 178L73 177M79 177L78 180L74 178L80 184L79 177z"/>
<path style="fill:#498e2b; stroke:none;" d="M170 177L171 178L170 177z"/>
<path style="fill:#1c4f09; stroke:none;" d="M178 177L179 178L178 177M72 178L73 179L72 178M177 178L178 179L177 178M73 179L74 180L73 179M169.333 179.667L169.667 180.333L169.333 179.667z"/>
<path style="fill:#498e2b; stroke:none;" d="M175 179C173.231 180.721 171.475 183.563 171 180L170 180L170 184L175 179z"/>
<path style="fill:#1c4f09; stroke:none;" d="M74 180L75 181L74 180M175 180L176 181L175 180M75 181L76 182L75 181z"/>
<path style="fill:#498e2b; stroke:none;" d="M79 181L80 182L79 181z"/>
<path style="fill:#1c4f09; stroke:none;" d="M174 181L175 182L174 181M76 182L77 183L76 182M173 182L174 183L173 182M172 183L173 184L172 183M78.6667 184.333L79.3333 184.667L78.6667 184.333z"/>
<path style="fill:#69b547; stroke:none;" d="M86 184L86 191L87 191L86 184M154 184L154 193L155 193L154 184z"/>
<path style="fill:#1c4f09; stroke:none;" d="M170 184L171 185L170 184z"/>
<path style="fill:#69b547; stroke:none;" d="M87 191L88 192L87 191M88 192L89 193L88 192z"/>
<path style="fill:#1c4f09; stroke:none;" d="M131.333 192.667L131.667 193.333L131.333 192.667z"/>
<path style="fill:#69b547; stroke:none;" d="M146 192L146 195L147 195L146 192M160 192L160 194L162 192L160 192z"/>
<path style="fill:#1c4f09; stroke:none;" d="M87 193L88 194L87 193z"/>
<path style="fill:#69b547; stroke:none;" d="M89 193L90 194L89 193M120 193L120 197L121 197L120 193z"/>
<path style="fill:#1c4f09; stroke:none;" d="M162 193L163 194L162 193M88 194L89 195L88 194z"/>
<path style="fill:#69b547; stroke:none;" d="M90 194L91 195L90 194M159 194L160 195L159 194z"/>
<path style="fill:#1c4f09; stroke:none;" d="M161 194L162 195L161 194M89 195L90 196L89 195z"/>
<path style="fill:#69b547; stroke:none;" d="M91 195L92 196L91 195M154 195L154 200L157 198L154 195M158 195L159 196L158 195z"/>
<path style="fill:#1c4f09; stroke:none;" d="M160 195L161 196L160 195M90 196L91 197L90 196z"/>
<path style="fill:#69b547; stroke:none;" d="M92 196L96 200L96 196L92 196M157 196L158 197L157 196z"/>
<path style="fill:#1c4f09; stroke:none;" d="M159 196L160 197L159 196M91 197L92 198L91 197M158 197L159 198L158 197M92 198L93 199L92 198M157 198L158 199L157 198M93 199L94 200L93 199z"/>
<path style="fill:#69b547; stroke:none;" d="M146 199L142 201L142 202C144.45 201.88 147.095 201.905 146 199M103 200L103 202L105 202L103 200M120.333 200.667L120.667 201.333L120.333 200.667M129 200L126 201L126 202L129 200z"/>
<path style="fill:#1c4f09; stroke:none;" d="M131 200L132 201L131 200M95.6667 201.333L96.3333 201.667L95.6667 201.333z"/>
<path style="fill:#69b547; stroke:none;" d="M106 201L106 202L110 202L106 201z"/>
<path style="fill:#1c4f09; stroke:none;" d="M153 201L154 202L153 201M119 202L120 203L119 202M105 203L105 204L108 204L105 203M139.667 203.333L140.333 203.667L139.667 203.333M142 203L143 204L142 203z"/>
</svg>
