<svg xmlns="http://www.w3.org/2000/svg" width="250" height="250"><path style="fill:#101210;stroke:none" d="M0 0v250h250V0H0z"/><path style="fill:#1c4f09;stroke:none" d="M155 46v1h4l-4-1m-67 1-9 10 9-10z"/><path style="fill:#498e2b;stroke:none" d="M79 72c8.653-4.035 20.965-16.347 25-25-18.377 0-25 6.623-25 25z"/><path style="fill:#1c4f09;stroke:none" d="m104 47 1 1-1-1m41 0 7 8-7-8z"/><path style="fill:#498e2b;stroke:none" d="M146 47c4.035 8.653 16.347 20.965 25 25V58h-1v13l-23-23c11.045 0 14.182 2.79 23 9-6.793-9.642-13.063-10-24-10z"/><path style="fill:#1c4f09;stroke:none" d="m161 47 1 1-1-1z"/><path style="fill:#69b547;stroke:none" d="M88 49v1l4-1h-4z"/><path style="fill:#56c91b;stroke:none" d="m81 69 20-20c-13.56-3.22-22.487 6.95-20 20z"/><path style="fill:#69b547;stroke:none" d="M99 48v1h4l-4-1m48 0 23 23V60h-1v8c-6.28-4.423-16.247-12.322-18-20h-4z"/><path style="fill:#56c91b;stroke:none" d="M150 49c3.336 7.153 11.847 15.664 19 19 .088-11.495-5.327-23.04-19-19z"/><path style="fill:#69b547;stroke:none" d="m160 48 1 1-1-1z"/><path style="fill:#1c4f09;stroke:none" d="m162 48 1 1-1-1m-59 1 1 1-1-1m60 0 1 1-1-1z"/><path style="fill:#69b547;stroke:none" d="m100 50 1 1-1-1z"/><path style="fill:#1c4f09;stroke:none" d="m102 50 1 1-1-1z"/><path style="fill:#69b547;stroke:none" d="m162 50 1 1-1-1z"/><path style="fill:#1c4f09;stroke:none" d="m164 50 1 1-1-1z"/><path style="fill:#69b547;stroke:none" d="m86 51 1 1-1-1m13 0 1 1-1-1z"/><path style="fill:#1c4f09;stroke:none" d="m101 51 1 1-1-1z"/><path style="fill:#69b547;stroke:none" d="m163 51 1 1-1-1z"/><path style="fill:#1c4f09;stroke:none" d="m165 51 1 1-1-1z"/><path style="fill:#69b547;stroke:none" d="m85 52 1 1-1-1m13 0 1 1-1-1z"/><path style="fill:#1c4f09;stroke:none" d="m100 52 1 1-1-1z"/><path style="fill:#69b547;stroke:none" d="m164 52 1 1-1-1z"/><path style="fill:#1c4f09;stroke:none" d="m166 52 1 1-1-1z"/><path style="fill:#69b547;stroke:none" d="m97 53 1 1-1-1z"/><path style="fill:#1c4f09;stroke:none" d="m99 53 1 1-1-1m68 0 1 1-1-1z"/><path style="fill:#69b547;stroke:none" d="m96 54 1 1-1-1z"/><path style="fill:#1c4f09;stroke:none" d="m98 54 1 1-1-1z"/><path style="fill:#69b547;stroke:none" d="m166 54 1 1-1-1z"/><path style="fill:#1c4f09;stroke:none" d="m168 54 1 1-1-1z"/><path style="fill:#69b547;stroke:none" d="m82 55 1 1-1-1m13 0 1 1-1-1z"/><path style="fill:#1c4f09;stroke:none" d="m97 55 1 1-1-1z"/><path style="fill:#69b547;stroke:none" d="m167 55 1 1-1-1z"/><path style="fill:#1c4f09;stroke:none" d="m169 55 1 1-1-1z"/><path style="fill:#69b547;stroke:none" d="m81 56 1 1-1-1m13 0 1 1-1-1z"/><path style="fill:#1c4f09;stroke:none" d="m153 56 1 1-1-1z"/><path style="fill:#69b547;stroke:none" d="m168 56 1 1-1-1z"/><path style="fill:#1c4f09;stroke:none" d="m170.333 56.667.334.666-.334-.666z"/><path style="fill:#69b547;stroke:none" d="m80 57 1 1-1-1m13 0 1 1-1-1z"/><path style="fill:#1c4f09;stroke:none" d="m95 57 1 1-1-1m59 0 1 1-1-1z"/><path style="fill:#69b547;stroke:none" d="m169.333 57.667.334.666-.334-.666M92 58l1 1-1-1z"/><path style="fill:#1c4f09;stroke:none" d="m94 58 1 1-1-1m61 0 1 1-1-1z"/><path style="fill:#69b547;stroke:none" d="m91 59 1 1-1-1z"/><path style="fill:#1c4f09;stroke:none" d="m93 59 1 1-1-1m6 3 4-2-4 2z"/><path style="fill:#498e2b;stroke:none" d="M103 59v1c14.01 0 47.745-6.54 53 11h1l1-2c-14.637-14.635-35.338-10-55-10z"/><path style="fill:#1c4f09;stroke:none" d="m156 59 1 1-1-1z"/><path style="fill:#69b547;stroke:none" d="m90 60 1 1-1-1z"/><path style="fill:#1c4f09;stroke:none" d="m92 60 1 1-1-1z"/><path style="fill:#498e2b;stroke:none" d="m101 60-9 10 9-10z"/><path style="fill:#69b547;stroke:none" d="M93 70h64l-12-10v1c1.669.867 7.929 3.932 5.94 6.683C149.092 70.238 141.715 69 139 69c-11.894 0-25.206 1.692-36.951-.144C92.154 67.308 108.047 61.01 112 61c-8.209-3.445-14.524 2.646-19 9z"/><path style="fill:#56c91b;stroke:none" d="M112 60.424c-2.091.276-18.1 2.211-13.11 7.549C101.035 70.267 108.153 69 111 69h28c3.177 0 8.659 1.032 11.508-.603 4.677-2.685-4.354-7.508-6.508-8.003-9.245-2.125-22.626-1.204-32 .03z"/><path style="fill:#1c4f09;stroke:none" d="m149 60 1 1-1-1m8 0 1 1-1-1z"/><path style="fill:#69b547;stroke:none" d="m89 61 1 1-1-1z"/><path style="fill:#1c4f09;stroke:none" d="m91 61 1 1-1-1m59 0 1 1-1-1m8 0 1 1-1-1m-68 1 1 1-1-1m61 0 1 1-1-1m8 0 1 1-1-1m12 0 1 1-1-1m-82 1 1 1-1-1z"/><path style="fill:#69b547;stroke:none" d="m80.333 64.667.334.666-.334-.666M86 64l1 1-1-1z"/><path style="fill:#1c4f09;stroke:none" d="m96 64 1 1-1-1m57 0 1 1-1-1m8 0 1 1-1-1z"/><path style="fill:#69b547;stroke:none" d="m85 65 1 1-1-1z"/><path style="fill:#1c4f09;stroke:none" d="m87 65 1 1-1-1m67 0 1 1-1-1m8 0 1 1-1-1z"/><path style="fill:#69b547;stroke:none" d="m84 66 1 1-1-1z"/><path style="fill:#1c4f09;stroke:none" d="m86 66 1 1-1-1m8 0 1 1-1-1m61 0 1 1-1-1m8 0 1 1-1-1z"/><path style="fill:#69b547;stroke:none" d="M80 67v4h1l-1-4m3 0 1 1-1-1z"/><path style="fill:#1c4f09;stroke:none" d="m85 67 1 1-1-1m8 0 1 1-1-1m71 0 1 1-1-1z"/><path style="fill:#69b547;stroke:none" d="m82 68 1 1-1-1z"/><path style="fill:#1c4f09;stroke:none" d="m84 68 1 1-1-1m73 0 1 1-1-1m8 0 1 1-1-1m6 0 1 1-1-1m-88 1 1 1-1-1m75 0 1 1-1-1m8 0 1 1-1-1m-84 1 1 1-1-1m10 0v1h9l-9-1z"/><path style="fill:#498e2b;stroke:none" d="m101 70 1 1-1-1z"/><path style="fill:#1c4f09;stroke:none" d="M102 70v1h50c-12.89-5.409-35.951-1-50-1z"/><path style="fill:#498e2b;stroke:none" d="m152 70 1 1-1-1z"/><path style="fill:#1c4f09;stroke:none" d="M153 70v1h3l-3-1m4 0 1 1-1-1m10 0 1 1-1-1m-86 1 1 1-1-1m-2 1 1 1-1-1m91 0 1 1-1-1M52 101l4-4-4 3c0-18.377 6.623-25 25-25-17.462-7.327-29.673 10.19-25 26m121-27v1c18.377 0 25 6.623 25 25 7.932-18.903-10.117-26-25-26z"/><path style="fill:#498e2b;stroke:none" d="m61 75-9 10 9-10z"/><path style="fill:#69b547;stroke:none" d="m52 99 24-24c-17.308 0-24 6.692-24 24z"/><path style="fill:#498e2b;stroke:none" d="m76 75 1 1-1-1m97 0 25 25-25-25z"/><path style="fill:#69b547;stroke:none" d="m174 75 20 20-17-19c10.871.007 24.947 8.508 18 21l3 2c0-17.308-6.692-24-24-24z"/><path style="fill:#498e2b;stroke:none" d="m188 75 1 1-1-1z"/><path style="fill:#56c91b;stroke:none" d="M53 96c7.644-3.564 15.178-12.155 20-19-13.548-4.003-19.999 7.137-20 19z"/><path style="fill:#498e2b;stroke:none" d="m75 76 1 1-1-1z"/><path style="fill:#1c4f09;stroke:none" d="m85.667 76.333.666.334-.666-.334M88 76v1h16l-16-1m17 0 1 1-1-1m2 0 1 1-1-1m4 0v1h32l-32-1m35 0v1h12l-12-1m15 0 1 1-1-1m2.667.333.666.334-.666-.334M173 76l1 1-1-1z"/><path style="fill:#56c91b;stroke:none" d="M177 76c3.298 6.805 12.751 17.671 20 20-.001-13.541-6.401-19.999-20-20z"/><path style="fill:#498e2b;stroke:none" d="m189 76 1 1-1-1M74 77l-2 3 2-3z"/><path style="fill:#1c4f09;stroke:none" d="m83 77 1 1-1-1z"/><path style="fill:#498e2b;stroke:none" d="M84 77 69 93c4.996-3.52 13.529-9.93 15-16z"/><path style="fill:#69b547;stroke:none" d="M80 137v-5c-9.98-.425-10-10.398-10-18 0-13.228 2.414-35.775 21-35-7.35-4.258-18.992 8.478-21.397 15C64.41 108.089 68.1 128.618 80 137z"/><path style="fill:#498e2b;stroke:none" d="m86 77 1 1-1-1m2 0v1h8l-8-1z"/><path style="fill:#69b547;stroke:none" d="M96 77v1h49c7.355 0 15.883-1.519 22 3.344 13.108 10.42 13.001 19.18 13 34.656 0 6.765-.899 16.302-10 15l1 5c17.854-12.566 13.647-48.149-6-57.972C159.455 75.255 150.078 77 144 77H96z"/><path style="fill:#498e2b;stroke:none" d="m165 77 2 2-2-2z"/><path style="fill:#1c4f09;stroke:none" d="m166 77 1 1-1-1z"/><path style="fill:#498e2b;stroke:none" d="m190 77 1 1-1-1z"/><path style="fill:#1c4f09;stroke:none" d="m74 78 1 1-1-1z"/><path style="fill:#56c91b;stroke:none" d="M79 133c0-9.606-3.763-29.494 2.032-37.424C92.264 80.208 125.85 87 143 87c7.507 0 15.081-1.381 20.999 4.059 12.254 11.264 4.246 27.478 8.001 41.941 10.254-4.799 11.665-30.312 6.821-40-2.337-4.674-7.611-9.425-11.821-12.427C161.444 76.61 153.475 78 147 78h-43c-5.914 0-14.193-1.177-19.576 1.724C69.814 87.597 70 99.624 70 114c0 8.25-.54 16.32 9 19z"/><path style="fill:#1c4f09;stroke:none" d="m175 78 1 1-1-1z"/><path style="fill:#498e2b;stroke:none" d="m191 78 1 1-1-1z"/><path style="fill:#1c4f09;stroke:none" d="m73 79 1 1-1-1z"/><path style="fill:#498e2b;stroke:none" d="m167 79 1 1-1-1m25 0 1 1-1-1M71 80 56 96c4.996-3.52 13.529-9.93 15-16m97 0 8 8-8-8z"/><path style="fill:#1c4f09;stroke:none" d="m169 80 1 1-1-1m8 0 1 1-1-1z"/><path style="fill:#498e2b;stroke:none" d="m193 80 1 1-1-1z"/><path style="fill:#1c4f09;stroke:none" d="m71 81 1 1-1-1m99 0 1 1-1-1m8 0 1 1-1-1z"/><path style="fill:#498e2b;stroke:none" d="m194 81 1 1-1-1z"/><path style="fill:#1c4f09;stroke:none" d="m70 82 1 1-1-1m8 0 1 1-1-1m93 0 1 1-1-1m8 0 1 1-1-1z"/><path style="fill:#498e2b;stroke:none" d="m195 82 1 1-1-1z"/><path style="fill:#1c4f09;stroke:none" d="m69 83 1 1-1-1m8 0 1 1-1-1m95 0 1 1-1-1m8 0 1 1-1-1z"/><path style="fill:#498e2b;stroke:none" d="m196 83 1 1-1-1z"/><path style="fill:#1c4f09;stroke:none" d="m68 84 1 1-1-1m8 0 1 1-1-1m97 0 1 1-1-1m8 0 1 1-1-1z"/><path style="fill:#498e2b;stroke:none" d="m197 84 1 1-1-1z"/><path style="fill:#1c4f09;stroke:none" d="m67 85 1 1-1-1m8 0 1 1-1-1m99 0 1 1-1-1m8 0 1 1-1-1M66 86l1 1-1-1m8 0 1 1-1-1m101 0 1 1-1-1M65 87l1 1-1-1z"/><path style="fill:#69b547;stroke:none" d="M89 87v1h72l-23-1H89z"/><path style="fill:#1c4f09;stroke:none" d="m64 88 1 1-1-1z"/><path style="fill:#498e2b;stroke:none" d="m88 88-8 9 8-9z"/><path style="fill:#1c4f09;stroke:none" d="M89 88v1h54c11.16 0 20.538-.713 26 11 1.498-7.47-8.99-11.958-15-12-21.664-.148-43.335 0-65 0z"/><path style="fill:#498e2b;stroke:none" d="m161 88 1 1-1-1m15 0 1 1-1-1z"/><path style="fill:#1c4f09;stroke:none" d="m185 88 1 1-1-1M63 89l1 1-1-1z"/><path style="fill:#69b547;stroke:none" d="m86 89 1 1-1-1z"/><path style="fill:#1c4f09;stroke:none" d="m88 89 1 1-1-1z"/><path style="fill:#498e2b;stroke:none" d="m162 89 1 1-1-1m15 0 4 4-4-4z"/><path style="fill:#1c4f09;stroke:none" d="m178 89 1 1-1-1m8 0 1 1-1-1M62 90l1 1-1-1m8 0 1 1-1-1z"/><path style="fill:#69b547;stroke:none" d="m85 90 1 1-1-1z"/><path style="fill:#1c4f09;stroke:none" d="m87 90 1 1-1-1z"/><path style="fill:#498e2b;stroke:none" d="m163 90 1 1-1-1z"/><path style="fill:#1c4f09;stroke:none" d="m179 90 1 1-1-1m8 0 1 1-1-1M61 91l1 1-1-1z"/><path style="fill:#69b547;stroke:none" d="m84 91 1 1-1-1z"/><path style="fill:#1c4f09;stroke:none" d="m86 91 1 1-1-1z"/><path style="fill:#498e2b;stroke:none" d="m164 91 1 1-1-1z"/><path style="fill:#1c4f09;stroke:none" d="m180 91 1 1-1-1m8 0 1 1-1-1M60 92l1 1-1-1z"/><path style="fill:#69b547;stroke:none" d="m83 92 1 1-1-1z"/><path style="fill:#1c4f09;stroke:none" d="m85 92 1 1-1-1z"/><path style="fill:#498e2b;stroke:none" d="m165 92 1 1-1-1z"/><path style="fill:#1c4f09;stroke:none" d="m189 92 1 1-1-1M59 93l1 1-1-1m9 0v35h1l-1-35z"/><path style="fill:#69b547;stroke:none" d="m82 93 1 1-1-1z"/><path style="fill:#1c4f09;stroke:none" d="m84 93 1 1-1-1z"/><path style="fill:#498e2b;stroke:none" d="m166 93 1 1-1-1z"/><path style="fill:#1c4f09;stroke:none" d="M181 93v35h1l-1-35m9 0 1 1-1-1M58 94l1 1-1-1m25 0 1 1-1-1z"/><path style="fill:#498e2b;stroke:none" d="m167 94 1 1-1-1z"/><path style="fill:#1c4f09;stroke:none" d="m191 94 1 1-1-1M57 95l1 1-1-1m25 0 1 1-1-1z"/><path style="fill:#69b547;stroke:none" d="m168 95 1 1-1-1z"/><path style="fill:#1c4f09;stroke:none" d="m192 95 1 1-1-1z"/><path style="fill:#498e2b;stroke:none" d="m55 96 1 1-1-1z"/><path style="fill:#69b547;stroke:none" d="M79 96v3h1l-1-3z"/><path style="fill:#1c4f09;stroke:none" d="m81 96 1 1-1-1z"/><path style="fill:#498e2b;stroke:none" d="m169 96 1 1-1-1M54 97l1 1-1-1z"/><path style="fill:#1c4f09;stroke:none" d="m80 97 1 1-1-1z"/><path style="fill:#69b547;stroke:none" d="m170 97 1 1-1-1z"/><path style="fill:#1c4f09;stroke:none" d="m194 97 1 1-1-1z"/><path style="fill:#498e2b;stroke:none" d="m53 98 1 1-1-1m117 0v33h1l-1-33z"/><path style="fill:#1c4f09;stroke:none" d="m195 98 1 1-1-1z"/><path style="fill:#498e2b;stroke:none" d="m52 99 1 1-1-1m27.333.667.334.666-.334-.666z"/><path style="fill:#1c4f09;stroke:none" d="M61 101c-14.775 14.777-10 36.143-10 56h1l.318-43L61 101z"/><path style="fill:#498e2b;stroke:none" d="m62 101 1 1-1-1z"/><path style="fill:#69b547;stroke:none" d="m79.333 101.667.334.666-.334-.666z"/><path style="fill:#498e2b;stroke:none" d="m187 101 1 1-1-1z"/><path style="fill:#1c4f09;stroke:none" d="M188 101c2.819 4.002 7.685 7.358 9.397 12 4.354 11.809.603 31.401.603 44h1c0-18.599 5.932-44.073-11-56z"/><path style="fill:#69b547;stroke:none" d="m62 107 1-5c-2.84 1.543-3.75 2.837-1 5z"/><path style="fill:#1c4f09;stroke:none" d="M169 102v4h1l-1-4z"/><path style="fill:#69b547;stroke:none" d="m187 102 1 5h5l-6-5z"/><path style="fill:#498e2b;stroke:none" d="M62 103v62h1v-42l-1-20m17 0v9h1l-1-9m108 0v64l11-10-10 9v-43l-1-20m-129 2 1 1-1-1z"/><path style="fill:#69b547;stroke:none" d="M57 106c-8.366 9.049-5 25.332-5 37 0 4.31-.957 10.032 1.028 14 2.018 4.034 6.004 7.15 9.972 9l-1-8h-1l-1 5c-14.003-14.35-5.975-40.138-3-57z"/><path style="fill:#56c91b;stroke:none" d="M60 163c4.722-12.609 2-29.646 2-43 0-2.565 1.514-13.766-3.108-13.079C52.434 107.881 53 117.427 53 122c0 12.605-4.38 32.785 7 41m129 0h2c9.396-11.21 6.005-28.028 6-42-.001-3.888.076-15.164-6.686-14.079C186.537 107.527 188 117.37 188 120c0 13.296-2.77 30.246 1 43z"/><path style="fill:#498e2b;stroke:none" d="m193 107 1 1-1-1z"/><path style="fill:#69b547;stroke:none" d="m194 108 1 1-1-1z"/><path style="fill:#1c4f09;stroke:none" d="m84 110 11 11-8-11h-3m4-1v1h25l-25-1m26 0v1h3c-7.002 7.002-10.895 10.999-21 11v1l23-10-5-3m6 0v1h10l-10-1m11 3c5.032 1.41 7.384 6.664 12 8.972 9.518 4.76 18.131-3.764 23-10.972l-30-1v1h29c-7.321 7.321-15.169 15.968-24.998 6.942-1.913-1.756-5.376-4.35-5.002-6.942l-4 2z"/><path style="fill:#498e2b;stroke:none" d="m195 109 1 1-1-1m-110 1 1 1-1-1z"/><path style="fill:#69b547;stroke:none" d="m86 110 3 4c3.205-4.944 19.795-4.944 23 0l4-4H86z"/><path style="fill:#498e2b;stroke:none" d="m116 110 1 1-1-1m3 0c0 6.32-2.874 22.741 2 27l-2-27z"/><path style="fill:#69b547;stroke:none" d="M120 113h10c-.956-4.462-9.044-4.462-10 0z"/><path style="fill:#498e2b;stroke:none" d="M130 110v27h1l-1-27m3 0 11 11-11-11z"/><path style="fill:#69b547;stroke:none" d="M134 110c4.812 6.832 9.519 10.97 18 11v-1c-6.813-.165-10.295-3.337-15-8l23-1-7 10 11-11h-30z"/><path style="fill:#498e2b;stroke:none" d="m164 110 1 1-1-1z"/><path style="fill:#1c4f09;stroke:none" d="m186 110 1 1-1-1z"/><path style="fill:#69b547;stroke:none" d="M196 110c2.785 15.001 1.906 32.919 0 48h1l1-34-2-14z"/><path style="fill:#56c91b;stroke:none" d="M89 111c3.105 11.031 20.993 12.179 23 0H89z"/><path style="fill:#498e2b;stroke:none" d="m115 111 1 1-1-1z"/><path style="fill:#56c91b;stroke:none" d="M121.742 112.032c-4.976 3.916-1.332 29.421 6.655 22.105 3.954-3.622 2.196-29.071-6.655-22.105M137 112c5.633 7.924 20.829 12.424 23-1l-23 1z"/><path style="fill:#498e2b;stroke:none" d="m163 111 1 1-1-1m34 0 1 1-1-1z"/><path style="fill:#69b547;stroke:none" d="M79 112v4h1l-1-4z"/><path style="fill:#1c4f09;stroke:none" d="m80 112 1 1-1-1z"/><path style="fill:#498e2b;stroke:none" d="m114 112 1 1-1-1m-1 1 1 1-1-1z"/><path style="fill:#1c4f09;stroke:none" d="m118 113 1 1-1-1z"/><path style="fill:#498e2b;stroke:none" d="m161 113 1 1-1-1m-72 1 1 1-1-1m23 0 1 1-1-1z"/><path style="fill:#69b547;stroke:none" d="m90 115 1 1-1-1z"/><path style="fill:#498e2b;stroke:none" d="m111 115 1 1-1-1m-32 1 1 1-1-1m12 0 1 1-1-1z"/><path style="fill:#69b547;stroke:none" d="M94 119v1c6.287 1.858 11.876 1.413 16-4l-16 3z"/><path style="fill:#498e2b;stroke:none" d="m110 116 1 1-1-1z"/><path style="fill:#69b547;stroke:none" d="m79.333 117.667.334.666-.334-.666M92 117l1 1-1-1z"/><path style="fill:#498e2b;stroke:none" d="m109 117 1 1-1-1m-16 1 1 1-1-1m15 0 1 1-1-1m-29 1v7h1l-1-7m28 0 1 1-1-1z"/><path style="fill:#69b547;stroke:none" d="M129 119v5h1l-1-5z"/><path style="fill:#498e2b;stroke:none" d="m106 120 1 1-1-1m46 0 1 1-1-1m2 0 1 1-1-1z"/><path style="fill:#1c4f09;stroke:none" d="M169 120v4h1l-1-4m-50.667 2.667.334.666-.334-.666z"/><path style="fill:#69b547;stroke:none" d="m79 126 1 1-1-1z"/><path style="fill:#498e2b;stroke:none" d="m79 127 1 1-1-1z"/><path style="fill:#69b547;stroke:none" d="m171.333 127.667.334.666-.334-.666z"/><path style="fill:#1c4f09;stroke:none" d="m69 128 8 8-8-8z"/><path style="fill:#498e2b;stroke:none" d="m70 128 1 1-1-1z"/><path style="fill:#69b547;stroke:none" d="m79.333 128.667.334.666-.334-.666z"/><path style="fill:#1c4f09;stroke:none" d="m169 128 1 1-1-1z"/><path style="fill:#498e2b;stroke:none" d="M179 128c-1.798 1.798-7.385 9.615-8 5h-1v4l9-9z"/><path style="fill:#1c4f09;stroke:none" d="m180 128 1 1-1-1z"/><path style="fill:#498e2b;stroke:none" d="m71 129 1 1-1-1z"/><path style="fill:#69b547;stroke:none" d="M120 129c0 6.142 8.287 12.994 10 5-5.783 1.647-7.368-.031-10-5z"/><path style="fill:#1c4f09;stroke:none" d="m179 129 1 1-1-1z"/><path style="fill:#498e2b;stroke:none" d="m72 130 1 1-1-1m7.333.667.334.666-.334-.666z"/><path style="fill:#1c4f09;stroke:none" d="m178 130 1 1-1-1z"/><path style="fill:#498e2b;stroke:none" d="m73 131 1 1-1-1z"/><path style="fill:#1c4f09;stroke:none" d="m131.333 131.667.334.666-.334-.666M177 131l1 1-1-1z"/><path style="fill:#498e2b;stroke:none" d="m74 132 1 1-1-1z"/><path style="fill:#1c4f09;stroke:none" d="m169 132 1 1-1-1m7 0 1 1-1-1z"/><path style="fill:#498e2b;stroke:none" d="m75 133 1 1-1-1z"/><path style="fill:#1c4f09;stroke:none" d="m175 133 1 1-1-1z"/><path style="fill:#498e2b;stroke:none" d="m76 134 1 1-1-1m3 0 1 1-1-1z"/><path style="fill:#1c4f09;stroke:none" d="m174 134 1 1-1-1z"/><path style="fill:#498e2b;stroke:none" d="m77 135 1 1-1-1z"/><path style="fill:#1c4f09;stroke:none" d="m173 135 1 1-1-1z"/><path style="fill:#498e2b;stroke:none" d="m78 136 1 1-1-1z"/><path style="fill:#1c4f09;stroke:none" d="m172 136 1 1-1-1m-93.333 1.333.666.334-.666-.334M123 137l1 1-1-1m6 0 1 1-1-1m41 0-1 4 3-1v-3h-2m-91 2-2 1v1l2-2z"/><path style="fill:#69b547;stroke:none" d="M79 140c-9.752 9.753-13.08 21.2-9 35h1c-2.453-10.303-3.602-27.423 9-31l-1-4z"/><path style="fill:#498e2b;stroke:none" d="M170 140v1l11 9-11-10m-93 1 1 1-1-1z"/><path style="fill:#69b547;stroke:none" d="M170 141v3h4l-4-3z"/><path style="fill:#1c4f09;stroke:none" d="m173 141 1 1-1-1m-98 1 1 1-1-1z"/><path style="fill:#498e2b;stroke:none" d="m76 142 1 1-1-1m3 0 1 1-1-1z"/><path style="fill:#1c4f09;stroke:none" d="M85 166h1l23-23c-7.211-.153-21.076 16.73-24 23z"/><path style="fill:#498e2b;stroke:none" d="M109 142v1l31 .603L151 152c-9.874-14.016-26.667-10-42-10z"/><path style="fill:#1c4f09;stroke:none" d="m142 142 1 1-1-1z"/><path style="fill:#498e2b;stroke:none" d="m170 142 1 1-1-1m-95 1 1 1-1-1m32 0-21 22c6.303-4.44 19.161-14.412 21-22z"/><path style="fill:#69b547;stroke:none" d="m97 155 15-11c-5.995-1.874-11.943 6.66-15 11z"/><path style="fill:#56c91b;stroke:none" d="M95 197c2.698-9.129-2.947-20.627 2.593-29.015 13.121-19.867 44.451-23.526 55.861 1.105 3.49 7.535.239 19.698 1.546 27.91 14.845-7.126 8.624-31.048 0-40.335-10.65-11.468-33.978-21.98-49-10.362-12.662 9.793-33.605 38.929-11 50.697z"/><path style="fill:#69b547;stroke:none" d="M139 143v1h3l-3-1z"/><path style="fill:#1c4f09;stroke:none" d="m143 143 1 1-1-1z"/><path style="fill:#498e2b;stroke:none" d="m74 144 1 1-1-1z"/><path style="fill:#56c91b;stroke:none" d="M79 180v-36c-14.14 4.109-12.49 31.251 0 36z"/><path style="fill:#498e2b;stroke:none" d="m79.333 144.667.334.666-.334-.666z"/><path style="fill:#69b547;stroke:none" d="m142 144 1 1-1-1z"/><path style="fill:#1c4f09;stroke:none" d="m144 144 1 1-1-1z"/><path style="fill:#498e2b;stroke:none" d="M170 144v3h1l-1-3z"/><path style="fill:#56c91b;stroke:none" d="m171 144 1 36c10.747-5.22 13.232-33.604-1-36z"/><path style="fill:#498e2b;stroke:none" d="m73 145 1 1-1-1z"/><path style="fill:#69b547;stroke:none" d="m143 145 1 1-1-1z"/><path style="fill:#1c4f09;stroke:none" d="m145 145 1 1-1-1z"/><path style="fill:#69b547;stroke:none" d="m175 145 1 1-1-1z"/><path style="fill:#1c4f09;stroke:none" d="m177 145 1 1-1-1m-106 1-2 3 2-3z"/><path style="fill:#498e2b;stroke:none" d="m72 146 1 1-1-1z"/><path style="fill:#69b547;stroke:none" d="m79.333 146.667.334.666-.334-.666M144 146l1 1-1-1z"/><path style="fill:#1c4f09;stroke:none" d="m146 146 1 1-1-1z"/><path style="fill:#69b547;stroke:none" d="M176 146v2h2l-2-2z"/><path style="fill:#1c4f09;stroke:none" d="m178 146 1 1-1-1z"/><path style="fill:#498e2b;stroke:none" d="m71 147 1 1-1-1z"/><path style="fill:#69b547;stroke:none" d="m145 147 1 1-1-1z"/><path style="fill:#1c4f09;stroke:none" d="m147 147 1 1-1-1z"/><path style="fill:#69b547;stroke:none" d="m170 147 1 1-1-1z"/><path style="fill:#1c4f09;stroke:none" d="m179 147 1 1-1-1z"/><path style="fill:#69b547;stroke:none" d="m61.333 148.667.334.666-.334-.666z"/><path style="fill:#498e2b;stroke:none" d="m70 148 1 1-1-1m9.333.667.334.666-.334-.666z"/><path style="fill:#69b547;stroke:none" d="m146 148 1 1-1-1z"/><path style="fill:#1c4f09;stroke:none" d="m148 148 1 1-1-1z"/><path style="fill:#498e2b;stroke:none" d="M170 148v28h1l-1-28z"/><path style="fill:#69b547;stroke:none" d="m178 148 1 1-1-1z"/><path style="fill:#1c4f09;stroke:none" d="m180 148 1 1-1-1z"/><path style="fill:#498e2b;stroke:none" d="m69 149 1 1-1-1z"/><path style="fill:#69b547;stroke:none" d="m147 149 1 1-1-1z"/><path style="fill:#1c4f09;stroke:none" d="m149 149 1 1-1-1z"/><path style="fill:#69b547;stroke:none" d="M179 149v2h2l-2-2z"/><path style="fill:#1c4f09;stroke:none" d="M68 150v24h1l-1-24z"/><path style="fill:#69b547;stroke:none" d="m79 150 1 1-1-1z"/><path style="fill:#1c4f09;stroke:none" d="m150 150 1 1-1-1m19 0 1 1-1-1m12 0v24h1l-1-24z"/><path style="fill:#498e2b;stroke:none" d="M79 151v9h1l-1-9z"/><path style="fill:#1c4f09;stroke:none" d="m151 151 13 15h1l-14-15z"/><path style="fill:#498e2b;stroke:none" d="m180 151 1 1-1-1z"/><path style="fill:#69b547;stroke:none" d="M113 152v1h24l-24-1m37 0 2 2v-2h-2m30 0c0 7.68 2.759 27.972-10 26l1 5c9.487-6.684 13.706-19.784 9-31z"/><path style="fill:#498e2b;stroke:none" d="m112.667 153.333.666.334-.666-.334z"/><path style="fill:#1c4f09;stroke:none" d="M114 153v1c11.608 0 19.255-.749 29 6-6.869-9.637-18.398-7-29-7z"/><path style="fill:#498e2b;stroke:none" d="m137 153 14.972 17L153 201l11-10-10 9c0-20.659 1.68-33.842-17-47z"/><path style="fill:#69b547;stroke:none" d="m138 153 1 1-1-1z"/><path style="fill:#498e2b;stroke:none" d="m152 153 1 1-1-1z"/><path style="fill:#69b547;stroke:none" d="m110 154-14 15 14-15z"/><path style="fill:#498e2b;stroke:none" d="m111 154-5 6 5-6z"/><path style="fill:#69b547;stroke:none" d="m139 154 1 1-1-1z"/><path style="fill:#498e2b;stroke:none" d="m153 154 1 1-1-1z"/><path style="fill:#1c4f09;stroke:none" d="m111 155 1 1-1-1z"/><path style="fill:#69b547;stroke:none" d="m140 155 1 1-1-1z"/><path style="fill:#498e2b;stroke:none" d="m154 155 2 2-2-2z"/><path style="fill:#1c4f09;stroke:none" d="m110 156 1 1-1-1z"/><path style="fill:#69b547;stroke:none" d="m141 156 1 1-1-1m13 0 1 1-1-1z"/><path style="fill:#498e2b;stroke:none" d="m52 157 3 3-3-3z"/><path style="fill:#1c4f09;stroke:none" d="m109 157 1 1-1-1z"/><path style="fill:#69b547;stroke:none" d="m142 157 1 1-1-1z"/><path style="fill:#498e2b;stroke:none" d="m156 157 8 8-8-8z"/><path style="fill:#1c4f09;stroke:none" d="M186 157v3h1l-1-3m-134 1 1 1-1-1m56 0 1 1-1-1z"/><path style="fill:#69b547;stroke:none" d="m143 158 1 1-1-1m13 0 1 1-1-1m39 0 1 1-1-1z"/><path style="fill:#1c4f09;stroke:none" d="m197 158 1 1-1-1m-144 1 1 1-1-1z"/><path style="fill:#69b547;stroke:none" d="m92 159 1 1-1-1z"/><path style="fill:#1c4f09;stroke:none" d="m107 159 1 1-1-1z"/><path style="fill:#69b547;stroke:none" d="m144 159 1 1-1-1m13 0 1 1-1-1m37 0 1 1-1-1z"/><path style="fill:#1c4f09;stroke:none" d="m196 159 1 1-1-1z"/><path style="fill:#498e2b;stroke:none" d="m55 160 1 1-1-1z"/><path style="fill:#69b547;stroke:none" d="M79 160v8h1l-1-8z"/><path style="fill:#498e2b;stroke:none" d="M105 160c-11.698 11.707-9 24.352-9 40l-10-9 11 10 .603-30L105 160z"/><path style="fill:#69b547;stroke:none" d="m145 160 1 1-1-1m13 0 1 1-1-1m34 0v2l2-2h-2z"/><path style="fill:#1c4f09;stroke:none" d="m195 160 1 1-1-1z"/><path style="fill:#498e2b;stroke:none" d="m56 161 7 6v-1l-7-5z"/><path style="fill:#69b547;stroke:none" d="m90 161 1 1-1-1z"/><path style="fill:#1c4f09;stroke:none" d="m105 161 1 1-1-1m14 0v1h12l-12-1m25 0 1 1-1-1z"/><path style="fill:#69b547;stroke:none" d="m146 161 1 1-1-1m13 0 1 1-1-1z"/><path style="fill:#1c4f09;stroke:none" d="M186 161v3h1l-1-3m8 0 1 1-1-1m-138 1 1 1-1-1z"/><path style="fill:#69b547;stroke:none" d="m89 162 1 1-1-1z"/><path style="fill:#1c4f09;stroke:none" d="m104 162 1 1-1-1m-2 11 11-10v40h1v-41l-12 11z"/><path style="fill:#498e2b;stroke:none" d="M119 162v29l1.603 10.972L131 203v-41h-1v40h-10c0-11.434 3.411-29.488-1-40z"/><path style="fill:#69b547;stroke:none" d="m120 164 10 1c-.887-4.139-8.061-4.366-10-1z"/><path style="fill:#1c4f09;stroke:none" d="M136 162v41h1v-40l11 10-12-11m9 0 1 1-1-1z"/><path style="fill:#69b547;stroke:none" d="m147 162 1 1-1-1m13 0v2h2l-2-2m28 0v4l3-3-3-1m3 0 1 1-1-1z"/><path style="fill:#1c4f09;stroke:none" d="m193 162 1 1-1-1m-136 1 1 1-1-1m6 0 1 1-1-1z"/><path style="fill:#69b547;stroke:none" d="m88 163 1 1-1-1z"/><path style="fill:#1c4f09;stroke:none" d="m103 163 1 1-1-1z"/><path style="fill:#69b547;stroke:none" d="m112 163-9 12h1l7-9c2.471 10.38 2.471 25.62 0 36l2-10-1-29z"/><path style="fill:#56c91b;stroke:none" d="M122.318 163.747c-3.2 1.556-2.266 6.389-2.202 9.253.121 5.42-3.349 32.514 6.74 28.102 5.917-2.588 4.198-28.299 2.776-34.043-.794-3.206-4.288-4.783-7.314-3.312z"/><path style="fill:#498e2b;stroke:none" d="m137 163 1 1-1-1z"/><path style="fill:#1c4f09;stroke:none" d="m146 163 1 1-1-1z"/><path style="fill:#69b547;stroke:none" d="m148 163 1 1-1-1z"/><path style="fill:#1c4f09;stroke:none" d="m58 164 1 1-1-1z"/><path style="fill:#69b547;stroke:none" d="m87 164-1 13h1v-13z"/><path style="fill:#1c4f09;stroke:none" d="m102 164 1 1-1-1z"/><path style="fill:#69b547;stroke:none" d="M137 164v27l2 11c-2.498-10.492-2.862-26.921 1-37l-1-1h-2z"/><path style="fill:#1c4f09;stroke:none" d="m147 164 1 1-1-1z"/><path style="fill:#69b547;stroke:none" d="m149 164 1 1-1-1m13 0 1 1-1-1z"/><path style="fill:#1c4f09;stroke:none" d="m59 165 1 1-1-1m42 0 1 1-1-1m47 0 1 1-1-1z"/><path style="fill:#69b547;stroke:none" d="m150 165 1 1-1-1m13 0-1 27h1c2.025-6.851 2.785-20.362 0-27z"/><path style="fill:#1c4f09;stroke:none" d="m190 165 1 1-1-1m-130 1 1 1-1-1z"/><path style="fill:#498e2b;stroke:none" d="m85 166 1 1-1-1z"/><path style="fill:#1c4f09;stroke:none" d="m100 166 1 1-1-1z"/><path style="fill:#56c91b;stroke:none" d="M110 166c-7.887 8.128-13.548 33.203 1 36 2.278-7.708 3.922-29.504-1-36z"/><path style="fill:#498e2b;stroke:none" d="m140 166 1 1-1-1z"/><path style="fill:#1c4f09;stroke:none" d="m149 166 1 1-1-1z"/><path style="fill:#69b547;stroke:none" d="m151 166 2 2v-2h-2z"/><path style="fill:#498e2b;stroke:none" d="m164 166 1 1-1-1z"/><path style="fill:#1c4f09;stroke:none" d="m61.667 167.333.666.334-.666-.334M85 167v25h1l-1-25m14 0 1 1-1-1z"/><path style="fill:#56c91b;stroke:none" d="M138 167v23c0 3.331 1.491 18.295 7.807 9.436 5.633-7.901 1.898-29.68-7.807-32.436z"/><path style="fill:#69b547;stroke:none" d="m141 167 1 1-1-1z"/><path style="fill:#1c4f09;stroke:none" d="m150 167 1 1-1-1m14 0v25h1l-1-25m23 0 1 1-1-1z"/><path style="fill:#498e2b;stroke:none" d="M79 168v9h1l-1-9z"/><path style="fill:#1c4f09;stroke:none" d="m98 168 1 1-1-1z"/><path style="fill:#69b547;stroke:none" d="m142 168 1 1-1-1m11 0 1 1-1-1z"/><path style="fill:#1c4f09;stroke:none" d="m97 169 1 1-1-1m34 0v6h1l-1-6z"/><path style="fill:#69b547;stroke:none" d="m143 169 1 1-1-1z"/><path style="fill:#1c4f09;stroke:none" d="m152 169 1 1-1-1z"/><path style="fill:#69b547;stroke:none" d="m129.333 170.667.334.666-.334-.666M144 170v2h2l-2-2m10 0v3h1l-1-3m-8 2v3h1l-1-3m-51 1 1 1-1-1z"/><path style="fill:#498e2b;stroke:none" d="M102 173v30h11v-1h-10l-1-29m45 0v29h-10v1h11l-1-30z"/><path style="fill:#1c4f09;stroke:none" d="M169 173v4h1l-1-4z"/><path style="fill:#498e2b;stroke:none" d="m69 174 10 10-10-10z"/><path style="fill:#69b547;stroke:none" d="m120.333 174.667.334.666-.334-.666z"/><path style="fill:#1c4f09;stroke:none" d="m148.333 174.667.334.666-.334-.666z"/><path style="fill:#498e2b;stroke:none" d="m180 174-1 2 1-2z"/><path style="fill:#1c4f09;stroke:none" d="m69 175 1 1-1-1m32 0 1 1-1-1m79 0 1 1-1-1m-110 1 1 1-1-1z"/><path style="fill:#69b547;stroke:none" d="m72 176 1 1-1-1m23 0v8h1l-1-8m75 0 1 1-1-1z"/><path style="fill:#498e2b;stroke:none" d="m178 176-2 3 2-3z"/><path style="fill:#1c4f09;stroke:none" d="m71 177 1 1-1-1z"/><path style="fill:#69b547;stroke:none" d="m73 177 1 1-1-1m6 0-1 3-4-2 6 6-1-7z"/><path style="fill:#498e2b;stroke:none" d="m170 177 1 1-1-1z"/><path style="fill:#1c4f09;stroke:none" d="m178 177 1 1-1-1m-106 1 1 1-1-1m105 0 1 1-1-1m-104 1 1 1-1-1m96.333.667.334.666-.334-.666z"/><path style="fill:#498e2b;stroke:none" d="M175 179c-1.769 1.721-3.525 4.563-4 1h-1v4l5-5z"/><path style="fill:#1c4f09;stroke:none" d="m74 180 1 1-1-1m101 0 1 1-1-1m-100 1 1 1-1-1z"/><path style="fill:#498e2b;stroke:none" d="m79 181 1 1-1-1z"/><path style="fill:#1c4f09;stroke:none" d="m174 181 1 1-1-1m-98 1 1 1-1-1m97 0 1 1-1-1m-1 1 1 1-1-1m-93.333 1.333.666.334-.666-.334z"/><path style="fill:#69b547;stroke:none" d="M86 184v7h1l-1-7m68 0v9h1l-1-9z"/><path style="fill:#1c4f09;stroke:none" d="m170 184 1 1-1-1z"/><path style="fill:#69b547;stroke:none" d="m87 191 1 1-1-1m1 1 1 1-1-1z"/><path style="fill:#1c4f09;stroke:none" d="m131.333 192.667.334.666-.334-.666z"/><path style="fill:#69b547;stroke:none" d="M146 192v3h1l-1-3m14 0v2l2-2h-2z"/><path style="fill:#1c4f09;stroke:none" d="m87 193 1 1-1-1z"/><path style="fill:#69b547;stroke:none" d="m89 193 1 1-1-1m31 0v4h1l-1-4z"/><path style="fill:#1c4f09;stroke:none" d="m162 193 1 1-1-1m-74 1 1 1-1-1z"/><path style="fill:#69b547;stroke:none" d="m90 194 1 1-1-1m69 0 1 1-1-1z"/><path style="fill:#1c4f09;stroke:none" d="m161 194 1 1-1-1m-72 1 1 1-1-1z"/><path style="fill:#69b547;stroke:none" d="m91 195 1 1-1-1m63 0v5l3-2-3-3m4 0 1 1-1-1z"/><path style="fill:#1c4f09;stroke:none" d="m160 195 1 1-1-1m-70 1 1 1-1-1z"/><path style="fill:#69b547;stroke:none" d="m92 196 4 4v-4h-4m65 0 1 1-1-1z"/><path style="fill:#1c4f09;stroke:none" d="m159 196 1 1-1-1m-68 1 1 1-1-1m67 0 1 1-1-1m-66 1 1 1-1-1m65 0 1 1-1-1m-64 1 1 1-1-1z"/><path style="fill:#69b547;stroke:none" d="m146 199-4 2v1c2.45-.12 5.095-.095 4-3m-43 1v2h2l-2-2m17.333.667.334.666-.334-.666M129 200l-3 1v1l3-2z"/><path style="fill:#1c4f09;stroke:none" d="m131 200 1 1-1-1m-35.333 1.333.666.334-.666-.334z"/><path style="fill:#69b547;stroke:none" d="M106 201v1h4l-4-1z"/><path style="fill:#1c4f09;stroke:none" d="m153 201 1 1-1-1m-34 1 1 1-1-1m-14 1v1h3l-3-1m34.667.333.666.334-.666-.334M142 203l1 1-1-1z"/></svg>