<svg xmlns="http://www.w3.org/2000/svg" width="448" height="113" fill="none"><path fill="#F9FB65" d="M164.741 92.757V77.84h13.537c2.618 0 4.719-.69 6.304-2.072 1.584-1.45 2.377-3.419 2.377-5.905 0-1.657-.379-3.073-1.137-4.247-.689-1.243-1.688-2.175-2.997-2.797-1.24-.622-2.756-.932-4.547-.932h-13.537V47.59h12.607c2.205 0 4.03-.552 5.477-1.657s2.17-2.832 2.17-5.18-.723-4.074-2.17-5.18c-1.447-1.104-3.272-1.657-5.477-1.657h-12.607V19h18.394c4.478 0 8.371.863 11.678 2.59 3.375 1.657 5.993 3.97 7.853 6.94 1.86 2.9 2.79 6.25 2.79 10.049 0 5.248-1.86 9.53-5.58 12.845-3.72 3.315-9.163 5.214-16.327 5.697l-.207-7.147c7.785.483 13.744 2.624 17.878 6.422 4.133 3.799 6.2 8.668 6.2 14.607 0 4.281-1.068 8.08-3.204 11.395-2.135 3.246-5.132 5.8-8.99 7.666-3.789 1.795-8.233 2.693-13.331 2.693h-17.154Zm-16.741 0V19h20.254v73.757H148ZM239.06 94c-4.96 0-9.369-.967-13.227-2.9-3.789-1.934-6.786-4.628-8.991-8.08-2.204-3.454-3.307-7.39-3.307-11.81V41.79h20.255v29.627c0 1.036.207 1.968.62 2.797.482.829 1.102 1.485 1.86 1.968.827.415 1.757.622 2.79.622 1.447 0 2.652-.484 3.617-1.45 1.033-1.036 1.55-2.349 1.55-3.937V41.79h20.254v29.42c0 4.489-1.102 8.46-3.306 11.913-2.136 3.384-5.133 6.043-8.991 7.976C248.395 93.033 244.02 94 239.06 94ZM279.522 92.757V20.865h20.255v71.892h-20.255Zm-10.85-34.392V41.79h75.644v16.575h-75.644Zm44.539 34.392V20.865h20.254v71.892h-20.254ZM376.272 94c-5.856 0-11.058-1.14-15.605-3.418-4.547-2.349-8.129-5.525-10.747-9.53-2.618-4.076-3.927-8.703-3.927-13.882 0-5.11 1.24-9.669 3.72-13.674 2.481-4.006 5.891-7.148 10.231-9.427 4.34-2.348 9.266-3.522 14.777-3.522 5.994 0 11.058 1.416 15.191 4.247 4.203 2.763 7.268 6.803 9.197 12.12L366.971 87.06l-9.507-9.84 29.038-27.142-2.067 12.639c-.62-2.418-1.756-4.248-3.41-5.49-1.653-1.244-3.755-1.865-6.304-1.865-2.204 0-4.099.448-5.683 1.346-1.585.829-2.79 2.072-3.617 3.73-.827 1.588-1.24 3.522-1.24 5.8 0 2.694.551 5.077 1.653 7.148 1.171 2.072 2.756 3.695 4.754 4.87 2.067 1.173 4.375 1.76 6.924 1.76 2.135 0 4.03-.38 5.683-1.14 1.723-.828 3.445-2.175 5.167-4.04l10.127 10.049c-2.962 3.108-6.269 5.421-9.92 6.94-3.651 1.45-7.751 2.176-12.297 2.176ZM404.804 92.757V41.79h20.255v50.967h-20.255Zm20.255-27.555-9.404-8.391c2.618-5.525 5.649-9.565 9.094-12.12 3.513-2.625 7.888-3.937 13.124-3.937 2.342 0 4.34.276 5.993.829 1.723.552 3.101 1.347 4.134 2.383l-11.367 16.16c-.483-.553-1.206-1.002-2.17-1.347-.896-.414-1.964-.622-3.204-.622-2.067 0-3.617.622-4.65 1.865-1.034 1.174-1.55 2.9-1.55 5.18Z"/><mask id="a" width="113" height="113" x="0" y="0" maskUnits="userSpaceOnUse" style="mask-type:alpha"><path fill="#F9FB7D" stroke="#F9FB7D" d="M.5.5h112v112H.5z"/></mask><g mask="url(#a)"><g filter="url(#b)"><path fill="#FAF471" d="M-805.751 115.886c50.987-34.059 101.973-68.118 152.958-66.437 50.986 1.68 101.973 39.1 152.959 66.437 50.985 27.336 101.971 44.592 152.957 4.92 50.987-39.67 101.973-136.267 152.958-135.335 50.986.933 102.417 110.086 153.403 128.802C10.469 132.988 61.01 61.266 111.997.235v189.47H-805.751v-73.819Z"/><path stroke="#F9FB7D" d="m-806.251 115.618.223-.148.016-.011c25.482-17.022 50.997-34.066 76.52-46.642 25.529-12.58 51.107-20.712 76.715-19.868 25.604.844 51.177 10.659 76.69 23.651 12.76 6.498 25.517 13.797 38.264 21.175l4.585 2.657c11.219 6.504 22.43 13.002 33.64 19.013 25.48 13.661 50.902 24.77 76.296 27.532 25.368 2.758 50.731-2.812 76.118-22.565 12.707-9.887 25.428-23.332 38.17-37.948 6.042-6.93 12.084-14.117 18.13-21.309l.984-1.17c6.373-7.58 12.75-15.15 19.127-22.402 12.752-14.502 25.526-27.76 38.315-37.338 12.786-9.574 25.641-15.51 38.548-15.274l-.009.5.009-.5c12.919.237 25.804 7.323 38.62 18.003 12.824 10.687 25.65 25.033 38.451 39.903 2.307 2.68 4.613 5.377 6.918 8.073 10.498 12.277 20.978 24.534 31.45 35.081 12.778 12.868 25.488 23.133 38.127 27.772 25.204 9.252 50.382-3.808 75.746-27.013C55.177 68.7 74.948 44.556 94.8 20.313 100.397 13.477 106 6.633 111.614-.085l.883-1.058V190.205H-346.877l-459.374-74.587Zm0 0v.268m0-.268v.268m0 0h.5-.5Zm306.716 74.319h-.299.299Zm0 0h.298m-.298 0h.298m0 0h.299m-.299 0h.299m0 0h.299m-.299 0h.299m0 0h.299m-.299 0h.299m0 0h.298m-.298 0h.298m0 0h.299m-.299 0h.299m0 0h.299m-.299 0h.299m0 0h.299m-.299 0h.299m0 0h.298m-.298 0h.298m0 0h.299m-.299 0h.299m0 0h.299m-.299 0h.299m0 0h.299m-.299 0h.299m0 0h.298m-.298 0h.298m0 0h.299m-.299 0h.299m0 0h.299m-.299 0h.299m0 0h.299m-.299 0h.299m0 0h.298m-.298 0h.298m0 0h.299m-.299 0h.299m0 0h.299m-.299 0h.299m0 0h.298m-.298 0h.298m0 0h.299m-.299 0h.299m0 0h.299m-.299 0h.299m0 0h.299m-.299 0h.299m0 0h.298m-.298 0h.298m0 0h.299m-.299 0h.299m0 0h.299m-.299 0h.299m0 0h.299m-.299 0h.299m0 0h.298m-.298 0h.298m0 0h.299m-.299 0h.299m0 0h.299m-.299 0h.299m0 0h.299m-.299 0h.299m0 0h.298m-.298 0h.298m0 0h.299m-.299 0h.299m0 0h.299m-.299 0h.299m0 0h.299m-.299 0h.299m0 0h.298m-.298 0h.298m0 0h.299m-.299 0h.299m0 0h.299m-.299 0h.299m0 0h.299m-.299 0h.299m0 0h.298m-.298 0h.298m0 0h.299m-.299 0h.299m0 0h.299m-.299 0h.299m0 0h.298m-.298 0h.298m0 0h.299m-.299 0h.299m0 0h.299m-.299 0h.299m0 0h.299m-.299 0h.299m0 0h.298m-.298 0h.298m0 0h.299m-.299 0h.299m0 0h.299m-.299 0h.299m0 0h.299m-.299 0h.299m0 0h.298m-.298 0h.298m0 0h.299m-.299 0h.299m0 0h.299m-.299 0h.299m0 0h.299m-.299 0h.299m0 0h.298m-.298 0h.298m0 0h.299m-.299 0h.299m0 0h.299m-.299 0h.299m0 0h.299m-.299 0h.299m0 0h.298m-.298 0h.298m0 0h.299m-.299 0h.299m0 0h.299m-.299 0h.299m0 0h.299m-.299 0h.299m0 0h.298m-.298 0h.298m0 0h.299m-.299 0h.299m0 0h.299m-.299 0h.299m0 0h.299m-.299 0h.299m0 0h.298m-.298 0h.298m0 0h.299m-.299 0h.299m0 0h.299m-.299 0h.299m0 0h.298m-.298 0h.298m0 0h.299m-.299 0h.299m0 0h.299m-.299 0h.299m0 0h.299m-.299 0h.299m0 0h.298m-.298 0h.298m0 0h.299m-.299 0h.299m0 0h.299m-.299 0h.299m0 0h.299m-.299 0h.299m0 0h.298m-.298 0h.298m0 0h.299m-.299 0h.299m0 0h.299m-.299 0h.299m0 0h.299m-.299 0h.299m0 0h.298m-.298 0h.298m0 0h.299m-.299 0h.299m0 0h.299m-.299 0h.299m0 0h.299m-.299 0h.299m0 0h.298m-.298 0h.298m0 0h.299m-.299 0h.299m0 0h.299m-.299 0h.299m0 0h.299m-.299 0h.299m0 0h.298m-.298 0h.298m0 0h.299m-.299 0h.299m0 0h.299m-.299 0h.299m0 0h.299m-.299 0h.299m0 0h.298m-.298 0h.298m0 0h.299m-.299 0h.299m0 0h.299m-.299 0h.299m0 0h.299m-.299 0h.299m0 0h.298m-.298 0h.298m0 0h.299m-.299 0h.299m0 0h.299m-.299 0h.299m0 0h.298m-.298 0h.298m0 0h.299m-.299 0h.299m0 0h.299m-.299 0h.299m0 0h.299m-.299 0h.299m0 0h.298m-.298 0h.298m0 0h.299m-.299 0h.299m0 0h.299m-.299 0h.299m0 0h.299m-.299 0h.299m0 0h.298m-.298 0h.298m0 0h.299m-.299 0h.299m0 0h.299m-.299 0h.299m0 0h.299m-.299 0h.299m0 0h.298m-.298 0h.298m0 0h.299m-.299 0h.299m0 0h.299m-.299 0h.299m0 0h.299m-.299 0h.299m0 0h.298m-.298 0h.298m0 0h.299m-.299 0h.299m0 0h.299m-.299 0h.299m0 0h.299m-.299 0h.299m0 0h.298m-.298 0h.298m0 0h.299m-.299 0h.299m0 0h.299m-.299 0h.299m0 0h.299m-.299 0h.299m0 0h.298m-.298 0h.298m0 0h.299m-.299 0h.299m0 0h.299m-.299 0h.299m0 0h.299m-.299 0h.299m0 0h.298m-.298 0h.298m0 0h.299m-.299 0h.299m0 0h.299m-.299 0h.299m0 0h.298m-.298 0h.298m0 0h.299m-.299 0h.299m0 0h.299m-.299 0h.299m0 0h.299m-.299 0h.299m0 0h.298m-.298 0h.298m0 0h.299m-.299 0h.299m0 0h.299m-.299 0h.299m0 0h.299m-.299 0h.299m0 0h.298m-.298 0h.298m0 0h.299m-.299 0h.299m0 0h.299m-.299 0h.299m0 0h.299m-.299 0h.299m0 0h.298m-.298 0h.298m0 0h.299m-.299 0h.299m0 0h.299m-.299 0h.299m0 0h.299m-.299 0h.299m0 0h.298m-.298 0h.298m0 0h.299m-.299 0h.299m0 0h.299m-.299 0h.299m0 0h.299m-.299 0h.299m0 0h.298m-.298 0h.298m0 0h.299m-.299 0h.299m0 0h.299m-.299 0h.299m0 0h.299m-.299 0h.299m0 0h.298m-.298 0h.298m0 0h.299m-.299 0h.299m0 0h.299m-.299 0h.299m0 0h.299m-.299 0h.299m0 0h.298m-.298 0h.298m0 0h.299m-.299 0h.299m0 0h.299m-.299 0h.299m0 0h.299m-.299 0h.299m0 0h.298m-.298 0h.298m0 0h.299m-.299 0h.299m0 0h.299m-.299 0h.299m0 0h.299m-.299 0h.299m0 0h.298m-.298 0h.298m0 0h.299m-.299 0h.299m0 0h.299m-.299 0h.299m0 0h.298m-.298 0h.298m0 0h.299m-.299 0h.299m0 0h.299m-.299 0h.299m0 0h.299m-.299 0h.299m0 0h.298m-.298 0h.298m0 0h.299m-.299 0h.299m0 0h.299m-.299 0h.299m0 0h.299m-.299 0h.299m0 0h.298m-.298 0h.298m0 0h.299m-.299 0h.299m0 0h.299m-.299 0h.299m0 0h.299m-.299 0h.299m0 0h.298m-.298 0h.298m0 0h.299m-.299 0h.299m0 0h.299m-.299 0h.299m0 0h.299m-.299 0h.299m0 0h.298m-.298 0h.298m0 0h.299m-.299 0h.299m0 0h.299m-.299 0h.299m0 0h.299m-.299 0h.299m0 0h.298m-.298 0h.298m0 0h.299m-.299 0h.299m0 0h.299m-.299 0h.299m0 0h.299m-.299 0h.299m0 0h.298m-.298 0h.298m0 0h.299m-.299 0h.299m0 0h.299m-.299 0h.299m0 0h.299m-.299 0h.299m0 0h.298m-.298 0h.298m0 0h.299m-.299 0h.299m0 0h.299m-.299 0h.299m0 0h.299m-.299 0h.299m0 0h.298m-.298 0h.298m0 0h.299m-.299 0h.299m0 0h.299m-.299 0h.299m0 0h.299m-.299 0h.299m0 0h.298m-.298 0h.298m0 0h.299m-.299 0h.299m0 0h.299m-.299 0h.299m0 0h.299m-.299 0h.299m0 0h.298m-.298 0h.298m0 0h.299m-.299 0h.299m0 0h.299m-.299 0h.299m0 0h.299m-.299 0h.299m0 0h.298m-.298 0h.298m0 0h.299m-.299 0h.299m0 0h.299m-.299 0h.299m0 0h.298m-.298 0h.298m0 0h.299m-.299 0h.299m0 0h.299m-.299 0h.299m0 0h.299m-.299 0h.299m0 0h.298m-.298 0h.298m0 0h.299m-.299 0h.299m0 0h.299m-.299 0h.299m0 0h.299m-.299 0h.299m0 0h.298m-.298 0h.298m0 0h.299m-.299 0h.299m0 0h.299m-.299 0h.299m0 0h.299m-.299 0h.299m0 0h.298m-.298 0h.298m0 0h.299m-.299 0h.299m0 0h.299m-.299 0h.299m0 0h.299m-.299 0h.299m0 0h.298m-.298 0h.298m0 0h.299m-.299 0h.299m0 0h.299m-.299 0h.299m0 0h.299m-.299 0h.299m0 0h.298m-.298 0h.298m0 0h.299m-.299 0h.299m0 0h.299m-.299 0h.299m0 0h.299m-.299 0h.299m0 0h.298m-.298 0h.298m0 0h.299m-.299 0h.299m0 0h.299m-.299 0h.299m0 0h.299m-.299 0h.299m0 0h.298m-.298 0h.298m0 0h.299m-.299 0h.299m0 0h.299m-.299 0h.299m0 0h.299m-.299 0h.299m0 0h.298m-.298 0h.298m0 0h.299m-.299 0h.299m0 0h.299m-.299 0h.299m0 0h.299m-.299 0h.299m0 0h.298m-.298 0h.298m0 0h.299m-.299 0h.299m0 0h.299m-.299 0h.299m0 0h.299m-.299 0h.299m0 0h.298m-.298 0h.298m0 0h.299m-.299 0h.299m0 0h.299m-.299 0h.299m0 0h.299m-.299 0h.299m0 0h.298m-.298 0h.298m0 0h.299m-.299 0h.299m0 0h.299m-.299 0h.299m0 0h.299m-.299 0h.299m0 0h.298m-.298 0h.298m0 0h.299m-.299 0h.299m0 0h.299m-.299 0h.299m0 0h.299m-.299 0h.299m0 0h.298m-.298 0h.298m0 0h.299m-.299 0h.299m0 0h.299m-.299 0h.299m0 0h.298m-.298 0h.298m0 0h.299m-.299 0h.299m0 0h.299m-.299 0h.299m0 0h.299m-.299 0h.299m0 0h.298m-.298 0h.298m0 0h.299m-.299 0h.299m0 0h.299m-.299 0h.299m0 0h.299m-.299 0h.299m0 0h.298m-.298 0h.298m0 0h.299m-.299 0h.299m0 0h.299m-.299 0h.299m0 0h.299m-.299 0h.299m0 0h.298m-.298 0h.298m0 0h.299m-.299 0h.299m0 0h.299m-.299 0h.299m0 0h.299m-.299 0h.299m0 0h.298m-.298 0h.298m0 0h.299m-.299 0h.299m0 0h.299m-.299 0h.299m0 0h.299m-.299 0h.299m0 0h.298m-.298 0h.298m0 0h.299m-.299 0h.299m0 0h.299m-.299 0h.299m0 0h.299m-.299 0h.299m0 0h.298m-.298 0h.298m0 0h.299m-.299 0h.299m0 0h.299m-.299 0h.299m0 0h.299m-.299 0h.299m0 0h.298m-.298 0h.298m0 0h.299m-.299 0h.299m0 0h.299m-.299 0h.299m0 0h.299m-.299 0h.299m0 0h.298m-.298 0h.298m0 0h.299m-.299 0h.299m0 0h.299m-.299 0h.299m0 0h.299m-.299 0h.299m0 0h.298m-.298 0h.298m0 0h.299m-.299 0h.299m0 0h.299m-.299 0h.299m0 0h.299m-.299 0h.299m0 0h.298m-.298 0h.298m0 0h.299m-.299 0h.299m0 0h.299m-.299 0h.299m0 0h.299m-.299 0h.299m0 0h.298m-.298 0h.298m0 0h.299m-.299 0h.299m0 0h.299m-.299 0h.299m0 0h.299m-.299 0h.299m0 0h.298m-.298 0h.298m0 0h.299m-.299 0h.299m0 0h.299m-.299 0h.299m0 0h.299m-.299 0h.299m0 0h.298m-.298 0h.298m0 0h.299m-.299 0h.299m0 0h.299m-.299 0h.299m0 0h.299m-.299 0h.299m0 0h.298m-.298 0h.298m0 0h.299m-.299 0h.299m0 0h.299m-.299 0h.299m0 0h.299m-.299 0h.299m0 0h.298m-.298 0h.298m0 0h.299m-.299 0h.299m0 0h.299m-.299 0h.299m0 0h.299m-.299 0h.299m0 0h.298m-.298 0h.298m0 0h.299m-.299 0h.299m0 0h.299m-.299 0h.299m0 0h.299m-.299 0h.299m0 0h.298m-.298 0h.298m0 0h.299m-.299 0h.299m0 0h.299m-.299 0h.299m0 0h.299m-.299 0h.299m0 0h.298m-.298 0h.298m0 0h.299m-.299 0h.299m0 0h.299m-.299 0h.299m0 0h.298m-.298 0h.298m0 0h.299m-.299 0h.299m0 0h.299m-.299 0h.299m0 0h.299m-.299 0h.299m0 0h.298m-.298 0h.298m0 0h.299m-.299 0h.299m0 0h.299m-.299 0h.299m0 0h.299m-.299 0h.299m0 0h.298m-.298 0h.298m0 0h.299m-.299 0h.299m0 0h.299m-.299 0h.299m0 0h.299m-.299 0h.299m0 0h.298m-.298 0h.298m0 0h.299m-.299 0h.299m0 0h.299m-.299 0h.299m0 0h.299m-.299 0h.299m0 0h.298m-.298 0h.298m0 0h.299m-.299 0h.299m0 0h.299m-.299 0h.299m0 0h.299m-.299 0h.299m0 0h.298m-.298 0h.298m0 0h.299m-.299 0h.299m0 0h.299m-.299 0h.299m0 0h.299m-.299 0h.299m0 0h.298m-.298 0h.298m0 0h.299m-.299 0h.299m0 0h.299m-.299 0h.299m0 0h.299m-.299 0h.299m0 0h.298m-.298 0h.298m0 0h.299m-.299 0h.299m0 0h.299m-.299 0h.299m0 0h.299m-.299 0h.299m0 0h.298m-.298 0h.298m0 0h.299m-.299 0h.299m0 0h.299m-.299 0h.299m0 0h.299m-.299 0h.299m0 0h.298m-.298 0h.298m0 0h.299m-.299 0h.299m0 0h.299m-.299 0h.299m0 0h.299m-.299 0h.299m0 0h.298m-.298 0h.298m0 0h.299m-.299 0h.299m0 0h.299m-.299 0h.299m0 0h.299m-.299 0h.299m0 0h.298m-.298 0h.298m0 0h.299m-.299 0h.299m0 0h.299m-.299 0h.299m0 0h.299m-.299 0h.299m0 0h.298m-.298 0h.298m0 0h.299m-.299 0h.299m0 0h.299m-.299 0h.299m0 0h.299m-.299 0h.299m0 0h.298m-.298 0h.298m0 0h.299m-.299 0h.299m0 0h.299m-.299 0h.299m0 0h.299m-.299 0h.299m0 0h.298m-.298 0h.298m0 0h.299m-.299 0h.299m0 0h.299m-.299 0h.299m0 0h.299m-.299 0h.299m0 0h.298m-.298 0h.298m0 0h.299m-.299 0h.299m0 0h.299m-.299 0h.299m0 0h.299m-.299 0h.299m0 0h.298m-.298 0h.298m0 0h.299m-.299 0h.299m0 0h.299m-.299 0h.299m0 0h.299m-.299 0h.299m0 0h.298m-.298 0h.298m0 0h.299m-.299 0h.299m0 0h.299m-.299 0h.299m0 0h.299m-.299 0h.299m0 0h.298-.298Z"/></g><g filter="url(#c)"><path fill="#FAEE66" fill-rule="evenodd" d="m-412.367 41.752 22.218 8.814c22.219 8.814 66.656 26.443 111.093 30.85s88.874-4.407 133.311 4.407c44.437 8.814 88.874 35.257 133.31 28.646 44.438-6.61 88.874-46.274 111.093-66.106l22.219-19.832v118.992h-533.244V41.752Z" clip-rule="evenodd"/><path stroke="#F9FB7D" d="m-412.867 41.016.684.271 22.218 8.814c22.225 8.817 66.6 26.418 110.958 30.817 19.01 1.886 38.019 1.347 57.065.808 3.175-.09 6.351-.18 9.529-.26 22.221-.55 44.488-.552 66.765 3.867 15.489 3.072 30.996 8.287 46.467 13.49 6.755 2.272 13.502 4.542 20.24 6.63 22.202 6.881 44.33 11.81 66.433 8.522 22.11-3.289 44.254-14.81 63.67-28.015 19.411-13.2 36.053-28.054 47.163-37.97l22.219-19.833.833-.743v120.609H-279.056L-412.867 41.016Zm0 0v.736m0-.736v.736m0 0h.5m-.5 0h.5m0 0 22.218 8.814c22.219 8.814 66.656 26.443 111.093 30.85 19.044 1.889 38.088 1.349 57.133.81 25.392-.72 50.785-1.44 76.178 3.597 15.456 3.066 30.912 8.264 46.369 13.463 28.98 9.747 57.96 19.494 86.942 15.183 44.436-6.61 88.873-46.274 111.092-66.106l21.719-19.386v-.447h.5l.332.373-.332.298v118.322h-533.244m0-105.771v.538m0-.538-.185.465.185.073m0-.538v.538m0 105.233h-.5v.5h.5v-.5Zm0 0V42.29m22.349 105.733h-.131.131Zm0 0h.13m-.13 0h.13m0 0h.132m-.132 0h.132m0 0h.132m-.132 0h.132m0 0h.132m-.132 0h.132m0 0h.133m-.133 0h.133m0 0h.134m-.134 0h.134m0 0h.134m-.134 0h.134m0 0h.134m-.134 0h.134m0 0h.135m-.135 0h.135m0 0h.136m-.136 0h.136m0 0h.136m-.136 0h.136m0 0h.136m-.136 0h.136m0 0h.137m-.137 0h.137m0 0h.138m-.138 0h.138m0 0h.137m-.137 0h.137m0 0h.139m-.139 0h.139m0 0h.139m-.139 0h.139m0 0h.139m-.139 0h.139m0 0h.14m-.14 0h.14m0 0h.141m-.141 0h.141m0 0h.14m-.14 0h.14m0 0h.142m-.142 0h.142m0 0h.142m-.142 0h.142m0 0h.142m-.142 0h.142m0 0h.143m-.143 0h.143m0 0h.143m-.143 0h.143m0 0h.144m-.144 0h.144m0 0h.144m-.144 0h.144m0 0h.145m-.145 0h.145m0 0h.145m-.145 0h.145m0 0h.146m-.146 0h.146m0 0h.146m-.146 0h.146m0 0h.147m-.147 0h.147m0 0h.147m-.147 0h.147m0 0h.148m-.148 0h.148m0 0h.148m-.148 0h.148m0 0h.148m-.148 0h.148m0 0h.149m-.149 0h.149m0 0h.15m-.15 0h.15m0 0h.15m-.15 0h.15m0 0h.15m-.15 0h.15m0 0h.151m-.151 0h.151m0 0h.151m-.151 0h.151m0 0h.152m-.152 0h.152m0 0h.153m-.153 0h.153m0 0h.152m-.152 0h.152m0 0h.154m-.154 0h.154m0 0h.153m-.153 0h.153m0 0h.154m-.154 0h.154m0 0h.155m-.155 0h.155m0 0h.155m-.155 0h.155m0 0h.156m-.156 0h.156m0 0h.156m-.156 0h.156m0 0h.156m-.156 0h.156m0 0h.157m-.157 0h.157m0 0h.157m-.157 0h.157m0 0h.158m-.158 0h.158m0 0h.158m-.158 0h.158m0 0h.159m-.159 0h.159m0 0h.159m-.159 0h.159m0 0h.16m-.16 0h.16m0 0h.16m-.16 0h.16m0 0h.16m-.16 0h.16m0 0h.161m-.161 0h.161m0 0h.161m-.161 0h.161m0 0h.162m-.162 0h.162m0 0h.162m-.162 0h.162m0 0h.163m-.163 0h.163m0 0h.163m-.163 0h.163m0 0h.164m-.164 0h.164m0 0h.164m-.164 0h.164m0 0h.164m-.164 0h.164m0 0h.165m-.165 0h.165m0 0h.165m-.165 0h.165m0 0h.166m-.166 0h.166m0 0h.166m-.166 0h.166m0 0h.167m-.167 0h.167m0 0h.167m-.167 0h.167m0 0h.168m-.168 0h.168m0 0h.167m-.167 0h.167m0 0h.169m-.169 0h.169m0 0h.169m-.169 0h.169m0 0h.169m-.169 0h.169m0 0h.169m-.169 0h.169m0 0h.17m-.17 0h.17m0 0h.171m-.171 0h.171m0 0h.171m-.171 0h.171m0 0h.171m-.171 0h.171m0 0h.172m-.172 0h.172m0 0h.172m-.172 0h.172m0 0h.172m-.172 0h.172m0 0h.173m-.173 0h.173m0 0h.174m-.174 0h.174m0 0h.174m-.174 0h.174m0 0h.174m-.174 0h.174m0 0h.175m-.175 0h.175m0 0h.175m-.175 0h.175m0 0h.175m-.175 0h.175m0 0h.176m-.176 0h.176m0 0h.176m-.176 0h.176m0 0h.177m-.177 0h.177m0 0h.177m-.177 0h.177m0 0h.177m-.177 0h.177m0 0h.178m-.178 0h.178m0 0h.179m-.179 0h.179m0 0h.178m-.178 0h.178m0 0h.179m-.179 0h.179m0 0h.18m-.18 0h.18m0 0h.18m-.18 0h.18m0 0h.18m-.18 0h.18m0 0h.181m-.181 0h.181m0 0h.181m-.181 0h.181m0 0h.182m-.182 0h.182m0 0h.181m-.181 0h.181m0 0h.183m-.183 0h.183m0 0h.182m-.182 0h.182m0 0h.184m-.184 0h.184m0 0h.183m-.183 0h.183m0 0h.184m-.184 0h.184m0 0h.184m-.184 0h.184m0 0h.185m-.185 0h.185m0 0h.185m-.185 0h.185m0 0h.185m-.185 0h.185m0 0h.186m-.186 0h.186m0 0h.186m-.186 0h.186m0 0h.187m-.187 0h.187m0 0h.187m-.187 0h.187m0 0h.187m-.187 0h.187m0 0h.188m-.188 0h.188m0 0h.188m-.188 0h.188m0 0h.188m-.188 0h.188m0 0h.189m-.189 0h.189m0 0h.189m-.189 0h.189m0 0h.19m-.19 0h.19m0 0h.19m-.19 0h.19m0 0h.19m-.19 0h.19m0 0h.191m-.191 0h.191m0 0h.191m-.191 0h.191m0 0h.192m-.192 0h.192m0 0h.191m-.191 0h.191m0 0h.193m-.193 0h.193m0 0h.192m-.192 0h.192m0 0h.193m-.193 0h.193m0 0h.193m-.193 0h.193m0 0h.194m-.194 0h.194m0 0h.194m-.194 0h.194m0 0h.195m-.195 0h.195m0 0h.194m-.194 0h.194m0 0h.195m-.195 0h.195m0 0h.196m-.196 0h.196m0 0h.196m-.196 0h.196m0 0h.196m-.196 0h.196m0 0h.196m-.196 0h.196m0 0h.197m-.197 0h.197m0 0h.198m-.198 0h.198m0 0h.197m-.197 0h.197m0 0h.198m-.198 0h.198m0 0h.199m-.199 0h.199m0 0h.198m-.198 0h.198m0 0h.199m-.199 0h.199m0 0h.2m-.2 0h.2m0 0h.199m-.199 0h.199m0 0h.2m-.2 0h.2m0 0h.201m-.201 0h.201m0 0h.2m-.2 0h.2m0 0h.202m-.202 0h.202m0 0h.201m-.201 0h.201m0 0h.202m-.202 0h.202m0 0h.202m-.202 0h.202m0 0h.202m-.202 0h.202m0 0h.203m-.203 0h.203m0 0h.203m-.203 0h.203m0 0h.204m-.204 0h.204m0 0h.204m-.204 0h.204m0 0h.204m-.204 0h.204m0 0h.204m-.204 0h.204m0 0h.205m-.205 0h.205m0 0h.205m-.205 0h.205m0 0h.206m-.206 0h.206m0 0h.205m-.205 0h.205m0 0h.206m-.206 0h.206m0 0h.207m-.207 0h.207m0 0h.207m-.207 0h.207m0 0h.207m-.207 0h.207m0 0h.207m-.207 0h.207m0 0h.208m-.208 0h.208m0 0h.208m-.208 0h.208m0 0h.209m-.209 0h.209m0 0h.208m-.208 0h.208m0 0h.209m-.209 0h.209m0 0h.21m-.21 0h.21m0 0h.209m-.209 0h.209m0 0h.21m-.21 0h.21m0 0h.211m-.211 0h.211m0 0h.21m-.21 0h.21m0 0h.211m-.211 0h.211m0 0h.211m-.211 0h.211m0 0h.212m-.212 0h.212m0 0h.212m-.212 0h.212m0 0h.212m-.212 0h.212m0 0h.213m-.213 0h.213m0 0h.212m-.212 0h.212m0 0h.213m-.213 0h.213m0 0h.214m-.214 0h.214m0 0h.214m-.214 0h.214m0 0h.214m-.214 0h.214m0 0h.214m-.214 0h.214m0 0h.215m-.215 0h.215m0 0h.214m-.214 0h.214m0 0h.216m-.216 0h.216m0 0h.215m-.215 0h.215m0 0h.216m-.216 0h.216m0 0h.216m-.216 0h.216m0 0h.217m-.217 0h.217m0 0h.216m-.216 0h.216m0 0h.217m-.217 0h.217m0 0h.218m-.218 0h.218m0 0h.217m-.217 0h.217m0 0h.218m-.218 0h.218m0 0h.218m-.218 0h.218m0 0h.219m-.219 0h.219m0 0h.219m-.219 0h.219m0 0h.219m-.219 0h.219m0 0h.219m-.219 0h.219m0 0h.219m-.219 0h.219m0 0h.22m-.22 0h.22m0 0h.221m-.221 0h.221m0 0h.22m-.22 0h.22m0 0h.221m-.221 0h.221m0 0h.221m-.221 0h.221m0 0h.221m-.221 0h.221m0 0h.222m-.222 0h.222m0 0h.221m-.221 0h.221m0 0h.223m-.223 0h.223m0 0h.222m-.222 0h.222m0 0h.223m-.223 0h.223m0 0h.223m-.223 0h.223m0 0h.223m-.223 0h.223m0 0h.223m-.223 0h.223m0 0h.224m-.224 0h.224m0 0h.224m-.224 0h.224m0 0h.224m-.224 0h.224m0 0h.225m-.225 0h.225m0 0h.225m-.225 0h.225m0 0h.225m-.225 0h.225m0 0h.225m-.225 0h.225m0 0h.226m-.226 0h.226m0 0h.226m-.226 0h.226m0 0h.226m-.226 0h.226m0 0h.226m-.226 0h.226m0 0h.227m-.227 0h.227m0 0h.227m-.227 0h.227m0 0h.227m-.227 0h.227m0 0h.228m-.228 0h.228m0 0h.227m-.227 0h.227m0 0h.228m-.228 0h.228m0 0h.229m-.229 0h.229m0 0h.228m-.228 0h.228m0 0h.229m-.229 0h.229m0 0h.229m-.229 0h.229m0 0h.229m-.229 0h.229m0 0h.229m-.229 0h.229m0 0h.23m-.23 0h.23m0 0h.23m-.23 0h.23m0 0h.23m-.23 0h.23m0 0h.231m-.231 0h.231m0 0h.23m-.23 0h.23m0 0h.231m-.231 0h.231m0 0h.231m-.231 0h.231m0 0h.232m-.232 0h.232m0 0h.231m-.231 0h.231m0 0h.232m-.232 0h.232m0 0h.232m-.232 0h.232m0 0h.233m-.233 0h.233m0 0h.232m-.232 0h.232m0 0h.233m-.233 0h.233m0 0h.233m-.233 0h.233m0 0h.234m-.234 0h.234m0 0h.233m-.233 0h.233m0 0h.234m-.234 0h.234m0 0h.234m-.234 0h.234m0 0h.234m-.234 0h.234m0 0h.235m-.235 0h.235m0 0h.234m-.234 0h.234m0 0h.235m-.235 0h.235m0 0h.235m-.235 0h.235m0 0h.236m-.236 0h.236m0 0h.235m-.235 0h.235m0 0h.236m-.236 0h.236m0 0h.236m-.236 0h.236m0 0h.236m-.236 0h.236m0 0h.237m-.237 0h.237m0 0h.236m-.236 0h.236m0 0h.237m-.237 0h.237m0 0h.237m-.237 0h.237m0 0h.238m-.238 0h.238m0 0h.237m-.237 0h.237m0 0h.238m-.238 0h.238m0 0h.238m-.238 0h.238m0 0h.238m-.238 0h.238m0 0h.238m-.238 0h.238m0 0h.239m-.239 0h.239m0 0h.239m-.239 0h.239m0 0h.239m-.239 0h.239m0 0h.239m-.239 0h.239m0 0h.239m-.239 0h.239m0 0h.24m-.24 0h.24m0 0h.24m-.24 0h.24m0 0h.24m-.24 0h.24m0 0h.24m-.24 0h.24m0 0h.24m-.24 0h.24m0 0h.241m-.241 0h.241m0 0h.241m-.241 0h.241m0 0h.241m-.241 0h.241m0 0h.241m-.241 0h.241m0 0h.241m-.241 0h.241m0 0h.242m-.242 0h.242m0 0h.242m-.242 0h.242m0 0h.242m-.242 0h.242m0 0h.242m-.242 0h.242m0 0h.242m-.242 0h.242m0 0h.243m-.243 0h.243m0 0h.242m-.242 0h.242m0 0h.243m-.243 0h.243m0 0h.243m-.243 0h.243m0 0h.244m-.244 0h.244m0 0h.243m-.243 0h.243m0 0h.244m-.244 0h.244m0 0h.244m-.244 0h.244m0 0h.244m-.244 0h.244m0 0h.244m-.244 0h.244m0 0h.244m-.244 0h.244m0 0h.245m-.245 0h.245m0 0h.244m-.244 0h.244m0 0h.245m-.245 0h.245m0 0h.245m-.245 0h.245m0 0h.246m-.246 0h.246m0 0h.245m-.245 0h.245m0 0h.246m-.246 0h.246m0 0h.246m-.246 0h.246m0 0h.245m-.245 0h.245m0 0h.247m-.247 0h.247m0 0h.246m-.246 0h.246m0 0h.246m-.246 0h.246m0 0h.247m-.247 0h.247m0 0h.247m-.247 0h.247m0 0h.247m-.247 0h.247m0 0h.247m-.247 0h.247m0 0h.247m-.247 0h.247m0 0h.247m-.247 0h.247m0 0h.248m-.248 0h.248m0 0h.248m-.248 0h.248m0 0h.248m-.248 0h.248m0 0h.248m-.248 0h.248m0 0h.248m-.248 0h.248m0 0h.248m-.248 0h.248m0 0h.249m-.249 0h.249m0 0h.248m-.248 0h.248m0 0h.249m-.249 0h.249m0 0h.249m-.249 0h.249m0 0h.249m-.249 0h.249m0 0h.25m-.25 0h.25m0 0h.249m-.249 0h.249m0 0h.25m-.25 0h.25m0 0h.249m-.249 0h.249m0 0h.25m-.25 0h.25m0 0h.25m-.25 0h.25m0 0h.25m-.25 0h.25m0 0h.251m-.251 0h.251m0 0h.25m-.25 0h.25m0 0h.251m-.251 0h.251m0 0h.25m-.25 0h.25m0 0h.251m-.251 0h.251m0 0h.251m-.251 0h.251m0 0h.251m-.251 0h.251m0 0h.251m-.251 0h.251m0 0h.252m-.252 0h.252m0 0h.251m-.251 0h.251m0 0h.252m-.252 0h.252m0 0h.252m-.252 0h.252m0 0h.252m-.252 0h.252m0 0h.252m-.252 0h.252m0 0h.252m-.252 0h.252m0 0h.252m-.252 0h.252m0 0h.253m-.253 0h.253m0 0h.252m-.252 0h.252m0 0h.253m-.253 0h.253m0 0h.253m-.253 0h.253m0 0h.253m-.253 0h.253m0 0h.253m-.253 0h.253m0 0h.253m-.253 0h.253m0 0h.253m-.253 0h.253m0 0h.254m-.254 0h.254m0 0h.253m-.253 0h.253m0 0h.254m-.254 0h.254m0 0h.253m-.253 0h.253m0 0h.254m-.254 0h.254m0 0h.254m-.254 0h.254m0 0h.254m-.254 0h.254m0 0h.255m-.255 0h.255m0 0h.254m-.254 0h.254m0 0h.254m-.254 0h.254m0 0h.255m-.255 0h.255m0 0h.254m-.254 0h.254m0 0h.255m-.255 0h.255m0 0h.255m-.255 0h.255m0 0h.255m-.255 0h.255m0 0h.255m-.255 0h.255m0 0h.255m-.255 0h.255m0 0h.255m-.255 0h.255m0 0h.256m-.256 0h.256m0 0h.255m-.255 0h.255m0 0h.256m-.256 0h.256m0 0h.255m-.255 0h.255m0 0h.256m-.256 0h.256m0 0h.256m-.256 0h.256m0 0h.256m-.256 0h.256m0 0h.256m-.256 0h.256m0 0h.256m-.256 0h.256m0 0h.256m-.256 0h.256m0 0h.257m-.257 0h.257m0 0h.256m-.256 0h.256m0 0h.257m-.257 0h.257m0 0h.256m-.256 0h.256m0 0h.257m-.257 0h.257m0 0h.257m-.257 0h.257m0 0h.256m-.256 0h.256m0 0h.257m-.257 0h.257m0 0h.257m-.257 0h.257m0 0h.257m-.257 0h.257m0 0h.257m-.257 0h.257m0 0h.258m-.258 0h.258m0 0h.257m-.257 0h.257m0 0h.257m-.257 0h.257m0 0h.258m-.258 0h.258m0 0h.257m-.257 0h.257m0 0h.258m-.258 0h.258m0 0h.258m-.258 0h.258m0 0h.257m-.257 0h.257m0 0h.258m-.258 0h.258m0 0h.258m-.258 0h.258m0 0h.258m-.258 0h.258m0 0h.258m-.258 0h.258m0 0h.258m-.258 0h.258m0 0h.259-.259Z"/></g><g filter="url(#d)"><path fill="#FAE95C" fill-rule="evenodd" d="m-400.38 110.232 22.2-4.551c22.2-4.551 66.6-13.653 111-11.377 44.4 2.275 88.8 15.928 133.2 22.755 44.4 6.826 88.8 6.826 133.2-4.551 44.4-11.378 88.8-34.133 111-45.51l22.2-11.378v109.224h-532.8v-54.612Z" clip-rule="evenodd"/><path stroke="#F9FB7D" d="m-400.88 109.824.399-.082 22.2-4.551.012-.002c22.201-4.551 66.651-13.663 111.114-11.385 22.24 1.14 44.47 5.129 66.675 9.681a2754.383 2754.383 0 0 1 16.664 3.487c16.646 3.519 33.277 7.035 49.912 9.592 44.35 6.819 88.68 6.816 133-4.541 44.338-11.361 88.69-34.09 110.896-45.47l22.2-11.378.728-.373v110.542H-267.18l-133.7-55.52Zm0 0v.408m0-.408v.408m0 0h.5m-.5 0h.5m0 0v54.612m0-54.612 22.2-4.551c22.2-4.551 66.6-13.653 111-11.377 27.75 1.422 55.5 7.288 83.25 13.155 16.65 3.52 33.3 7.04 49.95 9.6 44.4 6.826 88.8 6.826 133.2-4.551 44.4-11.378 88.8-34.133 111-45.51l21.7-11.122v-.256h.5l.228.445-.228.117v108.662h-532.8m0 0h-.5v.5h.5v-.5Zm22.33.5h-.13.13Zm0 0h.131m-.131 0h.131m0 0h.131m-.131 0h.131m0 0h.132m-.132 0h.132m0 0h.132m-.132 0h.132m0 0h.133m-.133 0h.133m0 0h.134m-.134 0h.134m0 0h.133m-.133 0h.133m0 0h.135m-.135 0h.135m0 0h.135m-.135 0h.135m0 0h.135m-.135 0h.135m0 0h.136m-.136 0h.136m0 0h.136m-.136 0h.136m0 0h.137m-.137 0h.137m0 0h.137m-.137 0h.137m0 0h.138m-.138 0h.138m0 0h.139m-.139 0h.139m0 0h.138m-.138 0h.138m0 0h.14m-.14 0h.14m0 0h.139m-.139 0h.139m0 0h.141m-.141 0h.141m0 0h.141m-.141 0h.141m0 0h.141m-.141 0h.141m0 0h.142m-.142 0h.142m0 0h.142m-.142 0h.142m0 0h.142m-.142 0h.142m0 0h.144m-.144 0h.144m0 0h.143m-.143 0h.143m0 0h.145m-.145 0h.145m0 0h.144m-.144 0h.144m0 0h.145m-.145 0h.145m0 0h.146m-.146 0h.146m0 0h.146m-.146 0h.146m0 0h.146m-.146 0h.146m0 0h.147m-.147 0h.147m0 0h.148m-.148 0h.148m0 0h.148m-.148 0h.148m0 0h.148m-.148 0h.148m0 0h.149m-.149 0h.149m0 0h.15m-.15 0h.15m0 0h.15m-.15 0h.15m0 0h.15m-.15 0h.15m0 0h.151m-.151 0h.151m0 0h.151m-.151 0h.151m0 0h.152m-.152 0h.152m0 0h.152m-.152 0h.152m0 0h.152m-.152 0h.152m0 0h.153m-.153 0h.153m0 0h.154m-.154 0h.154m0 0h.154m-.154 0h.154m0 0h.154m-.154 0h.154m0 0h.155m-.155 0h.155m0 0h.156m-.156 0h.156m0 0h.156m-.156 0h.156m0 0h.156m-.156 0h.156m0 0h.157m-.157 0h.157m0 0h.157m-.157 0h.157m0 0h.158m-.158 0h.158m0 0h.158m-.158 0h.158m0 0h.158m-.158 0h.158m0 0h.159m-.159 0h.159m0 0h.16m-.16 0h.16m0 0h.16m-.16 0h.16m0 0h.16m-.16 0h.16m0 0h.161m-.161 0h.161m0 0h.161m-.161 0h.161m0 0h.162m-.162 0h.162m0 0h.162m-.162 0h.162m0 0h.162m-.162 0h.162m0 0h.163m-.163 0h.163m0 0h.164m-.164 0h.164m0 0h.164m-.164 0h.164m0 0h.164m-.164 0h.164m0 0h.165m-.165 0h.165m0 0h.165m-.165 0h.165m0 0h.165m-.165 0h.165m0 0h.166m-.166 0h.166m0 0h.167m-.167 0h.167m0 0h.167m-.167 0h.167m0 0h.167m-.167 0h.167m0 0h.168m-.168 0h.168m0 0h.168m-.168 0h.168m0 0h.169m-.169 0h.169m0 0h.169m-.169 0h.169m0 0h.169m-.169 0h.169m0 0h.17m-.17 0h.17m0 0h.17m-.17 0h.17m0 0h.171m-.171 0h.171m0 0h.171m-.171 0h.171m0 0h.172m-.172 0h.172m0 0h.172m-.172 0h.172m0 0h.172m-.172 0h.172m0 0h.173m-.173 0h.173m0 0h.173m-.173 0h.173m0 0h.174m-.174 0h.174m0 0h.174m-.174 0h.174m0 0h.175m-.175 0h.175m0 0h.175m-.175 0h.175m0 0h.175m-.175 0h.175m0 0h.176m-.176 0h.176m0 0h.176m-.176 0h.176m0 0h.176m-.176 0h.176m0 0h.177m-.177 0h.177m0 0h.178m-.178 0h.178m0 0h.177m-.177 0h.177m0 0h.179m-.179 0h.179m0 0h.178m-.178 0h.178m0 0h.179m-.179 0h.179m0 0h.179m-.179 0h.179m0 0h.18m-.18 0h.18m0 0h.18m-.18 0h.18m0 0h.181m-.181 0h.181m0 0h.181m-.181 0h.181m0 0h.181m-.181 0h.181m0 0h.182m-.182 0h.182m0 0h.182m-.182 0h.182m0 0h.183m-.183 0h.183m0 0h.183m-.183 0h.183m0 0h.183m-.183 0h.183m0 0h.184m-.184 0h.184m0 0h.184m-.184 0h.184m0 0h.184m-.184 0h.184m0 0h.185m-.185 0h.185m0 0h.185m-.185 0h.185m0 0h.186m-.186 0h.186m0 0h.186m-.186 0h.186m0 0h.186m-.186 0h.186m0 0h.187m-.187 0h.187m0 0h.187m-.187 0h.187m0 0h.188m-.188 0h.188m0 0h.188m-.188 0h.188m0 0h.188m-.188 0h.188m0 0h.189m-.189 0h.189m0 0h.189m-.189 0h.189m0 0h.189m-.189 0h.189m0 0h.19m-.19 0h.19m0 0h.19m-.19 0h.19m0 0h.191m-.191 0h.191m0 0h.191m-.191 0h.191m0 0h.191m-.191 0h.191m0 0h.192m-.192 0h.192m0 0h.192m-.192 0h.192m0 0h.192m-.192 0h.192m0 0h.193m-.193 0h.193m0 0h.193m-.193 0h.193m0 0h.194m-.194 0h.194m0 0h.194m-.194 0h.194m0 0h.194m-.194 0h.194m0 0h.194m-.194 0h.194m0 0h.195m-.195 0h.195m0 0h.196m-.196 0h.196m0 0h.195m-.195 0h.195m0 0h.196m-.196 0h.196m0 0h.197m-.197 0h.197m0 0h.197m-.197 0h.197m0 0h.197m-.197 0h.197m0 0h.197m-.197 0h.197m0 0h.198m-.198 0h.198m0 0h.198m-.198 0h.198m0 0h.199m-.199 0h.199m0 0h.198m-.198 0h.198m0 0h.2m-.2 0h.2m0 0h.199m-.199 0h.199m0 0h.2m-.2 0h.2m0 0h.2m-.2 0h.2m0 0h.201m-.201 0h.201m0 0h.201m-.201 0h.201m0 0h.201m-.201 0h.201m0 0h.202m-.202 0h.202m0 0h.202m-.202 0h.202m0 0h.202m-.202 0h.202m0 0h.202m-.202 0h.202m0 0h.203m-.203 0h.203m0 0h.204m-.204 0h.204m0 0h.203m-.203 0h.203m0 0h.204m-.204 0h.204m0 0h.205m-.205 0h.205m0 0h.204m-.204 0h.204m0 0h.205m-.205 0h.205m0 0h.206m-.206 0h.206m0 0h.205m-.205 0h.205m0 0h.206m-.206 0h.206m0 0h.206m-.206 0h.206m0 0h.207m-.207 0h.207m0 0h.207m-.207 0h.207m0 0h.207m-.207 0h.207m0 0h.208m-.208 0h.208m0 0h.208m-.208 0h.208m0 0h.208m-.208 0h.208m0 0h.208m-.208 0h.208m0 0h.209m-.209 0h.209m0 0h.21m-.21 0h.21m0 0h.209m-.209 0h.209m0 0h.21m-.21 0h.21m0 0h.21m-.21 0h.21m0 0h.21m-.21 0h.21m0 0h.211m-.211 0h.211m0 0h.211m-.211 0h.211m0 0h.212m-.212 0h.212m0 0h.211m-.211 0h.211m0 0h.212m-.212 0h.212m0 0h.213m-.213 0h.213m0 0h.212m-.212 0h.212m0 0h.213m-.213 0h.213m0 0h.213m-.213 0h.213m0 0h.214m-.214 0h.214m0 0h.214m-.214 0h.214m0 0h.214m-.214 0h.214m0 0h.214m-.214 0h.214m0 0h.215m-.215 0h.215m0 0h.215m-.215 0h.215m0 0h.216m-.216 0h.216m0 0h.215m-.215 0h.215m0 0h.216m-.216 0h.216m0 0h.216m-.216 0h.216m0 0h.217m-.217 0h.217m0 0h.217m-.217 0h.217m0 0h.217m-.217 0h.217m0 0h.217m-.217 0h.217m0 0h.218m-.218 0h.218m0 0h.218m-.218 0h.218m0 0h.218m-.218 0h.218m0 0h.219m-.219 0h.219m0 0h.219m-.219 0h.219m0 0h.219m-.219 0h.219m0 0h.219m-.219 0h.219m0 0h.22m-.22 0h.22m0 0h.22m-.22 0h.22m0 0h.22m-.22 0h.22m0 0h.221m-.221 0h.221m0 0h.221m-.221 0h.221m0 0h.221m-.221 0h.221m0 0h.221m-.221 0h.221m0 0h.222m-.222 0h.222m0 0h.222m-.222 0h.222m0 0h.222m-.222 0h.222m0 0h.223m-.223 0h.223m0 0h.222m-.222 0h.222m0 0h.223m-.223 0h.223m0 0h.224m-.224 0h.224m0 0h.223m-.223 0h.223m0 0h.224m-.224 0h.224m0 0h.224m-.224 0h.224m0 0h.225m-.225 0h.225m0 0h.224m-.224 0h.224m0 0h.225m-.225 0h.225m0 0h.225m-.225 0h.225m0 0h.226m-.226 0h.226m0 0h.225m-.225 0h.225m0 0h.226m-.226 0h.226m0 0h.227m-.227 0h.227m0 0h.226m-.226 0h.226m0 0h.227m-.227 0h.227m0 0h.227m-.227 0h.227m0 0h.227m-.227 0h.227m0 0h.228m-.228 0h.228m0 0h.227m-.227 0h.227m0 0h.228m-.228 0h.228m0 0h.229m-.229 0h.229m0 0h.228m-.228 0h.228m0 0h.229m-.229 0h.229m0 0h.229m-.229 0h.229m0 0h.229m-.229 0h.229m0 0h.23m-.23 0h.23m0 0h.23m-.23 0h.23m0 0h.23m-.23 0h.23m0 0h.23m-.23 0h.23m0 0h.23m-.23 0h.23m0 0h.231m-.231 0h.231m0 0h.231m-.231 0h.231m0 0h.231m-.231 0h.231m0 0h.232m-.232 0h.232m0 0h.231m-.231 0h.231m0 0h.232m-.232 0h.232m0 0h.232m-.232 0h.232m0 0h.233m-.233 0h.233m0 0h.232m-.232 0h.232m0 0h.233m-.233 0h.233m0 0h.233m-.233 0h.233m0 0h.234m-.234 0h.234m0 0h.233m-.233 0h.233m0 0h.234m-.234 0h.234m0 0h.234m-.234 0h.234m0 0h.234m-.234 0h.234m0 0h.235m-.235 0h.235m0 0h.235m-.235 0h.235m0 0h.235m-.235 0h.235m0 0h.235m-.235 0h.235m0 0h.235m-.235 0h.235m0 0h.236m-.236 0h.236m0 0h.235m-.235 0h.235m0 0h.236m-.236 0h.236m0 0h.237m-.237 0h.237m0 0h.236m-.236 0h.236m0 0h.237m-.237 0h.237m0 0h.237m-.237 0h.237m0 0h.237m-.237 0h.237m0 0h.237m-.237 0h.237m0 0h.238m-.238 0h.238m0 0h.237m-.237 0h.237m0 0h.238m-.238 0h.238m0 0h.239m-.239 0h.239m0 0h.238m-.238 0h.238m0 0h.239m-.239 0h.239m0 0h.238m-.238 0h.238m0 0h.239m-.239 0h.239m0 0h.24m-.24 0h.24m0 0h.239m-.239 0h.239m0 0h.24m-.24 0h.24m0 0h.239m-.239 0h.239m0 0h.24m-.24 0h.24m0 0h.241m-.241 0h.241m0 0h.24m-.24 0h.24m0 0h.241m-.241 0h.241m0 0h.24m-.24 0h.24m0 0h.241m-.241 0h.241m0 0h.242m-.242 0h.242m0 0h.241m-.241 0h.241m0 0h.242m-.242 0h.242m0 0h.241m-.241 0h.241m0 0h.242m-.242 0h.242m0 0h.242m-.242 0h.242m0 0h.243m-.243 0h.243m0 0h.242m-.242 0h.242m0 0h.243m-.243 0h.243m0 0h.243m-.243 0h.243m0 0h.243m-.243 0h.243m0 0h.243m-.243 0h.243m0 0h.244m-.244 0h.244m0 0h.243m-.243 0h.243m0 0h.244m-.244 0h.244m0 0h.244m-.244 0h.244m0 0h.244m-.244 0h.244m0 0h.245m-.245 0h.245m0 0h.244m-.244 0h.244m0 0h.245m-.245 0h.245m0 0h.245m-.245 0h.245m0 0h.245m-.245 0h.245m0 0h.245m-.245 0h.245m0 0h.245m-.245 0h.245m0 0h.246m-.246 0h.246m0 0h.246m-.246 0h.246m0 0h.246m-.246 0h.246m0 0h.246m-.246 0h.246m0 0h.246m-.246 0h.246m0 0h.246m-.246 0h.246m0 0h.247m-.247 0h.247m0 0h.247m-.247 0h.247m0 0h.246m-.246 0h.246m0 0h.248m-.248 0h.248m0 0h.247m-.247 0h.247m0 0h.247m-.247 0h.247m0 0h.248m-.248 0h.248m0 0h.247m-.247 0h.247m0 0h.248m-.248 0h.248m0 0h.248m-.248 0h.248m0 0h.248m-.248 0h.248m0 0h.249m-.249 0h.249m0 0h.248m-.248 0h.248m0 0h.249m-.249 0h.249m0 0h.249m-.249 0h.249m0 0h.248m-.248 0h.248m0 0h.249m-.249 0h.249m0 0h.25m-.25 0h.25m0 0h.249m-.249 0h.249m0 0h.25m-.25 0h.25m0 0h.249m-.249 0h.249m0 0h.25m-.25 0h.25m0 0h.25m-.25 0h.25m0 0h.25m-.25 0h.25m0 0h.25m-.25 0h.25m0 0h.251m-.251 0h.251m0 0h.25m-.25 0h.25m0 0h.251m-.251 0h.251m0 0h.251m-.251 0h.251m0 0h.25m-.25 0h.25m0 0h.251m-.251 0h.251m0 0h.252m-.252 0h.252m0 0h.251m-.251 0h.251m0 0h.251m-.251 0h.251m0 0h.252m-.252 0h.252m0 0h.252m-.252 0h.252m0 0h.252m-.252 0h.252m0 0h.252m-.252 0h.252m0 0h.252m-.252 0h.252m0 0h.252m-.252 0h.252m0 0h.252m-.252 0h.252m0 0h.253m-.253 0h.253m0 0h.252m-.252 0h.252m0 0h.253m-.253 0h.253m0 0h.253m-.253 0h.253m0 0h.253m-.253 0h.253m0 0h.253m-.253 0h.253m0 0h.253m-.253 0h.253m0 0h.253m-.253 0h.253m0 0h.254m-.254 0h.254m0 0h.253m-.253 0h.253m0 0h.254m-.254 0h.254m0 0h.254m-.254 0h.254m0 0h.254m-.254 0h.254m0 0h.253m-.253 0h.253m0 0h.255m-.255 0h.255m0 0h.254m-.254 0h.254m0 0h.254m-.254 0h.254m0 0h.255m-.255 0h.255m0 0h.254m-.254 0h.254m0 0h.255m-.255 0h.255m0 0h.254m-.254 0h.254m0 0h.255m-.255 0h.255m0 0h.255m-.255 0h.255m0 0h.255m-.255 0h.255m0 0h.255m-.255 0h.255m0 0h.256m-.256 0h.256m0 0h.255m-.255 0h.255m0 0h.255m-.255 0h.255m0 0h.256m-.256 0h.256m0 0h.256m-.256 0h.256m0 0h.255m-.255 0h.255m0 0h.256m-.256 0h.256m0 0h.256m-.256 0h.256m0 0h.256m-.256 0h.256m0 0h.256m-.256 0h.256m0 0h.256m-.256 0h.256m0 0h.257m-.257 0h.257m0 0h.256m-.256 0h.256m0 0h.256m-.256 0h.256m0 0h.257m-.257 0h.257m0 0h.257m-.257 0h.257m0 0h.256m-.256 0h.256m0 0h.257m-.257 0h.257m0 0h.257m-.257 0h.257m0 0h.257m-.257 0h.257m0 0h.257m-.257 0h.257m0 0h.257m-.257 0h.257m0 0h.257m-.257 0h.257m0 0h.257m-.257 0h.257m0 0h.258m-.258 0h.258m0 0h.257m-.257 0h.257m0 0h.258m-.258 0h.258m0 0h.257m-.257 0h.257m0 0h.258m-.258 0h.258m0 0h.257m-.257 0h.257m0 0h.258m-.258 0h.258m0 0h.258m-.258 0h.258m0 0h.258m-.258 0h.258m0 0h.258m-.258 0h.258m0 0h.258m-.258 0h.258m0 0h.258m-.258 0h.258m0 0h.258m-.258 0h.258m0 0h.258m-.258 0h.258m0 0h.259m-.259 0h.259m0 0h.258-.258Z"/></g></g><defs><filter id="b" width="1029.75" height="357.24" x="-861.751" y="-57.535" color-interpolation-filters="sRGB" filterUnits="userSpaceOnUse"><feFlood flood-opacity="0" result="BackgroundImageFix"/><feColorMatrix in="SourceAlpha" result="hardAlpha" values="0 0 0 0 0 0 0 0 0 0 0 0 0 0 0 0 0 0 127 0"/><feOffset dy="12"/><feGaussianBlur stdDeviation="6.5"/><feColorMatrix values="0 0 0 0 0 0 0 0 0 0 0 0 0 0 0 0 0 0 0.17 0"/><feBlend in2="BackgroundImageFix" result="effect1_dropShadow_2_10"/><feColorMatrix in="SourceAlpha" result="hardAlpha" values="0 0 0 0 0 0 0 0 0 0 0 0 0 0 0 0 0 0 127 0"/><feOffset dy="4"/><feGaussianBlur stdDeviation="3"/><feColorMatrix values="0 0 0 0 0 0 0 0 0 0 0 0 0 0 0 0 0 0 0.12 0"/><feBlend in2="effect1_dropShadow_2_10" result="effect2_dropShadow_2_10"/><feColorMatrix in="SourceAlpha" result="hardAlpha" values="0 0 0 0 0 0 0 0 0 0 0 0 0 0 0 0 0 0 127 0"/><feOffset dy="-12"/><feGaussianBlur stdDeviation="15"/><feColorMatrix values="0 0 0 0 0 0 0 0 0 0 0 0 0 0 0 0 0 0 0.12 0"/><feBlend in2="effect2_dropShadow_2_10" result="effect3_dropShadow_2_10"/><feColorMatrix in="SourceAlpha" result="hardAlpha" values="0 0 0 0 0 0 0 0 0 0 0 0 0 0 0 0 0 0 127 0"/><feOffset dy="54"/><feGaussianBlur stdDeviation="27.5"/><feColorMatrix values="0 0 0 0 0 0 0 0 0 0 0 0 0 0 0 0 0 0 0.25 0"/><feBlend in2="effect3_dropShadow_2_10" result="effect4_dropShadow_2_10"/><feColorMatrix in="SourceAlpha" result="hardAlpha" values="0 0 0 0 0 0 0 0 0 0 0 0 0 0 0 0 0 0 127 0"/><feOffset dy="4"/><feGaussianBlur stdDeviation="2"/><feComposite in2="hardAlpha" operator="out"/><feColorMatrix values="0 0 0 0 0 0 0 0 0 0 0 0 0 0 0 0 0 0 0.25 0"/><feBlend in2="effect4_dropShadow_2_10" result="effect5_dropShadow_2_10"/><feBlend in="SourceGraphic" in2="effect5_dropShadow_2_10" result="shape"/></filter><filter id="c" width="645.244" height="273.225" x="-468.367" y="-15.703" color-interpolation-filters="sRGB" filterUnits="userSpaceOnUse"><feFlood flood-opacity="0" result="BackgroundImageFix"/><feColorMatrix in="SourceAlpha" result="hardAlpha" values="0 0 0 0 0 0 0 0 0 0 0 0 0 0 0 0 0 0 127 0"/><feOffset dy="12"/><feGaussianBlur stdDeviation="6.5"/><feColorMatrix values="0 0 0 0 0 0 0 0 0 0 0 0 0 0 0 0 0 0 0.17 0"/><feBlend in2="BackgroundImageFix" result="effect1_dropShadow_2_10"/><feColorMatrix in="SourceAlpha" result="hardAlpha" values="0 0 0 0 0 0 0 0 0 0 0 0 0 0 0 0 0 0 127 0"/><feOffset dy="4"/><feGaussianBlur stdDeviation="3"/><feColorMatrix values="0 0 0 0 0 0 0 0 0 0 0 0 0 0 0 0 0 0 0.12 0"/><feBlend in2="effect1_dropShadow_2_10" result="effect2_dropShadow_2_10"/><feColorMatrix in="SourceAlpha" result="hardAlpha" values="0 0 0 0 0 0 0 0 0 0 0 0 0 0 0 0 0 0 127 0"/><feOffset dy="-12"/><feGaussianBlur stdDeviation="15"/><feColorMatrix values="0 0 0 0 0 0 0 0 0 0 0 0 0 0 0 0 0 0 0.12 0"/><feBlend in2="effect2_dropShadow_2_10" result="effect3_dropShadow_2_10"/><feColorMatrix in="SourceAlpha" result="hardAlpha" values="0 0 0 0 0 0 0 0 0 0 0 0 0 0 0 0 0 0 127 0"/><feOffset dy="54"/><feGaussianBlur stdDeviation="27.5"/><feColorMatrix values="0 0 0 0 0 0 0 0 0 0 0 0 0 0 0 0 0 0 0.25 0"/><feBlend in2="effect3_dropShadow_2_10" result="effect4_dropShadow_2_10"/><feColorMatrix in="SourceAlpha" result="hardAlpha" values="0 0 0 0 0 0 0 0 0 0 0 0 0 0 0 0 0 0 127 0"/><feOffset dy="4"/><feGaussianBlur stdDeviation="2"/><feComposite in2="hardAlpha" operator="out"/><feColorMatrix values="0 0 0 0 0 0 0 0 0 0 0 0 0 0 0 0 0 0 0.25 0"/><feBlend in2="effect4_dropShadow_2_10" result="effect5_dropShadow_2_10"/><feBlend in="SourceGraphic" in2="effect5_dropShadow_2_10" result="shape"/></filter><filter id="d" width="644.8" height="262.86" x="-456.38" y="11.984" color-interpolation-filters="sRGB" filterUnits="userSpaceOnUse"><feFlood flood-opacity="0" result="BackgroundImageFix"/><feColorMatrix in="SourceAlpha" result="hardAlpha" values="0 0 0 0 0 0 0 0 0 0 0 0 0 0 0 0 0 0 127 0"/><feOffset dy="12"/><feGaussianBlur stdDeviation="6.5"/><feColorMatrix values="0 0 0 0 0 0 0 0 0 0 0 0 0 0 0 0 0 0 0.17 0"/><feBlend in2="BackgroundImageFix" result="effect1_dropShadow_2_10"/><feColorMatrix in="SourceAlpha" result="hardAlpha" values="0 0 0 0 0 0 0 0 0 0 0 0 0 0 0 0 0 0 127 0"/><feOffset dy="4"/><feGaussianBlur stdDeviation="3"/><feColorMatrix values="0 0 0 0 0 0 0 0 0 0 0 0 0 0 0 0 0 0 0.12 0"/><feBlend in2="effect1_dropShadow_2_10" result="effect2_dropShadow_2_10"/><feColorMatrix in="SourceAlpha" result="hardAlpha" values="0 0 0 0 0 0 0 0 0 0 0 0 0 0 0 0 0 0 127 0"/><feOffset dy="-12"/><feGaussianBlur stdDeviation="15"/><feColorMatrix values="0 0 0 0 0 0 0 0 0 0 0 0 0 0 0 0 0 0 0.12 0"/><feBlend in2="effect2_dropShadow_2_10" result="effect3_dropShadow_2_10"/><feColorMatrix in="SourceAlpha" result="hardAlpha" values="0 0 0 0 0 0 0 0 0 0 0 0 0 0 0 0 0 0 127 0"/><feOffset dy="54"/><feGaussianBlur stdDeviation="27.5"/><feColorMatrix values="0 0 0 0 0 0 0 0 0 0 0 0 0 0 0 0 0 0 0.25 0"/><feBlend in2="effect3_dropShadow_2_10" result="effect4_dropShadow_2_10"/><feColorMatrix in="SourceAlpha" result="hardAlpha" values="0 0 0 0 0 0 0 0 0 0 0 0 0 0 0 0 0 0 127 0"/><feOffset dy="4"/><feGaussianBlur stdDeviation="2"/><feComposite in2="hardAlpha" operator="out"/><feColorMatrix values="0 0 0 0 0 0 0 0 0 0 0 0 0 0 0 0 0 0 0.25 0"/><feBlend in2="effect4_dropShadow_2_10" result="effect5_dropShadow_2_10"/><feBlend in="SourceGraphic" in2="effect5_dropShadow_2_10" result="shape"/></filter></defs></svg>